G04 start of page 14 for group -4079 idx -4079 *
G04 Title: (unknown), topsilk *
G04 Creator: pcb 20091103 *
G04 CreationDate: Чтв 05 Июл 2012 10:45:54 UTC *
G04 For: aml *
G04 Format: Gerber/RS-274X *
G04 PCB-Dimensions: 1259850 590550 *
G04 PCB-Coordinate-Origin: lower left *
%MOIN*%
%FSLAX25Y25*%
%LNFRONTSILK*%
%ADD13C,0.0100*%
%ADD50C,0.0110*%
%ADD51C,0.0080*%
%ADD52C,0.0040*%
G54D50*X18508Y74802D02*X29548D01*
X25408D02*X24028Y76182D01*
Y78942D02*Y76182D01*
Y78942D02*X25408Y80322D01*
X29548D01*
X25408Y83636D02*X28168D01*
X25408D02*X24028Y85016D01*
Y87776D02*Y85016D01*
Y87776D02*X25408Y89156D01*
X28168D01*
X29548Y87776D02*X28168Y89156D01*
X29548Y87776D02*Y85016D01*
X28168Y83636D02*X29548Y85016D01*
X25408Y93851D02*X29548D01*
X25408D02*X24028Y95231D01*
Y96611D02*Y95231D01*
Y96611D02*X25408Y97991D01*
X29548D01*
X25408D02*X24028Y99371D01*
Y100751D02*Y99371D01*
Y100751D02*X25408Y102131D01*
X29548D01*
X24028Y92471D02*X25408Y93851D01*
X29548Y110966D02*Y106826D01*
X28168Y105446D02*X29548Y106826D01*
X25408Y105446D02*X28168D01*
X25408D02*X24028Y106826D01*
Y109586D02*Y106826D01*
Y109586D02*X25408Y110966D01*
X26788D02*Y105446D01*
X25408Y110966D02*X26788D01*
X24028Y118421D02*X25408Y119801D01*
X24028Y118421D02*Y115661D01*
X25408Y114281D02*X24028Y115661D01*
X25408Y114281D02*X28168D01*
X29548Y115661D01*
X24028Y119801D02*X28168D01*
X29548Y121181D01*
Y118421D02*Y115661D01*
Y118421D02*X28168Y119801D01*
X24028Y124495D02*X28168D01*
X29548Y125875D01*
Y128635D02*Y125875D01*
Y128635D02*X28168Y130015D01*
X24028D02*X28168D01*
X18508Y134710D02*X28168D01*
X29548Y136090D01*
X22648D02*Y133330D01*
X25408Y138853D02*X28168D01*
X25408D02*X24028Y140233D01*
Y142993D02*Y140233D01*
Y142993D02*X25408Y144373D01*
X28168D01*
X29548Y142993D02*X28168Y144373D01*
X29548Y142993D02*Y140233D01*
X28168Y138853D02*X29548Y140233D01*
X22648Y149068D02*Y147688D01*
X25408Y149068D02*Y147688D01*
Y158730D02*X29548D01*
X25408D02*X24028Y160110D01*
Y161490D02*Y160110D01*
Y161490D02*X25408Y162870D01*
X29548D01*
X25408D02*X24028Y164250D01*
Y165630D02*Y164250D01*
Y165630D02*X25408Y167010D01*
X29548D01*
X24028Y157350D02*X25408Y158730D01*
X24028Y174465D02*X25408Y175845D01*
X24028Y174465D02*Y171705D01*
X25408Y170325D02*X24028Y171705D01*
X25408Y170325D02*X28168D01*
X29548Y171705D01*
X24028Y175845D02*X28168D01*
X29548Y177225D01*
Y174465D02*Y171705D01*
Y174465D02*X28168Y175845D01*
X21268Y180540D02*X22648D01*
X25408D02*X29548D01*
X25408Y184683D02*X29548D01*
X25408D02*X24028Y186063D01*
Y187443D02*Y186063D01*
Y187443D02*X25408Y188823D01*
X29548D01*
X24028Y183303D02*X25408Y184683D01*
X24028Y197657D02*Y193517D01*
X25408Y192137D02*X24028Y193517D01*
X25408Y192137D02*X28168D01*
X29548Y193517D01*
Y197657D02*Y193517D01*
X25408Y200972D02*X28168D01*
X25408D02*X24028Y202352D01*
Y205112D02*Y202352D01*
Y205112D02*X25408Y206492D01*
X28168D01*
X29548Y205112D02*X28168Y206492D01*
X29548Y205112D02*Y202352D01*
X28168Y200972D02*X29548Y202352D01*
X25408Y211187D02*X29548D01*
X25408D02*X24028Y212567D01*
Y213947D02*Y212567D01*
Y213947D02*X25408Y215327D01*
X29548D01*
X24028Y209807D02*X25408Y211187D01*
X18508Y220022D02*X28168D01*
X29548Y221402D01*
X22648D02*Y218642D01*
X25408Y225544D02*X29548D01*
X25408D02*X24028Y226924D01*
Y229684D02*Y226924D01*
Y224164D02*X25408Y225544D01*
Y232999D02*X28168D01*
X25408D02*X24028Y234379D01*
Y237139D02*Y234379D01*
Y237139D02*X25408Y238519D01*
X28168D01*
X29548Y237139D02*X28168Y238519D01*
X29548Y237139D02*Y234379D01*
X28168Y232999D02*X29548Y234379D01*
X18508Y241834D02*X28168D01*
X29548Y243214D01*
X28168Y250945D02*X29548Y252325D01*
X19888Y250945D02*X22648D01*
X19888D02*X18508Y252325D01*
X25408Y250945D02*X21268Y255085D01*
X29548Y253705D02*Y252325D01*
Y253705D02*X26788Y256465D01*
X22648Y250945D02*X29548Y257845D01*
X18508Y253705D02*Y252325D01*
Y253705D02*X19888Y255085D01*
X21268D01*
X25408Y250945D02*X28168D01*
X25408Y267507D02*X29548D01*
X25408D02*X24028Y268887D01*
Y271647D02*Y268887D01*
Y266127D02*X25408Y267507D01*
X29548Y280482D02*Y276342D01*
X28168Y274962D02*X29548Y276342D01*
X25408Y274962D02*X28168D01*
X25408D02*X24028Y276342D01*
Y279102D02*Y276342D01*
Y279102D02*X25408Y280482D01*
X26788D02*Y274962D01*
X25408Y280482D02*X26788D01*
X18508Y283797D02*X28168D01*
X29548Y285177D01*
X24028Y292080D02*X25408Y293460D01*
X24028Y292080D02*Y289320D01*
X25408Y287940D02*X24028Y289320D01*
X25408Y287940D02*X28168D01*
X29548Y289320D01*
X24028Y293460D02*X28168D01*
X29548Y294840D01*
Y292080D02*Y289320D01*
Y292080D02*X28168Y293460D01*
X24028Y298155D02*X28168D01*
X29548Y299535D01*
X24028Y303675D02*X32308D01*
X33688Y302295D02*X32308Y303675D01*
X33688Y302295D02*Y299535D01*
X32308Y298155D02*X33688Y299535D01*
X29548Y302295D02*Y299535D01*
Y302295D02*X28168Y303675D01*
X24028Y312509D02*Y308369D01*
X25408Y306989D02*X24028Y308369D01*
X25408Y306989D02*X28168D01*
X29548Y308369D01*
Y312509D02*Y308369D01*
X25408Y315824D02*X28168D01*
X25408D02*X24028Y317204D01*
Y319964D02*Y317204D01*
Y319964D02*X25408Y321344D01*
X28168D01*
X29548Y319964D02*X28168Y321344D01*
X29548Y319964D02*Y317204D01*
X28168Y315824D02*X29548Y317204D01*
X25408Y326039D02*X29548D01*
X25408D02*X24028Y327419D01*
Y328799D02*Y327419D01*
Y328799D02*X25408Y330179D01*
X29548D01*
X24028Y324659D02*X25408Y326039D01*
X18508Y334874D02*X28168D01*
X29548Y336254D01*
X22648D02*Y333494D01*
X25408Y340396D02*X29548D01*
X25408D02*X24028Y341776D01*
Y344536D02*Y341776D01*
Y339016D02*X25408Y340396D01*
Y347851D02*X28168D01*
X25408D02*X24028Y349231D01*
Y351991D02*Y349231D01*
Y351991D02*X25408Y353371D01*
X28168D01*
X29548Y351991D02*X28168Y353371D01*
X29548Y351991D02*Y349231D01*
X28168Y347851D02*X29548Y349231D01*
X18508Y356686D02*X28168D01*
X29548Y358066D01*
Y362209D02*Y360829D01*
X25408Y371871D02*X29548D01*
X25408D02*X24028Y373251D01*
Y376011D02*Y373251D01*
Y370491D02*X25408Y371871D01*
X29548Y384846D02*Y380706D01*
X28168Y379326D02*X29548Y380706D01*
X25408Y379326D02*X28168D01*
X25408D02*X24028Y380706D01*
Y383466D02*Y380706D01*
Y383466D02*X25408Y384846D01*
X26788D02*Y379326D01*
X25408Y384846D02*X26788D01*
X24028Y388161D02*X26788D01*
X29548Y390921D01*
X26788Y393681D01*
X24028D02*X26788D01*
X28168Y401964D02*X29548Y403344D01*
X19888Y401964D02*X28168D01*
X19888D02*X18508Y403344D01*
Y406104D02*Y403344D01*
Y406104D02*X19888Y407484D01*
X28168D01*
X29548Y406104D02*X28168Y407484D01*
X29548Y406104D02*Y403344D01*
X26788Y401964D02*X21268Y407484D01*
X29548Y412178D02*Y410798D01*
Y419633D02*Y416873D01*
X18508Y418253D02*X29548D01*
X21268Y415493D02*X18508Y418253D01*
X28168Y427916D02*X29548Y429296D01*
X19888Y427916D02*X18508Y429296D01*
X19888Y427916D02*X28168D01*
X24028Y438131D02*Y433991D01*
X25408Y432611D02*X24028Y433991D01*
X25408Y432611D02*X28168D01*
X29548Y433991D01*
Y438131D02*Y433991D01*
X18508Y441445D02*X19888Y442825D01*
X28168D01*
X29548Y441445D02*X28168Y442825D01*
X24028Y455248D02*X25408Y456628D01*
X24028Y455248D02*Y452488D01*
X25408Y451108D02*X24028Y452488D01*
X25408Y451108D02*X28168D01*
X29548Y452488D01*
X24028Y456628D02*X28168D01*
X29548Y458008D01*
Y455248D02*Y452488D01*
Y455248D02*X28168Y456628D01*
X25408Y462703D02*X29548D01*
X25408D02*X24028Y464083D01*
Y465463D02*Y464083D01*
Y465463D02*X25408Y466843D01*
X29548D01*
X25408D02*X24028Y468223D01*
Y469603D02*Y468223D01*
Y469603D02*X25408Y470983D01*
X29548D01*
X24028Y461323D02*X25408Y462703D01*
X18508Y474298D02*X28168D01*
X29548Y475678D01*
X32308Y478440D02*X29548Y481200D01*
X19888Y489483D02*X18508Y490863D01*
Y495003D02*Y490863D01*
Y495003D02*X19888Y496383D01*
X22648D01*
X29548Y489483D02*X22648Y496383D01*
X29548D02*Y489483D01*
X28168Y499698D02*X29548Y501078D01*
X19888Y499698D02*X28168D01*
X19888D02*X18508Y501078D01*
Y503838D02*Y501078D01*
Y503838D02*X19888Y505218D01*
X28168D01*
X29548Y503838D02*X28168Y505218D01*
X29548Y503838D02*Y501078D01*
X26788Y499698D02*X21268Y505218D01*
X29548Y512673D02*Y509913D01*
X18508Y511293D02*X29548D01*
X21268Y508533D02*X18508Y511293D01*
X19888Y515988D02*X18508Y517368D01*
Y521508D02*Y517368D01*
Y521508D02*X19888Y522888D01*
X22648D01*
X29548Y515988D02*X22648Y522888D01*
X29548D02*Y515988D01*
G54D13*X1167322Y435039D02*Y375983D01*
X1198818Y435039D02*Y375983D01*
X1167322Y435038D02*X1198818D01*
X1167322Y415353D02*X1198818D01*
X1167322Y395668D02*X1198818D01*
X1167322Y375983D02*X1198818D01*
X1167322Y187006D02*Y88581D01*
X1198818Y187006D02*Y88581D01*
X1167322Y187006D02*X1198818D01*
X1167322Y167321D02*X1198818D01*
X1167322Y147636D02*X1198818D01*
X1167322Y127951D02*X1198818D01*
X1167322Y108266D02*X1198818D01*
X1167322Y88581D02*X1198818D01*
X1167322Y253936D02*Y194880D01*
X1198818Y253936D02*Y194880D01*
X1167322Y253935D02*X1198818D01*
X1167322Y234250D02*X1198818D01*
X1167322Y214565D02*X1198818D01*
X1167322Y194880D02*X1198818D01*
X1167322Y529526D02*X1198818D01*
X1167322Y509841D02*X1198818D01*
X1167322Y490156D02*X1198818D01*
X1167322Y529526D02*Y490156D01*
X1198818Y529526D02*Y490156D01*
X1167322Y482282D02*X1198818D01*
X1167322Y462597D02*X1198818D01*
X1167322Y442912D02*X1198818D01*
X1167322Y482282D02*Y442912D01*
X1198818Y482282D02*Y442912D01*
X917697Y204723D02*G75*G03X917697Y204723I15000J0D01*G01*
X844448Y114841D02*X854448D01*
Y124841D02*Y114841D01*
X844448Y124841D02*X854448D01*
X844448D02*Y114841D01*
Y184841D02*X1044448D01*
X844448D02*Y114841D01*
X1044448D01*
Y184841D02*Y114841D01*
X816024Y166416D02*Y176416D01*
X806024Y166416D02*X816024D01*
Y176416D02*X806024D01*
X816024Y116416D02*Y176416D01*
X806024Y116416D02*X816024D01*
X806024Y176416D02*Y116416D01*
X727441Y204448D02*Y214448D01*
X717441Y204448D02*X727441D01*
X737441Y214448D02*X717441D01*
X737441Y134448D02*Y214448D01*
X717441Y134448D02*X737441D01*
X717441Y214448D02*Y134448D01*
X1167322Y320865D02*Y261809D01*
X1198818Y320865D02*Y261809D01*
X1167322Y320864D02*X1198818D01*
X1167322Y301179D02*X1198818D01*
X1167322Y281494D02*X1198818D01*
X1167322Y261809D02*X1198818D01*
X642133Y242629D02*G75*G03X642133Y235557I3535J-3535D01*G01*
X649204Y235558D02*G75*G03X649204Y242628I-3535J3535D01*G01*
X640719Y244043D02*G75*G03X640719Y234143I4949J-4949D01*G01*
X650618Y234144D02*G75*G03X650618Y244042I-4949J4949D01*G01*
G54D51*X648228Y264171D02*Y259447D01*
X640748Y264171D02*Y259447D01*
G54D13*X616141Y45275D02*X773621D01*
X616141Y76771D02*X773621D01*
Y45275D01*
X753936Y76771D02*Y45275D01*
X734251Y76771D02*Y45275D01*
X714566Y76771D02*Y45275D01*
X694881Y76771D02*Y45275D01*
X675196Y76771D02*Y45275D01*
X655511Y76771D02*Y45275D01*
X635826Y76771D02*Y45275D01*
X616141D02*Y76771D01*
X785433D02*X883858D01*
X785433Y45275D02*X883858D01*
Y76771D02*Y45275D01*
X864173Y76771D02*Y45275D01*
X844488Y76771D02*Y45275D01*
X824803Y76771D02*Y45275D01*
X805118Y76771D02*Y45275D01*
X785433D02*Y76771D01*
X895669Y45275D02*X1033464D01*
X895669Y76771D02*X1033464D01*
Y45275D01*
X1013779Y76771D02*Y45275D01*
X994094Y76771D02*Y45275D01*
X974409Y76771D02*Y45275D01*
X954724Y76771D02*Y45275D01*
X935039Y76771D02*Y45275D01*
X915354Y76771D02*Y45275D01*
X895669D02*Y76771D01*
X1045275Y45275D02*X1202755D01*
X1045275Y76771D02*X1202755D01*
Y45275D01*
X1183070Y76771D02*Y45275D01*
X1163385Y76771D02*Y45275D01*
X1143700Y76771D02*Y45275D01*
X1124015Y76771D02*Y45275D01*
X1104330Y76771D02*Y45275D01*
X1084645Y76771D02*Y45275D01*
X1064960Y76771D02*Y45275D01*
X1045275Y76771D02*Y45275D01*
X216398Y303022D02*X327398D01*
X216398Y348522D02*Y303022D01*
Y348522D02*X327398D01*
Y303022D01*
X193925Y315972D02*G75*G03X184026Y315971I-4949J-4949D01*G01*
X184026Y306073D02*G75*G03X193925Y306072I4949J4949D01*G01*
X192511Y314558D02*G75*G03X185440Y314557I-3535J-3535D01*G01*
X185440Y307487D02*G75*G03X192511Y307486I3535J3535D01*G01*
X193925Y371091D02*G75*G03X184026Y371090I-4949J-4949D01*G01*
X184026Y361192D02*G75*G03X193925Y361191I4949J4949D01*G01*
X192511Y369677D02*G75*G03X185440Y369676I-3535J-3535D01*G01*
X185440Y362606D02*G75*G03X192511Y362605I3535J3535D01*G01*
X355343Y315972D02*G75*G03X345444Y315971I-4949J-4949D01*G01*
X345444Y306073D02*G75*G03X355343Y306072I4949J4949D01*G01*
X353929Y314558D02*G75*G03X346858Y314557I-3535J-3535D01*G01*
X346858Y307487D02*G75*G03X353929Y307486I3535J3535D01*G01*
X343394Y290563D02*X357394D01*
X350393Y273463D02*G75*G03X357464Y290535I0J10001D01*G01*
X343322Y290535D02*G75*G03X350394Y273463I7071J-7071D01*G01*
X343394Y345681D02*X357394D01*
X350393Y328581D02*G75*G03X357464Y345653I0J10001D01*G01*
X343322Y345653D02*G75*G03X350394Y328581I7071J-7071D01*G01*
X377816Y303022D02*X488816D01*
X377816Y348522D02*Y303022D01*
Y348522D02*X488816D01*
Y303022D01*
X355343Y260854D02*G75*G03X345444Y260853I-4949J-4949D01*G01*
X345444Y250955D02*G75*G03X355343Y250954I4949J4949D01*G01*
X353929Y259440D02*G75*G03X346858Y259439I-3535J-3535D01*G01*
X346858Y252369D02*G75*G03X353929Y252368I3535J3535D01*G01*
X216398Y192786D02*X327398D01*
X216398Y238286D02*Y192786D01*
Y238286D02*X327398D01*
Y192786D01*
X216398Y247904D02*X327398D01*
X216398Y293404D02*Y247904D01*
Y293404D02*X327398D01*
Y247904D01*
X54980Y523495D02*X165980D01*
X54980Y568995D02*Y523495D01*
Y568995D02*X165980D01*
Y523495D01*
X193925Y536445D02*G75*G03X184026Y536444I-4949J-4949D01*G01*
X184026Y526546D02*G75*G03X193925Y526545I4949J4949D01*G01*
X192511Y535031D02*G75*G03X185440Y535030I-3535J-3535D01*G01*
X185440Y527960D02*G75*G03X192511Y527959I3535J3535D01*G01*
X181976Y566154D02*X195976D01*
X188975Y549054D02*G75*G03X196046Y566126I0J10001D01*G01*
X181904Y566126D02*G75*G03X188976Y549054I7071J-7071D01*G01*
X54980Y358141D02*X165980D01*
X54980Y403641D02*Y358141D01*
Y403641D02*X165980D01*
Y358141D01*
X181976Y400800D02*X195976D01*
X188975Y383700D02*G75*G03X196046Y400772I0J10001D01*G01*
X181904Y400772D02*G75*G03X188976Y383700I7071J-7071D01*G01*
X193925Y481327D02*G75*G03X184026Y481326I-4949J-4949D01*G01*
X184026Y471428D02*G75*G03X193925Y471427I4949J4949D01*G01*
X192511Y479913D02*G75*G03X185440Y479912I-3535J-3535D01*G01*
X185440Y472842D02*G75*G03X192511Y472841I3535J3535D01*G01*
X54980Y468377D02*X165980D01*
X54980Y513877D02*Y468377D01*
Y513877D02*X165980D01*
Y468377D01*
X181976Y455918D02*X195976D01*
X188975Y438818D02*G75*G03X196046Y455890I0J10001D01*G01*
X181904Y455890D02*G75*G03X188976Y438818I7071J-7071D01*G01*
X54980Y413259D02*X165980D01*
X54980Y458759D02*Y413259D01*
Y458759D02*X165980D01*
Y413259D01*
X54980Y27432D02*X165980D01*
X54980Y72932D02*Y27432D01*
Y72932D02*X165980D01*
Y27432D01*
X54980Y137668D02*X165980D01*
X54980Y183168D02*Y137668D01*
Y183168D02*X165980D01*
Y137668D01*
X54980Y82550D02*X165980D01*
X54980Y128050D02*Y82550D01*
Y128050D02*X165980D01*
Y82550D01*
X193925Y95500D02*G75*G03X184026Y95499I-4949J-4949D01*G01*
X184026Y85601D02*G75*G03X193925Y85600I4949J4949D01*G01*
X192511Y94086D02*G75*G03X185440Y94085I-3535J-3535D01*G01*
X185440Y87015D02*G75*G03X192511Y87014I3535J3535D01*G01*
X193925Y40382D02*G75*G03X184026Y40381I-4949J-4949D01*G01*
X184026Y30483D02*G75*G03X193925Y30482I4949J4949D01*G01*
X192511Y38968D02*G75*G03X185440Y38967I-3535J-3535D01*G01*
X185440Y31897D02*G75*G03X192511Y31896I3535J3535D01*G01*
X181976Y70091D02*X195976D01*
X188975Y52991D02*G75*G03X196046Y70063I0J10001D01*G01*
X181904Y70063D02*G75*G03X188976Y52991I7071J-7071D01*G01*
X216398Y27432D02*X327398D01*
X216398Y72932D02*Y27432D01*
Y72932D02*X327398D01*
Y27432D01*
X216398Y82550D02*X327398D01*
X216398Y128050D02*Y82550D01*
Y128050D02*X327398D01*
Y82550D01*
X216398Y137668D02*X327398D01*
X216398Y183168D02*Y137668D01*
Y183168D02*X327398D01*
Y137668D01*
X193925Y150618D02*G75*G03X184026Y150617I-4949J-4949D01*G01*
X184026Y140719D02*G75*G03X193925Y140718I4949J4949D01*G01*
X192511Y149204D02*G75*G03X185440Y149203I-3535J-3535D01*G01*
X185440Y142133D02*G75*G03X192511Y142132I3535J3535D01*G01*
X181976Y125209D02*X195976D01*
X188975Y108109D02*G75*G03X196046Y125181I0J10001D01*G01*
X181904Y125181D02*G75*G03X188976Y108109I7071J-7071D01*G01*
X193925Y426209D02*G75*G03X184026Y426208I-4949J-4949D01*G01*
X184026Y416310D02*G75*G03X193925Y416309I4949J4949D01*G01*
X192511Y424795D02*G75*G03X185440Y424794I-3535J-3535D01*G01*
X185440Y417724D02*G75*G03X192511Y417723I3535J3535D01*G01*
X355343Y426209D02*G75*G03X345444Y426208I-4949J-4949D01*G01*
X345444Y416310D02*G75*G03X355343Y416309I4949J4949D01*G01*
X353929Y424795D02*G75*G03X346858Y424794I-3535J-3535D01*G01*
X346858Y417724D02*G75*G03X353929Y417723I3535J3535D01*G01*
X343394Y511036D02*X357394D01*
X350393Y493936D02*G75*G03X357464Y511008I0J10001D01*G01*
X343322Y511008D02*G75*G03X350394Y493936I7071J-7071D01*G01*
X181976Y511036D02*X195976D01*
X188975Y493936D02*G75*G03X196046Y511008I0J10001D01*G01*
X181904Y511008D02*G75*G03X188976Y493936I7071J-7071D01*G01*
X355343Y371091D02*G75*G03X345444Y371090I-4949J-4949D01*G01*
X345444Y361192D02*G75*G03X355343Y361191I4949J4949D01*G01*
X353929Y369677D02*G75*G03X346858Y369676I-3535J-3535D01*G01*
X346858Y362606D02*G75*G03X353929Y362605I3535J3535D01*G01*
X343394Y400800D02*X357394D01*
X350393Y383700D02*G75*G03X357464Y400772I0J10001D01*G01*
X343322Y400772D02*G75*G03X350394Y383700I7071J-7071D01*G01*
X216398Y358141D02*X327398D01*
X216398Y403641D02*Y358141D01*
Y403641D02*X327398D01*
Y358141D01*
X216398Y413259D02*X327398D01*
X216398Y458759D02*Y413259D01*
Y458759D02*X327398D01*
Y413259D01*
X377816Y523495D02*X488816D01*
X377816Y568995D02*Y523495D01*
Y568995D02*X488816D01*
Y523495D01*
X216398D02*X327398D01*
X216398Y568995D02*Y523495D01*
Y568995D02*X327398D01*
Y523495D01*
X216398Y468377D02*X327398D01*
X216398Y513877D02*Y468377D01*
Y513877D02*X327398D01*
Y468377D01*
X377816Y413259D02*X488816D01*
X377816Y458759D02*Y413259D01*
Y458759D02*X488816D01*
Y413259D01*
X54980Y303022D02*X165980D01*
X54980Y348522D02*Y303022D01*
Y348522D02*X165980D01*
Y303022D01*
X54980Y247904D02*X165980D01*
X54980Y293404D02*Y247904D01*
Y293404D02*X165980D01*
Y247904D01*
X193925Y205736D02*G75*G03X184026Y205735I-4949J-4949D01*G01*
X184026Y195837D02*G75*G03X193925Y195836I4949J4949D01*G01*
X192511Y204322D02*G75*G03X185440Y204321I-3535J-3535D01*G01*
X185440Y197251D02*G75*G03X192511Y197250I3535J3535D01*G01*
X54980Y192786D02*X165980D01*
X54980Y238286D02*Y192786D01*
Y238286D02*X165980D01*
Y192786D01*
X192862Y260854D02*G75*G03X182963Y260853I-4949J-4949D01*G01*
X182963Y250955D02*G75*G03X192862Y250954I4949J4949D01*G01*
X191448Y259440D02*G75*G03X184377Y259439I-3535J-3535D01*G01*
X184377Y252369D02*G75*G03X191448Y252368I3535J3535D01*G01*
X181976Y180327D02*X195976D01*
X188975Y163227D02*G75*G03X196046Y180299I0J10001D01*G01*
X181904Y180299D02*G75*G03X188976Y163227I7071J-7071D01*G01*
X181976Y235445D02*X195976D01*
X188975Y218345D02*G75*G03X196046Y235417I0J10001D01*G01*
X181904Y235417D02*G75*G03X188976Y218345I7071J-7071D01*G01*
X181976Y345681D02*X195976D01*
X188975Y328581D02*G75*G03X196046Y345653I0J10001D01*G01*
X181904Y345653D02*G75*G03X188976Y328581I7071J-7071D01*G01*
X181976Y290563D02*X195976D01*
X188975Y273463D02*G75*G03X196046Y290535I0J10001D01*G01*
X181904Y290535D02*G75*G03X188976Y273463I7071J-7071D01*G01*
X500874Y290563D02*X514874D01*
X507873Y273463D02*G75*G03X514944Y290535I0J10001D01*G01*
X500802Y290535D02*G75*G03X507874Y273463I7071J-7071D01*G01*
X500874Y235445D02*X514874D01*
X507873Y218345D02*G75*G03X514944Y235417I0J10001D01*G01*
X500802Y235417D02*G75*G03X507874Y218345I7071J-7071D01*G01*
X688976Y467381D02*G75*G03X688976Y467381I0J-15000D01*G01*
X500874Y455918D02*X514874D01*
X507873Y438818D02*G75*G03X514944Y455890I0J10001D01*G01*
X500802Y455890D02*G75*G03X507874Y438818I7071J-7071D01*G01*
X343394Y455918D02*X357394D01*
X350393Y438818D02*G75*G03X357464Y455890I0J10001D01*G01*
X343322Y455890D02*G75*G03X350394Y438818I7071J-7071D01*G01*
X585551Y533818D02*Y543818D01*
X595551Y533818D02*X585551D01*
X595551Y543818D02*Y533818D01*
X585551Y543818D02*X595551D01*
X655551D02*Y343818D01*
X585551Y543818D02*X655551D01*
X585551Y343818D02*Y543818D01*
X655551Y343818D02*X585551D01*
X709724Y543857D02*Y553857D01*
X699724Y543857D02*X709724D01*
Y553857D02*X699724D01*
X709724Y493857D02*Y553857D01*
X699724Y493857D02*X709724D01*
X699724Y553857D02*Y493857D01*
X377816Y358141D02*X488816D01*
X377816Y403641D02*Y358141D01*
Y403641D02*X488816D01*
Y358141D01*
X354280Y536445D02*G75*G03X344381Y536444I-4949J-4949D01*G01*
X344381Y526546D02*G75*G03X354280Y526545I4949J4949D01*G01*
X352866Y535031D02*G75*G03X345795Y535030I-3535J-3535D01*G01*
X345795Y527960D02*G75*G03X352866Y527959I3535J3535D01*G01*
X500874Y566154D02*X514874D01*
X507873Y549054D02*G75*G03X514944Y566126I0J10001D01*G01*
X500802Y566126D02*G75*G03X507874Y549054I7071J-7071D01*G01*
X512823Y536445D02*G75*G03X502924Y536444I-4949J-4949D01*G01*
X502924Y526546D02*G75*G03X512823Y526545I4949J4949D01*G01*
X511409Y535031D02*G75*G03X504338Y535030I-3535J-3535D01*G01*
X504338Y527960D02*G75*G03X511409Y527959I3535J3535D01*G01*
X343394Y566154D02*X357394D01*
X350393Y549054D02*G75*G03X357464Y566126I0J10001D01*G01*
X343322Y566126D02*G75*G03X350394Y549054I7071J-7071D01*G01*
X355343Y481327D02*G75*G03X345444Y481326I-4949J-4949D01*G01*
X345444Y471428D02*G75*G03X355343Y471427I4949J4949D01*G01*
X353929Y479913D02*G75*G03X346858Y479912I-3535J-3535D01*G01*
X346858Y472842D02*G75*G03X353929Y472841I3535J3535D01*G01*
X500874Y511036D02*X514874D01*
X507873Y493936D02*G75*G03X514944Y511008I0J10001D01*G01*
X500802Y511008D02*G75*G03X507874Y493936I7071J-7071D01*G01*
X512823Y481327D02*G75*G03X502924Y481326I-4949J-4949D01*G01*
X502924Y471428D02*G75*G03X512823Y471427I4949J4949D01*G01*
X511409Y479913D02*G75*G03X504338Y479912I-3535J-3535D01*G01*
X504338Y472842D02*G75*G03X511409Y472841I3535J3535D01*G01*
X377816Y468377D02*X488816D01*
X377816Y513877D02*Y468377D01*
Y513877D02*X488816D01*
Y468377D01*
X500874Y345681D02*X514874D01*
X507873Y328581D02*G75*G03X514944Y345653I0J10001D01*G01*
X500802Y345653D02*G75*G03X507874Y328581I7071J-7071D01*G01*
X512823Y426209D02*G75*G03X502924Y426208I-4949J-4949D01*G01*
X502924Y416310D02*G75*G03X512823Y416309I4949J4949D01*G01*
X511409Y424795D02*G75*G03X504338Y424794I-3535J-3535D01*G01*
X504338Y417724D02*G75*G03X511409Y417723I3535J3535D01*G01*
X512823Y371091D02*G75*G03X502924Y371090I-4949J-4949D01*G01*
X502924Y361192D02*G75*G03X512823Y361191I4949J4949D01*G01*
X511409Y369677D02*G75*G03X504338Y369676I-3535J-3535D01*G01*
X504338Y362606D02*G75*G03X511409Y362605I3535J3535D01*G01*
X500874Y400800D02*X514874D01*
X507873Y383700D02*G75*G03X514944Y400772I0J10001D01*G01*
X500802Y400772D02*G75*G03X507874Y383700I7071J-7071D01*G01*
X500874Y180327D02*X514874D01*
X507873Y163227D02*G75*G03X514944Y180299I0J10001D01*G01*
X500802Y180299D02*G75*G03X507874Y163227I7071J-7071D01*G01*
X512823Y205736D02*G75*G03X502924Y205735I-4949J-4949D01*G01*
X502924Y195837D02*G75*G03X512823Y195836I4949J4949D01*G01*
X511409Y204322D02*G75*G03X504338Y204321I-3535J-3535D01*G01*
X504338Y197251D02*G75*G03X511409Y197250I3535J3535D01*G01*
X512823Y260854D02*G75*G03X502924Y260853I-4949J-4949D01*G01*
X502924Y250955D02*G75*G03X512823Y250954I4949J4949D01*G01*
X511409Y259440D02*G75*G03X504338Y259439I-3535J-3535D01*G01*
X504338Y252369D02*G75*G03X511409Y252368I3535J3535D01*G01*
X512823Y315972D02*G75*G03X502924Y315971I-4949J-4949D01*G01*
X502924Y306073D02*G75*G03X512823Y306072I4949J4949D01*G01*
X511409Y314558D02*G75*G03X504338Y314557I-3535J-3535D01*G01*
X504338Y307487D02*G75*G03X511409Y307486I3535J3535D01*G01*
X343394Y70091D02*X357394D01*
X350393Y52991D02*G75*G03X357464Y70063I0J10001D01*G01*
X343322Y70063D02*G75*G03X350394Y52991I7071J-7071D01*G01*
X355343Y95500D02*G75*G03X345444Y95499I-4949J-4949D01*G01*
X345444Y85601D02*G75*G03X355343Y85600I4949J4949D01*G01*
X353929Y94086D02*G75*G03X346858Y94085I-3535J-3535D01*G01*
X346858Y87015D02*G75*G03X353929Y87014I3535J3535D01*G01*
X355343Y40382D02*G75*G03X345444Y40381I-4949J-4949D01*G01*
X345444Y30483D02*G75*G03X355343Y30482I4949J4949D01*G01*
X353929Y38968D02*G75*G03X346858Y38967I-3535J-3535D01*G01*
X346858Y31897D02*G75*G03X353929Y31896I3535J3535D01*G01*
X343394Y125209D02*X357394D01*
X350393Y108109D02*G75*G03X357464Y125181I0J10001D01*G01*
X343322Y125181D02*G75*G03X350394Y108109I7071J-7071D01*G01*
X377816Y27432D02*X488816D01*
X377816Y72932D02*Y27432D01*
Y72932D02*X488816D01*
Y27432D01*
X377816Y82550D02*X488816D01*
X377816Y128050D02*Y82550D01*
Y128050D02*X488816D01*
Y82550D01*
X343394Y235445D02*X357394D01*
X350393Y218345D02*G75*G03X357464Y235417I0J10001D01*G01*
X343322Y235417D02*G75*G03X350394Y218345I7071J-7071D01*G01*
X355343Y205736D02*G75*G03X345444Y205735I-4949J-4949D01*G01*
X345444Y195837D02*G75*G03X355343Y195836I4949J4949D01*G01*
X353929Y204322D02*G75*G03X346858Y204321I-3535J-3535D01*G01*
X346858Y197251D02*G75*G03X353929Y197250I3535J3535D01*G01*
X355343Y150618D02*G75*G03X345444Y150617I-4949J-4949D01*G01*
X345444Y140719D02*G75*G03X355343Y140718I4949J4949D01*G01*
X353929Y149204D02*G75*G03X346858Y149203I-3535J-3535D01*G01*
X346858Y142133D02*G75*G03X353929Y142132I3535J3535D01*G01*
X343394Y180327D02*X357394D01*
X350393Y163227D02*G75*G03X357464Y180299I0J10001D01*G01*
X343322Y180299D02*G75*G03X350394Y163227I7071J-7071D01*G01*
X377816Y137668D02*X488816D01*
X377816Y183168D02*Y137668D01*
Y183168D02*X488816D01*
Y137668D01*
X377816Y192786D02*X488816D01*
X377816Y238286D02*Y192786D01*
Y238286D02*X488816D01*
Y192786D01*
X377816Y247904D02*X488816D01*
X377816Y293404D02*Y247904D01*
Y293404D02*X488816D01*
Y247904D01*
X512823Y40382D02*G75*G03X502924Y40381I-4949J-4949D01*G01*
X502924Y30483D02*G75*G03X512823Y30482I4949J4949D01*G01*
X511409Y38968D02*G75*G03X504338Y38967I-3535J-3535D01*G01*
X504338Y31897D02*G75*G03X511409Y31896I3535J3535D01*G01*
X500874Y70091D02*X514874D01*
X507873Y52991D02*G75*G03X514944Y70063I0J10001D01*G01*
X500802Y70063D02*G75*G03X507874Y52991I7071J-7071D01*G01*
X512823Y150618D02*G75*G03X502924Y150617I-4949J-4949D01*G01*
X502924Y140719D02*G75*G03X512823Y140718I4949J4949D01*G01*
X511409Y149204D02*G75*G03X504338Y149203I-3535J-3535D01*G01*
X504338Y142133D02*G75*G03X511409Y142132I3535J3535D01*G01*
X500874Y125209D02*X514874D01*
X507873Y108109D02*G75*G03X514944Y125181I0J10001D01*G01*
X500802Y125181D02*G75*G03X507874Y108109I7071J-7071D01*G01*
X512823Y95500D02*G75*G03X502924Y95499I-4949J-4949D01*G01*
X502924Y85601D02*G75*G03X512823Y85600I4949J4949D01*G01*
X511409Y94086D02*G75*G03X504338Y94085I-3535J-3535D01*G01*
X504338Y87015D02*G75*G03X511409Y87014I3535J3535D01*G01*
G54D52*X517874Y27432D02*Y23432D01*
X519874D01*
X521075Y25432D02*X522575D01*
X521075Y23432D02*X523075D01*
X521075Y27432D02*Y23432D01*
Y27432D02*X523075D01*
X524776D02*Y23432D01*
X526276Y27432D02*X526776Y26932D01*
Y23932D01*
X526276Y23432D02*X526776Y23932D01*
X524276Y23432D02*X526276D01*
X524276Y27432D02*X526276D01*
X527977Y26932D02*X528477Y27432D01*
X529477D01*
X529977Y26932D01*
Y23932D01*
X529477Y23432D02*X529977Y23932D01*
X528477Y23432D02*X529477D01*
X527977Y23932D02*X528477Y23432D01*
Y25432D02*X529977D01*
X531178Y23932D02*X531678Y23432D01*
X531178Y26932D02*Y23932D01*
Y26932D02*X531678Y27432D01*
X532678D01*
X533178Y26932D01*
Y23932D01*
X532678Y23432D02*X533178Y23932D01*
X531678Y23432D02*X532678D01*
X531178Y24432D02*X533178Y26432D01*
X618610Y38307D02*X620110D01*
X618110Y38807D02*X618610Y38307D01*
X618110Y41807D02*Y38807D01*
Y41807D02*X618610Y42307D01*
X620110D01*
X621311Y41807D02*Y38807D01*
Y41807D02*X621811Y42307D01*
X622811D01*
X623311Y41807D01*
Y38807D01*
X622811Y38307D02*X623311Y38807D01*
X621811Y38307D02*X622811D01*
X621311Y38807D02*X621811Y38307D01*
X624512Y42307D02*Y38307D01*
Y42307D02*Y41807D01*
X627012Y39307D01*
Y42307D02*Y38307D01*
X628213Y42307D02*Y38307D01*
Y42307D02*Y41807D01*
X630713Y39307D01*
Y42307D02*Y38307D01*
X631914D02*X633914D01*
X634414Y38807D01*
Y39807D02*Y38807D01*
X633914Y40307D02*X634414Y39807D01*
X632414Y40307D02*X633914D01*
X632414Y42307D02*Y38307D01*
X631914Y42307D02*X633914D01*
X634414Y41807D01*
Y40807D01*
X633914Y40307D02*X634414Y40807D01*
X635615Y42307D02*X637615D01*
X636615D02*Y38307D01*
X638816Y42307D02*Y38307D01*
Y42307D02*Y41807D01*
X641316Y39307D01*
Y42307D02*Y38307D01*
X643017D02*X644017D01*
X643517Y42307D02*Y38307D01*
X642517Y41307D02*X643517Y42307D01*
X517874Y61491D02*Y58491D01*
Y61491D02*X518374Y61991D01*
X519374D01*
X519874Y61491D01*
Y58491D01*
X519374Y57991D02*X519874Y58491D01*
X518374Y57991D02*X519374D01*
X517874Y58491D02*X518374Y57991D01*
X518874Y58991D02*X519874Y57991D01*
X521075Y61491D02*X521575Y61991D01*
X523075D01*
X523575Y61491D01*
Y60491D01*
X521075Y57991D02*X523575Y60491D01*
X521075Y57991D02*X523575D01*
X524776Y58491D02*X525276Y57991D01*
X524776Y61491D02*Y58491D01*
Y61491D02*X525276Y61991D01*
X526276D01*
X526776Y61491D01*
Y58491D01*
X526276Y57991D02*X526776Y58491D01*
X525276Y57991D02*X526276D01*
X524776Y58991D02*X526776Y60991D01*
X527977Y58491D02*X528477Y57991D01*
X527977Y59491D02*Y58491D01*
Y59491D02*X528477Y59991D01*
X529477D01*
X529977Y59491D01*
Y58491D01*
X529477Y57991D02*X529977Y58491D01*
X528477Y57991D02*X529477D01*
X527977Y60491D02*X528477Y59991D01*
X527977Y61491D02*Y60491D01*
Y61491D02*X528477Y61991D01*
X529477D01*
X529977Y61491D01*
Y60491D01*
X529477Y59991D02*X529977Y60491D01*
X517874Y137668D02*Y133668D01*
X519874D01*
X521075Y135668D02*X522575D01*
X521075Y133668D02*X523075D01*
X521075Y137668D02*Y133668D01*
Y137668D02*X523075D01*
X524776D02*Y133668D01*
X526276Y137668D02*X526776Y137168D01*
Y134168D01*
X526276Y133668D02*X526776Y134168D01*
X524276Y133668D02*X526276D01*
X524276Y137668D02*X526276D01*
X527977Y137168D02*X528477Y137668D01*
X529977D01*
X530477Y137168D01*
Y136168D01*
X527977Y133668D02*X530477Y136168D01*
X527977Y133668D02*X530477D01*
X531678Y134168D02*X532178Y133668D01*
X531678Y135168D02*Y134168D01*
Y135168D02*X532178Y135668D01*
X533178D01*
X533678Y135168D01*
Y134168D01*
X533178Y133668D02*X533678Y134168D01*
X532178Y133668D02*X533178D01*
X531678Y136168D02*X532178Y135668D01*
X531678Y137168D02*Y136168D01*
Y137168D02*X532178Y137668D01*
X533178D01*
X533678Y137168D01*
Y136168D01*
X533178Y135668D02*X533678Y136168D01*
X517874Y82550D02*Y78550D01*
X519874D01*
X521075Y80550D02*X522575D01*
X521075Y78550D02*X523075D01*
X521075Y82550D02*Y78550D01*
Y82550D02*X523075D01*
X524776D02*Y78550D01*
X526276Y82550D02*X526776Y82050D01*
Y79050D01*
X526276Y78550D02*X526776Y79050D01*
X524276Y78550D02*X526276D01*
X524276Y82550D02*X526276D01*
X527977Y82050D02*X528477Y82550D01*
X529977D01*
X530477Y82050D01*
Y81050D01*
X527977Y78550D02*X530477Y81050D01*
X527977Y78550D02*X530477D01*
X531678D02*X533678Y80550D01*
Y82050D02*Y80550D01*
X533178Y82550D02*X533678Y82050D01*
X532178Y82550D02*X533178D01*
X531678Y82050D02*X532178Y82550D01*
X531678Y82050D02*Y81050D01*
X532178Y80550D01*
X533678D01*
X517874Y192786D02*Y188786D01*
X519874D01*
X521075Y190786D02*X522575D01*
X521075Y188786D02*X523075D01*
X521075Y192786D02*Y188786D01*
Y192786D02*X523075D01*
X524776D02*Y188786D01*
X526276Y192786D02*X526776Y192286D01*
Y189286D01*
X526276Y188786D02*X526776Y189286D01*
X524276Y188786D02*X526276D01*
X524276Y192786D02*X526276D01*
X527977Y192286D02*X528477Y192786D01*
X529977D01*
X530477Y192286D01*
Y191286D01*
X527977Y188786D02*X530477Y191286D01*
X527977Y188786D02*X530477D01*
X531678D02*X534178Y191286D01*
Y192786D02*Y191286D01*
X531678Y192786D02*X534178D01*
X1047744Y38306D02*X1049244D01*
X1047244Y38806D02*X1047744Y38306D01*
X1047244Y41806D02*Y38806D01*
Y41806D02*X1047744Y42306D01*
X1049244D01*
X1050445Y41806D02*Y38806D01*
Y41806D02*X1050945Y42306D01*
X1051945D01*
X1052445Y41806D01*
Y38806D01*
X1051945Y38306D02*X1052445Y38806D01*
X1050945Y38306D02*X1051945D01*
X1050445Y38806D02*X1050945Y38306D01*
X1053646Y42306D02*Y38306D01*
Y42306D02*Y41806D01*
X1056146Y39306D01*
Y42306D02*Y38306D01*
X1057347Y42306D02*Y38306D01*
Y42306D02*Y41806D01*
X1059847Y39306D01*
Y42306D02*Y38306D01*
X1061048D02*X1063048D01*
X1063548Y38806D01*
Y39806D02*Y38806D01*
X1063048Y40306D02*X1063548Y39806D01*
X1061548Y40306D02*X1063048D01*
X1061548Y42306D02*Y38306D01*
X1061048Y42306D02*X1063048D01*
X1063548Y41806D01*
Y40806D01*
X1063048Y40306D02*X1063548Y40806D01*
X1064749Y42306D02*X1066749D01*
X1065749D02*Y38306D01*
X1067950Y42306D02*Y38306D01*
Y42306D02*Y41806D01*
X1070450Y39306D01*
Y42306D02*Y38306D01*
X1071651Y42306D02*X1073651D01*
X1071651D02*Y40306D01*
X1072151Y40806D01*
X1073151D01*
X1073651Y40306D01*
Y38806D01*
X1073151Y38306D02*X1073651Y38806D01*
X1072151Y38306D02*X1073151D01*
X1071651Y38806D02*X1072151Y38306D01*
X1205787Y265778D02*Y264278D01*
X1205287Y263778D02*X1205787Y264278D01*
X1202287Y263778D02*X1205287D01*
X1202287D02*X1201787Y264278D01*
Y265778D02*Y264278D01*
X1202287Y266979D02*X1205287D01*
X1202287D02*X1201787Y267479D01*
Y268479D02*Y267479D01*
Y268479D02*X1202287Y268979D01*
X1205287D01*
X1205787Y268479D02*X1205287Y268979D01*
X1205787Y268479D02*Y267479D01*
X1205287Y266979D02*X1205787Y267479D01*
X1201787Y270180D02*X1205787D01*
X1201787D02*X1202287D01*
X1204787Y272680D01*
X1201787D02*X1205787D01*
X1201787Y273881D02*X1205787D01*
X1201787D02*X1202287D01*
X1204787Y276381D01*
X1201787D02*X1205787D01*
X1201787Y277582D02*X1205287D01*
X1205787Y278082D01*
Y279082D02*Y278082D01*
Y279082D02*X1205287Y279582D01*
X1201787D02*X1205287D01*
X1201787Y280783D02*X1205787D01*
Y282783D02*Y280783D01*
X1202287Y283984D02*X1205787D01*
X1202287D02*X1201787Y284484D01*
Y285984D02*Y284484D01*
Y285984D02*X1202287Y286484D01*
X1205787D01*
X1203787D02*Y283984D01*
X1201787Y287685D02*X1205787D01*
X1201787D02*X1202287D01*
X1204787Y290185D01*
X1201787D02*X1205787D01*
X1202287Y291386D02*X1201787Y291886D01*
Y293386D02*Y291886D01*
Y293386D02*X1202287Y293886D01*
X1203287D01*
X1205787Y291386D02*X1203287Y293886D01*
X1205787D02*Y291386D01*
Y92550D02*Y91050D01*
X1205287Y90550D02*X1205787Y91050D01*
X1202287Y90550D02*X1205287D01*
X1202287D02*X1201787Y91050D01*
Y92550D02*Y91050D01*
X1202287Y93751D02*X1205287D01*
X1202287D02*X1201787Y94251D01*
Y95251D02*Y94251D01*
Y95251D02*X1202287Y95751D01*
X1205287D01*
X1205787Y95251D02*X1205287Y95751D01*
X1205787Y95251D02*Y94251D01*
X1205287Y93751D02*X1205787Y94251D01*
X1201787Y96952D02*X1205787D01*
X1201787D02*X1202287D01*
X1204787Y99452D01*
X1201787D02*X1205787D01*
X1201787Y100653D02*X1205787D01*
X1201787D02*X1202287D01*
X1204787Y103153D01*
X1201787D02*X1205787D01*
Y106354D02*Y104354D01*
Y106354D02*X1205287Y106854D01*
X1204287D02*X1205287D01*
X1203787Y106354D02*X1204287Y106854D01*
X1203787Y106354D02*Y104854D01*
X1201787D02*X1205787D01*
X1201787Y106354D02*Y104354D01*
Y106354D02*X1202287Y106854D01*
X1203287D01*
X1203787Y106354D02*X1203287Y106854D01*
X1201787Y110055D02*Y108055D01*
Y109055D02*X1205787D01*
X1201787Y111256D02*X1205787D01*
X1201787D02*X1202287D01*
X1204787Y113756D01*
X1201787D02*X1205787D01*
X1203787Y114957D02*X1201787Y116957D01*
X1203787Y117457D02*Y114957D01*
X1201787Y116957D02*X1205787D01*
Y198849D02*Y197349D01*
X1205287Y196849D02*X1205787Y197349D01*
X1202287Y196849D02*X1205287D01*
X1202287D02*X1201787Y197349D01*
Y198849D02*Y197349D01*
X1202287Y200050D02*X1205287D01*
X1202287D02*X1201787Y200550D01*
Y201550D02*Y200550D01*
Y201550D02*X1202287Y202050D01*
X1205287D01*
X1205787Y201550D02*X1205287Y202050D01*
X1205787Y201550D02*Y200550D01*
X1205287Y200050D02*X1205787Y200550D01*
X1201787Y203251D02*X1205787D01*
X1201787D02*X1202287D01*
X1204787Y205751D01*
X1201787D02*X1205787D01*
X1201787Y206952D02*X1205787D01*
X1201787D02*X1202287D01*
X1204787Y209452D01*
X1201787D02*X1205787D01*
X1201787Y210653D02*X1205287D01*
X1205787Y211153D01*
Y212153D02*Y211153D01*
Y212153D02*X1205287Y212653D01*
X1201787D02*X1205287D01*
X1201787Y213854D02*X1205787D01*
Y215854D02*Y213854D01*
X1202287Y217055D02*X1205787D01*
X1202287D02*X1201787Y217555D01*
Y219055D02*Y217555D01*
Y219055D02*X1202287Y219555D01*
X1205787D01*
X1203787D02*Y217055D01*
X1201787Y220756D02*X1205787D01*
X1201787D02*X1202287D01*
X1204787Y223256D01*
X1201787D02*X1205787D01*
X1202287Y224457D02*X1201787Y224957D01*
Y225957D02*Y224957D01*
Y225957D02*X1202287Y226457D01*
X1205287D01*
X1205787Y225957D02*X1205287Y226457D01*
X1205787Y225957D02*Y224957D01*
X1205287Y224457D02*X1205787Y224957D01*
X1203787Y226457D02*Y224957D01*
X1205787Y379952D02*Y378452D01*
X1205287Y377952D02*X1205787Y378452D01*
X1202287Y377952D02*X1205287D01*
X1202287D02*X1201787Y378452D01*
Y379952D02*Y378452D01*
X1202287Y381153D02*X1205287D01*
X1202287D02*X1201787Y381653D01*
Y382653D02*Y381653D01*
Y382653D02*X1202287Y383153D01*
X1205287D01*
X1205787Y382653D02*X1205287Y383153D01*
X1205787Y382653D02*Y381653D01*
X1205287Y381153D02*X1205787Y381653D01*
X1201787Y384354D02*X1205787D01*
X1201787D02*X1202287D01*
X1204787Y386854D01*
X1201787D02*X1205787D01*
X1201787Y388055D02*X1205787D01*
X1201787D02*X1202287D01*
X1204787Y390555D01*
X1201787D02*X1205787D01*
X1201787Y391756D02*X1205287D01*
X1205787Y392256D01*
Y393256D02*Y392256D01*
Y393256D02*X1205287Y393756D01*
X1201787D02*X1205287D01*
X1201787Y394957D02*X1205787D01*
Y396957D02*Y394957D01*
X1202287Y398158D02*X1205787D01*
X1202287D02*X1201787Y398658D01*
Y400158D02*Y398658D01*
Y400158D02*X1202287Y400658D01*
X1205787D01*
X1203787D02*Y398158D01*
X1201787Y401859D02*X1205787D01*
X1201787D02*X1202287D01*
X1204787Y404359D01*
X1201787D02*X1205787D01*
Y407060D02*Y406060D01*
X1201787Y406560D02*X1205787D01*
X1202787Y405560D02*X1201787Y406560D01*
X1205788Y494125D02*Y492625D01*
X1205288Y492125D02*X1205788Y492625D01*
X1202288Y492125D02*X1205288D01*
X1202288D02*X1201788Y492625D01*
Y494125D02*Y492625D01*
X1202288Y495326D02*X1205288D01*
X1202288D02*X1201788Y495826D01*
Y496826D02*Y495826D01*
Y496826D02*X1202288Y497326D01*
X1205288D01*
X1205788Y496826D02*X1205288Y497326D01*
X1205788Y496826D02*Y495826D01*
X1205288Y495326D02*X1205788Y495826D01*
X1201788Y498527D02*X1205788D01*
X1201788D02*X1202288D01*
X1204788Y501027D01*
X1201788D02*X1205788D01*
X1201788Y502228D02*X1205788D01*
X1201788D02*X1202288D01*
X1204788Y504728D01*
X1201788D02*X1205788D01*
X1201788Y506429D02*X1205788D01*
X1201788Y507929D02*Y505929D01*
Y507929D02*X1202288Y508429D01*
X1203288D01*
X1203788Y507929D02*X1203288Y508429D01*
X1203788Y507929D02*Y506429D01*
X1201788Y509630D02*X1205788D01*
X1204288Y511130D01*
X1205788Y512630D01*
X1201788D02*X1205788D01*
X1201788Y515831D02*Y513831D01*
Y515831D02*X1202288Y516331D01*
X1203288D01*
X1203788Y515831D02*X1203288Y516331D01*
X1203788Y515831D02*Y514331D01*
X1201788D02*X1205788D01*
X1203788D02*X1205788Y516331D01*
Y519032D02*Y518032D01*
X1201788Y518532D02*X1205788D01*
X1202788Y517532D02*X1201788Y518532D01*
X1205787Y446881D02*Y445381D01*
X1205287Y444881D02*X1205787Y445381D01*
X1202287Y444881D02*X1205287D01*
X1202287D02*X1201787Y445381D01*
Y446881D02*Y445381D01*
X1202287Y448082D02*X1205287D01*
X1202287D02*X1201787Y448582D01*
Y449582D02*Y448582D01*
Y449582D02*X1202287Y450082D01*
X1205287D01*
X1205787Y449582D02*X1205287Y450082D01*
X1205787Y449582D02*Y448582D01*
X1205287Y448082D02*X1205787Y448582D01*
X1201787Y451283D02*X1205787D01*
X1201787D02*X1202287D01*
X1204787Y453783D01*
X1201787D02*X1205787D01*
X1201787Y454984D02*X1205787D01*
X1201787D02*X1202287D01*
X1204787Y457484D01*
X1201787D02*X1205787D01*
X1201787Y459185D02*X1205787D01*
X1201787Y460685D02*Y458685D01*
Y460685D02*X1202287Y461185D01*
X1203287D01*
X1203787Y460685D02*X1203287Y461185D01*
X1203787Y460685D02*Y459185D01*
X1201787Y462386D02*X1205787D01*
X1204287Y463886D01*
X1205787Y465386D01*
X1201787D02*X1205787D01*
X1201787Y468587D02*Y466587D01*
Y468587D02*X1202287Y469087D01*
X1203287D01*
X1203787Y468587D02*X1203287Y469087D01*
X1203787Y468587D02*Y467087D01*
X1201787D02*X1205787D01*
X1203787D02*X1205787Y469087D01*
X1202287Y470288D02*X1201787Y470788D01*
Y472288D02*Y470788D01*
Y472288D02*X1202287Y472788D01*
X1203287D01*
X1205787Y470288D02*X1203287Y472788D01*
X1205787D02*Y470288D01*
X898138Y38306D02*X899638D01*
X897638Y38806D02*X898138Y38306D01*
X897638Y41806D02*Y38806D01*
Y41806D02*X898138Y42306D01*
X899638D01*
X900839Y41806D02*Y38806D01*
Y41806D02*X901339Y42306D01*
X902339D01*
X902839Y41806D01*
Y38806D01*
X902339Y38306D02*X902839Y38806D01*
X901339Y38306D02*X902339D01*
X900839Y38806D02*X901339Y38306D01*
X904040Y42306D02*Y38306D01*
Y42306D02*Y41806D01*
X906540Y39306D01*
Y42306D02*Y38306D01*
X907741Y42306D02*Y38306D01*
Y42306D02*Y41806D01*
X910241Y39306D01*
Y42306D02*Y38306D01*
X911442D02*X913442D01*
X913942Y38806D01*
Y39806D02*Y38806D01*
X913442Y40306D02*X913942Y39806D01*
X911942Y40306D02*X913442D01*
X911942Y42306D02*Y38306D01*
X911442Y42306D02*X913442D01*
X913942Y41806D01*
Y40806D01*
X913442Y40306D02*X913942Y40806D01*
X915143Y42306D02*X917143D01*
X916143D02*Y38306D01*
X918344Y42306D02*Y38306D01*
Y42306D02*Y41806D01*
X920844Y39306D01*
Y42306D02*Y38306D01*
X922045Y41806D02*X922545Y42306D01*
X923545D01*
X924045Y41806D01*
Y38806D01*
X923545Y38306D02*X924045Y38806D01*
X922545Y38306D02*X923545D01*
X922045Y38806D02*X922545Y38306D01*
Y40306D02*X924045D01*
X948197Y214723D02*X949697D01*
X947697Y215223D02*X948197Y214723D01*
X947697Y218223D02*Y215223D01*
Y218223D02*X948197Y218723D01*
X949697D01*
X951398Y214723D02*X952398D01*
X951898Y218723D02*Y214723D01*
X950898Y217723D02*X951898Y218723D01*
X953599Y215223D02*X954099Y214723D01*
X953599Y218223D02*Y215223D01*
Y218223D02*X954099Y218723D01*
X955099D01*
X955599Y218223D01*
Y215223D01*
X955099Y214723D02*X955599Y215223D01*
X954099Y214723D02*X955099D01*
X953599Y215723D02*X955599Y217723D01*
X957300Y214723D02*X958300D01*
X957800Y218723D02*Y214723D01*
X956800Y217723D02*X957800Y218723D01*
X841181Y118377D02*Y116877D01*
X840681Y116377D02*X841181Y116877D01*
X837681Y116377D02*X840681D01*
X837681D02*X837181Y116877D01*
Y118377D02*Y116877D01*
Y120078D02*X841181D01*
X837181Y121578D02*Y119578D01*
Y121578D02*X837681Y122078D01*
X838681D01*
X839181Y121578D02*X838681Y122078D01*
X839181Y121578D02*Y120078D01*
X837181Y123279D02*X840681D01*
X841181Y123779D01*
Y124779D02*Y123779D01*
Y124779D02*X840681Y125279D01*
X837181D02*X840681D01*
X837181Y126480D02*X841181D01*
X837181D02*X838681Y127980D01*
X837181Y129480D01*
X841181D01*
X837681Y130681D02*X841181D01*
X837681D02*X837181Y131181D01*
Y132681D02*Y131181D01*
Y132681D02*X837681Y133181D01*
X841181D01*
X839181D02*Y130681D01*
X837181Y135382D02*Y134382D01*
Y134882D02*X841181D01*
Y135382D02*Y134382D01*
X837181Y136583D02*X841181D01*
X837181D02*X837681D01*
X840181Y139083D01*
X837181D02*X841181D01*
X837681Y140284D02*X837181Y140784D01*
Y141784D02*Y140784D01*
Y141784D02*X837681Y142284D01*
X840681D01*
X841181Y141784D02*X840681Y142284D01*
X841181Y141784D02*Y140784D01*
X840681Y140284D02*X841181Y140784D01*
X839181Y142284D02*Y140784D01*
X840681Y143485D02*X841181Y143985D01*
X837681Y143485D02*X840681D01*
X837681D02*X837181Y143985D01*
Y144985D02*Y143985D01*
Y144985D02*X837681Y145485D01*
X840681D01*
X841181Y144985D02*X840681Y145485D01*
X841181Y144985D02*Y143985D01*
X840181Y143485D02*X838181Y145485D01*
X841181Y148186D02*Y147186D01*
X837181Y147686D02*X841181D01*
X838181Y146686D02*X837181Y147686D01*
X818993Y175916D02*X822993D01*
Y176416D02*Y174416D01*
X822493Y173916D01*
X821493D02*X822493D01*
X820993Y174416D02*X821493Y173916D01*
X820993Y175916D02*Y174416D01*
X822993Y172715D02*Y170715D01*
X822493Y170215D01*
X821493D02*X822493D01*
X820993Y170715D02*X821493Y170215D01*
X820993Y172215D02*Y170715D01*
X818993Y172215D02*X822993D01*
X820993D02*X818993Y170215D01*
X819493Y169014D02*X822493D01*
X822993Y168514D01*
Y167514D01*
X822493Y167014D01*
X819493D02*X822493D01*
X818993Y167514D02*X819493Y167014D01*
X818993Y168514D02*Y167514D01*
X819493Y169014D02*X818993Y168514D01*
X822993Y163813D02*X822493Y163313D01*
X822993Y165313D02*Y163813D01*
X822493Y165813D02*X822993Y165313D01*
X819493Y165813D02*X822493D01*
X819493D02*X818993Y165313D01*
Y163813D01*
X819493Y163313D01*
X820493D01*
X820993Y163813D02*X820493Y163313D01*
X820993Y164813D02*Y163813D01*
X818993Y162112D02*X822993D01*
X821493Y160612D01*
X822993Y159112D01*
X818993D02*X822993D01*
X818993Y157911D02*X822493D01*
X822993Y157411D01*
Y155911D01*
X822493Y155411D01*
X818993D02*X822493D01*
X820993Y157911D02*Y155411D01*
X822993Y154210D02*Y153210D01*
X818993Y153710D02*X822993D01*
X818993Y154210D02*Y153210D01*
Y152009D02*X822993D01*
X822493D02*X822993D01*
X822493D02*X819993Y149509D01*
X818993D02*X822993D01*
X822493Y148308D02*X822993Y147808D01*
Y146808D01*
X822493Y146308D01*
X819493D02*X822493D01*
X818993Y146808D02*X819493Y146308D01*
X818993Y147808D02*Y146808D01*
X819493Y148308D02*X818993Y147808D01*
X820993D02*Y146308D01*
X819493Y145107D02*X818993Y144607D01*
X819493Y145107D02*X822493D01*
X822993Y144607D01*
Y143607D01*
X822493Y143107D01*
X819493D02*X822493D01*
X818993Y143607D02*X819493Y143107D01*
X818993Y144607D02*Y143607D01*
X819993Y145107D02*X821993Y143107D01*
X818993Y141406D02*Y140406D01*
Y140906D02*X822993D01*
X821993Y141906D02*X822993Y140906D01*
X740409Y150956D02*Y149456D01*
X740909Y151456D02*X740409Y150956D01*
X740909Y151456D02*X743909D01*
X744409Y150956D01*
Y149456D01*
X740909Y148255D02*X743909D01*
X744409Y147755D01*
Y146755D01*
X743909Y146255D01*
X740909D02*X743909D01*
X740409Y146755D02*X740909Y146255D01*
X740409Y147755D02*Y146755D01*
X740909Y148255D02*X740409Y147755D01*
Y145054D02*X744409D01*
X743909D02*X744409D01*
X743909D02*X741409Y142554D01*
X740409D02*X744409D01*
X740409Y141353D02*X744409D01*
X743909D02*X744409D01*
X743909D02*X741409Y138853D01*
X740409D02*X744409D01*
X740409Y137152D02*Y136152D01*
Y136652D02*X744409D01*
X743409Y137652D02*X744409Y136652D01*
X517874Y247904D02*Y243904D01*
X519874D01*
X521075Y245904D02*X522575D01*
X521075Y243904D02*X523075D01*
X521075Y247904D02*Y243904D01*
Y247904D02*X523075D01*
X524776D02*Y243904D01*
X526276Y247904D02*X526776Y247404D01*
Y244404D01*
X526276Y243904D02*X526776Y244404D01*
X524276Y243904D02*X526276D01*
X524276Y247904D02*X526276D01*
X527977Y247404D02*X528477Y247904D01*
X529977D01*
X530477Y247404D01*
Y246404D01*
X527977Y243904D02*X530477Y246404D01*
X527977Y243904D02*X530477D01*
X533178Y247904D02*X533678Y247404D01*
X532178Y247904D02*X533178D01*
X531678Y247404D02*X532178Y247904D01*
X531678Y247404D02*Y244404D01*
X532178Y243904D01*
X533178Y245904D02*X533678Y245404D01*
X531678Y245904D02*X533178D01*
X532178Y243904D02*X533178D01*
X533678Y244404D01*
Y245404D02*Y244404D01*
X787902Y38306D02*X789402D01*
X787402Y38806D02*X787902Y38306D01*
X787402Y41806D02*Y38806D01*
Y41806D02*X787902Y42306D01*
X789402D01*
X790603Y41806D02*Y38806D01*
Y41806D02*X791103Y42306D01*
X792103D01*
X792603Y41806D01*
Y38806D01*
X792103Y38306D02*X792603Y38806D01*
X791103Y38306D02*X792103D01*
X790603Y38806D02*X791103Y38306D01*
X793804Y42306D02*Y38306D01*
Y42306D02*Y41806D01*
X796304Y39306D01*
Y42306D02*Y38306D01*
X797505Y42306D02*Y38306D01*
Y42306D02*Y41806D01*
X800005Y39306D01*
Y42306D02*Y38306D01*
X801206D02*X803206D01*
X803706Y38806D01*
Y39806D02*Y38806D01*
X803206Y40306D02*X803706Y39806D01*
X801706Y40306D02*X803206D01*
X801706Y42306D02*Y38306D01*
X801206Y42306D02*X803206D01*
X803706Y41806D01*
Y40806D01*
X803206Y40306D02*X803706Y40806D01*
X804907Y42306D02*X806907D01*
X805907D02*Y38306D01*
X808108Y42306D02*Y38306D01*
Y42306D02*Y41806D01*
X810608Y39306D01*
Y42306D02*Y38306D01*
X811809Y41806D02*X812309Y42306D01*
X813809D01*
X814309Y41806D01*
Y40806D01*
X811809Y38306D02*X814309Y40806D01*
X811809Y38306D02*X814309D01*
X627763Y254683D02*X631763D01*
X627763D02*Y252683D01*
X629763Y251482D02*Y249982D01*
X627763Y251482D02*Y249482D01*
Y251482D02*X631763D01*
Y249482D01*
X627763Y247781D02*X631763D01*
Y246281D02*X631263Y245781D01*
X628263D02*X631263D01*
X627763Y246281D02*X628263Y245781D01*
X627763Y248281D02*Y246281D01*
X631763Y248281D02*Y246281D01*
Y244580D02*Y242580D01*
X631263Y242080D01*
X630263D02*X631263D01*
X629763Y242580D02*X630263Y242080D01*
X629763Y244080D02*Y242580D01*
X627763Y244080D02*X631763D01*
X629763D02*X627763Y242080D01*
X629763Y240879D02*Y239379D01*
X627763Y240879D02*Y238879D01*
Y240879D02*X631763D01*
Y238879D01*
X627763Y237678D02*X631763D01*
X627763D02*Y235678D01*
Y234477D02*X631263D01*
X631763Y233977D01*
Y232477D01*
X631263Y231977D01*
X627763D02*X631263D01*
X629763Y234477D02*Y231977D01*
X631263Y230776D02*X631763D01*
X631263D02*X630263Y229776D01*
X631263Y228776D01*
X631763D01*
X627763Y229776D02*X630263D01*
X627763Y227075D02*Y226075D01*
Y226575D02*X631763D01*
X630763Y227575D02*X631763Y226575D01*
X628263Y224874D02*X627763Y224374D01*
X628263Y224874D02*X631263D01*
X631763Y224374D01*
Y223374D01*
X631263Y222874D01*
X628263D02*X631263D01*
X627763Y223374D02*X628263Y222874D01*
X627763Y224374D02*Y223374D01*
X628763Y224874D02*X630763Y222874D01*
X627763Y221173D02*Y220173D01*
Y220673D02*X631763D01*
X630763Y221673D02*X631763Y220673D01*
X646638Y264959D02*Y262959D01*
X646138Y262459D01*
X645138D02*X646138D01*
X644638Y262959D02*X645138Y262459D01*
X644638Y264459D02*Y262959D01*
X642638Y264459D02*X646638D01*
X644638D02*X642638Y262459D01*
Y260758D02*Y259758D01*
Y260258D02*X646638D01*
X645638Y261258D02*X646638Y260258D01*
X643138Y258557D02*X642638Y258057D01*
X643138Y258557D02*X646138D01*
X646638Y258057D01*
Y257057D01*
X646138Y256557D01*
X643138D02*X646138D01*
X642638Y257057D02*X643138Y256557D01*
X642638Y258057D02*Y257057D01*
X643638Y258557D02*X645638Y256557D01*
X642638Y254856D02*Y253856D01*
Y254356D02*X646638D01*
X645638Y255356D02*X646638Y254356D01*
X517874Y358141D02*Y354141D01*
X519874D01*
X521075Y356141D02*X522575D01*
X521075Y354141D02*X523075D01*
X521075Y358141D02*Y354141D01*
Y358141D02*X523075D01*
X524776D02*Y354141D01*
X526276Y358141D02*X526776Y357641D01*
Y354641D01*
X526276Y354141D02*X526776Y354641D01*
X524276Y354141D02*X526276D01*
X524276Y358141D02*X526276D01*
X527977Y357641D02*X528477Y358141D01*
X529977D01*
X530477Y357641D01*
Y356641D01*
X527977Y354141D02*X530477Y356641D01*
X527977Y354141D02*X530477D01*
X531678Y356141D02*X533678Y358141D01*
X531678Y356141D02*X534178D01*
X533678Y358141D02*Y354141D01*
X517874Y392200D02*Y389200D01*
Y392200D02*X518374Y392700D01*
X519374D01*
X519874Y392200D01*
Y389200D01*
X519374Y388700D02*X519874Y389200D01*
X518374Y388700D02*X519374D01*
X517874Y389200D02*X518374Y388700D01*
X518874Y389700D02*X519874Y388700D01*
X521075Y392200D02*X521575Y392700D01*
X523075D01*
X523575Y392200D01*
Y391200D01*
X521075Y388700D02*X523575Y391200D01*
X521075Y388700D02*X523575D01*
X524776Y392200D02*X525276Y392700D01*
X526776D01*
X527276Y392200D01*
Y391200D01*
X524776Y388700D02*X527276Y391200D01*
X524776Y388700D02*X527276D01*
X528477Y390700D02*X530477Y392700D01*
X528477Y390700D02*X530977D01*
X530477Y392700D02*Y388700D01*
X478316Y367141D02*X480316D01*
X478316D02*X477816Y367641D01*
Y368641D02*Y367641D01*
X478316Y369141D02*X477816Y368641D01*
X478316Y369141D02*X479816D01*
Y371141D02*Y367141D01*
Y369141D02*X477816Y371141D01*
X475115Y369141D02*X476615D01*
X474615Y371141D02*X476615D01*
Y367141D01*
X474615D02*X476615D01*
X473414Y371141D02*Y367141D01*
X471414Y371141D02*X473414D01*
X470213D02*Y367641D01*
X469713Y367141D01*
X468213D02*X469713D01*
X468213D02*X467713Y367641D01*
Y371141D02*Y367641D01*
Y369141D02*X470213D01*
X466512Y367641D02*Y367141D01*
Y367641D02*X465512Y368641D01*
X464512Y367641D01*
Y367141D01*
X465512Y371141D02*Y368641D01*
X463311Y367641D02*X462811Y367141D01*
X461311D02*X462811D01*
X461311D02*X460811Y367641D01*
Y368641D02*Y367641D01*
X463311Y371141D02*X460811Y368641D01*
Y371141D02*X463311D01*
X459610Y369141D02*X457610Y367141D01*
X457110Y369141D02*X459610D01*
X457610Y371141D02*Y367141D01*
X517874Y281963D02*Y278963D01*
Y281963D02*X518374Y282463D01*
X519374D01*
X519874Y281963D01*
Y278963D01*
X519374Y278463D02*X519874Y278963D01*
X518374Y278463D02*X519374D01*
X517874Y278963D02*X518374Y278463D01*
X518874Y279463D02*X519874Y278463D01*
X521075Y281963D02*X521575Y282463D01*
X523075D01*
X523575Y281963D01*
Y280963D01*
X521075Y278463D02*X523575Y280963D01*
X521075Y278463D02*X523575D01*
X524776Y281963D02*X525276Y282463D01*
X526776D01*
X527276Y281963D01*
Y280963D01*
X524776Y278463D02*X527276Y280963D01*
X524776Y278463D02*X527276D01*
X529977Y282463D02*X530477Y281963D01*
X528977Y282463D02*X529977D01*
X528477Y281963D02*X528977Y282463D01*
X528477Y281963D02*Y278963D01*
X528977Y278463D01*
X529977Y280463D02*X530477Y279963D01*
X528477Y280463D02*X529977D01*
X528977Y278463D02*X529977D01*
X530477Y278963D01*
Y279963D02*Y278963D01*
X517874Y337081D02*Y334081D01*
Y337081D02*X518374Y337581D01*
X519374D01*
X519874Y337081D01*
Y334081D01*
X519374Y333581D02*X519874Y334081D01*
X518374Y333581D02*X519374D01*
X517874Y334081D02*X518374Y333581D01*
X518874Y334581D02*X519874Y333581D01*
X521075Y337081D02*X521575Y337581D01*
X523075D01*
X523575Y337081D01*
Y336081D01*
X521075Y333581D02*X523575Y336081D01*
X521075Y333581D02*X523575D01*
X524776Y337081D02*X525276Y337581D01*
X526776D01*
X527276Y337081D01*
Y336081D01*
X524776Y333581D02*X527276Y336081D01*
X524776Y333581D02*X527276D01*
X528477Y337581D02*X530477D01*
X528477D02*Y335581D01*
X528977Y336081D01*
X529977D01*
X530477Y335581D01*
Y334081D01*
X529977Y333581D02*X530477Y334081D01*
X528977Y333581D02*X529977D01*
X528477Y334081D02*X528977Y333581D01*
X597428Y336456D02*X598928D01*
X596928Y336956D02*X597428Y336456D01*
X596928Y339956D02*Y336956D01*
Y339956D02*X597428Y340456D01*
X598928D01*
X600629D02*Y336456D01*
X600129Y340456D02*X602129D01*
X602629Y339956D01*
Y338956D01*
X602129Y338456D02*X602629Y338956D01*
X600629Y338456D02*X602129D01*
X603830Y340456D02*Y336956D01*
X604330Y336456D01*
X605330D01*
X605830Y336956D01*
Y340456D02*Y336956D01*
X607031Y340456D02*X609031D01*
X609531Y339956D01*
Y338956D01*
X609031Y338456D02*X609531Y338956D01*
X607531Y338456D02*X609031D01*
X607531Y340456D02*Y336456D01*
Y338456D02*X609531Y336456D01*
X610732Y338456D02*X612232D01*
X610732Y336456D02*X612732D01*
X610732Y340456D02*Y336456D01*
Y340456D02*X612732D01*
X613933D02*Y336456D01*
X615933D01*
X617134Y339956D02*Y336456D01*
Y339956D02*X617634Y340456D01*
X619134D01*
X619634Y339956D01*
Y336456D01*
X617134Y338456D02*X619634D01*
X620835Y340456D02*Y339956D01*
X621835Y338956D01*
X622835Y339956D01*
Y340456D02*Y339956D01*
X621835Y338956D02*Y336456D01*
X624536D02*X625536D01*
X625036Y340456D02*Y336456D01*
X624036Y339456D02*X625036Y340456D01*
X626737Y336956D02*X627237Y336456D01*
X626737Y339956D02*Y336956D01*
Y339956D02*X627237Y340456D01*
X628237D01*
X628737Y339956D01*
Y336956D01*
X628237Y336456D02*X628737Y336956D01*
X627237Y336456D02*X628237D01*
X626737Y337456D02*X628737Y339456D01*
X630438Y336456D02*X631438D01*
X630938Y340456D02*Y336456D01*
X629938Y339456D02*X630938Y340456D01*
X478316Y477377D02*X480316D01*
X478316D02*X477816Y477877D01*
Y478877D02*Y477877D01*
X478316Y479377D02*X477816Y478877D01*
X478316Y479377D02*X479816D01*
Y481377D02*Y477377D01*
Y479377D02*X477816Y481377D01*
X475115Y479377D02*X476615D01*
X474615Y481377D02*X476615D01*
Y477377D01*
X474615D02*X476615D01*
X473414Y481377D02*Y477377D01*
X471414Y481377D02*X473414D01*
X470213D02*Y477877D01*
X469713Y477377D01*
X468213D02*X469713D01*
X468213D02*X467713Y477877D01*
Y481377D02*Y477877D01*
Y479377D02*X470213D01*
X466512Y477877D02*Y477377D01*
Y477877D02*X465512Y478877D01*
X464512Y477877D01*
Y477377D01*
X465512Y481377D02*Y478877D01*
X463311Y477877D02*X462811Y477377D01*
X461311D02*X462811D01*
X461311D02*X460811Y477877D01*
Y478877D02*Y477877D01*
X463311Y481377D02*X460811Y478877D01*
Y481377D02*X463311D01*
X459610Y477877D02*X459110Y477377D01*
X457610D02*X459110D01*
X457610D02*X457110Y477877D01*
Y478877D02*Y477877D01*
X459610Y481377D02*X457110Y478877D01*
Y481377D02*X459610D01*
X478316Y532495D02*X480316D01*
X478316D02*X477816Y532995D01*
Y533995D02*Y532995D01*
X478316Y534495D02*X477816Y533995D01*
X478316Y534495D02*X479816D01*
Y536495D02*Y532495D01*
Y534495D02*X477816Y536495D01*
X475115Y534495D02*X476615D01*
X474615Y536495D02*X476615D01*
Y532495D01*
X474615D02*X476615D01*
X473414Y536495D02*Y532495D01*
X471414Y536495D02*X473414D01*
X470213D02*Y532995D01*
X469713Y532495D01*
X468213D02*X469713D01*
X468213D02*X467713Y532995D01*
Y536495D02*Y532995D01*
Y534495D02*X470213D01*
X466512Y532995D02*Y532495D01*
Y532995D02*X465512Y533995D01*
X464512Y532995D01*
Y532495D01*
X465512Y536495D02*Y533995D01*
X463311Y532995D02*X462811Y532495D01*
X461311D02*X462811D01*
X461311D02*X460811Y532995D01*
Y533995D02*Y532995D01*
X463311Y536495D02*X460811Y533995D01*
Y536495D02*X463311D01*
X458110D02*X459110D01*
X458610D02*Y532495D01*
X459610Y533495D02*X458610Y532495D01*
X478316Y422259D02*X480316D01*
X478316D02*X477816Y422759D01*
Y423759D02*Y422759D01*
X478316Y424259D02*X477816Y423759D01*
X478316Y424259D02*X479816D01*
Y426259D02*Y422259D01*
Y424259D02*X477816Y426259D01*
X475115Y424259D02*X476615D01*
X474615Y426259D02*X476615D01*
Y422259D01*
X474615D02*X476615D01*
X473414Y426259D02*Y422259D01*
X471414Y426259D02*X473414D01*
X470213D02*Y422759D01*
X469713Y422259D01*
X468213D02*X469713D01*
X468213D02*X467713Y422759D01*
Y426259D02*Y422759D01*
Y424259D02*X470213D01*
X466512Y422759D02*Y422259D01*
Y422759D02*X465512Y423759D01*
X464512Y422759D01*
Y422259D01*
X465512Y426259D02*Y423759D01*
X463311Y422759D02*X462811Y422259D01*
X461311D02*X462811D01*
X461311D02*X460811Y422759D01*
Y423759D02*Y422759D01*
X463311Y426259D02*X460811Y423759D01*
Y426259D02*X463311D01*
X459610Y422759D02*X459110Y422259D01*
X458110D02*X459110D01*
X458110D02*X457610Y422759D01*
Y425759D02*Y422759D01*
X458110Y426259D02*X457610Y425759D01*
X458110Y426259D02*X459110D01*
X459610Y425759D02*X459110Y426259D01*
X457610Y424259D02*X459110D01*
X517874Y413259D02*Y409259D01*
X519874D01*
X521075Y411259D02*X522575D01*
X521075Y409259D02*X523075D01*
X521075Y413259D02*Y409259D01*
Y413259D02*X523075D01*
X524776D02*Y409259D01*
X526276Y413259D02*X526776Y412759D01*
Y409759D01*
X526276Y409259D02*X526776Y409759D01*
X524276Y409259D02*X526276D01*
X524276Y413259D02*X526276D01*
X527977Y412759D02*X528477Y413259D01*
X529977D01*
X530477Y412759D01*
Y411759D01*
X527977Y409259D02*X530477Y411759D01*
X527977Y409259D02*X530477D01*
X531678Y412759D02*X532178Y413259D01*
X533178D01*
X533678Y412759D01*
Y409759D01*
X533178Y409259D02*X533678Y409759D01*
X532178Y409259D02*X533178D01*
X531678Y409759D02*X532178Y409259D01*
Y411259D02*X533678D01*
X517874Y303022D02*Y299022D01*
X519874D01*
X521075Y301022D02*X522575D01*
X521075Y299022D02*X523075D01*
X521075Y303022D02*Y299022D01*
Y303022D02*X523075D01*
X524776D02*Y299022D01*
X526276Y303022D02*X526776Y302522D01*
Y299522D01*
X526276Y299022D02*X526776Y299522D01*
X524276Y299022D02*X526276D01*
X524276Y303022D02*X526276D01*
X527977Y302522D02*X528477Y303022D01*
X529977D01*
X530477Y302522D01*
Y301522D01*
X527977Y299022D02*X530477Y301522D01*
X527977Y299022D02*X530477D01*
X531678Y303022D02*X533678D01*
X531678D02*Y301022D01*
X532178Y301522D01*
X533178D01*
X533678Y301022D01*
Y299522D01*
X533178Y299022D02*X533678Y299522D01*
X532178Y299022D02*X533178D01*
X531678Y299522D02*X532178Y299022D01*
X478316Y312022D02*X480316D01*
X478316D02*X477816Y312522D01*
Y313522D02*Y312522D01*
X478316Y314022D02*X477816Y313522D01*
X478316Y314022D02*X479816D01*
Y316022D02*Y312022D01*
Y314022D02*X477816Y316022D01*
X475115Y314022D02*X476615D01*
X474615Y316022D02*X476615D01*
Y312022D01*
X474615D02*X476615D01*
X473414Y316022D02*Y312022D01*
X471414Y316022D02*X473414D01*
X470213D02*Y312522D01*
X469713Y312022D01*
X468213D02*X469713D01*
X468213D02*X467713Y312522D01*
Y316022D02*Y312522D01*
Y314022D02*X470213D01*
X466512Y312522D02*Y312022D01*
Y312522D02*X465512Y313522D01*
X464512Y312522D01*
Y312022D01*
X465512Y316022D02*Y313522D01*
X463311Y312522D02*X462811Y312022D01*
X461311D02*X462811D01*
X461311D02*X460811Y312522D01*
Y313522D02*Y312522D01*
X463311Y316022D02*X460811Y313522D01*
Y316022D02*X463311D01*
X457610Y312022D02*X459610D01*
Y314022D02*Y312022D01*
Y314022D02*X459110Y313522D01*
X458110D02*X459110D01*
X458110D02*X457610Y314022D01*
Y315522D02*Y314022D01*
X458110Y316022D02*X457610Y315522D01*
X458110Y316022D02*X459110D01*
X459610Y315522D02*X459110Y316022D01*
X155480Y532495D02*X157480D01*
X155480D02*X154980Y532995D01*
Y533995D02*Y532995D01*
X155480Y534495D02*X154980Y533995D01*
X155480Y534495D02*X156980D01*
Y536495D02*Y532495D01*
Y534495D02*X154980Y536495D01*
X152279Y534495D02*X153779D01*
X151779Y536495D02*X153779D01*
Y532495D01*
X151779D02*X153779D01*
X150578Y536495D02*Y532495D01*
X148578Y536495D02*X150578D01*
X147377D02*Y532995D01*
X146877Y532495D01*
X145377D02*X146877D01*
X145377D02*X144877Y532995D01*
Y536495D02*Y532995D01*
Y534495D02*X147377D01*
X143676Y532995D02*Y532495D01*
Y532995D02*X142676Y533995D01*
X141676Y532995D01*
Y532495D01*
X142676Y536495D02*Y533995D01*
X138975Y536495D02*X139975D01*
X139475D02*Y532495D01*
X140475Y533495D02*X139475Y532495D01*
X198976Y523495D02*Y519495D01*
X200976D01*
X202177Y521495D02*X203677D01*
X202177Y519495D02*X204177D01*
X202177Y523495D02*Y519495D01*
Y523495D02*X204177D01*
X205878D02*Y519495D01*
X207378Y523495D02*X207878Y522995D01*
Y519995D01*
X207378Y519495D02*X207878Y519995D01*
X205378Y519495D02*X207378D01*
X205378Y523495D02*X207378D01*
X209579Y519495D02*X210579D01*
X210079Y523495D02*Y519495D01*
X209079Y522495D02*X210079Y523495D01*
X198976Y502436D02*Y499436D01*
Y502436D02*X199476Y502936D01*
X200476D01*
X200976Y502436D01*
Y499436D01*
X200476Y498936D02*X200976Y499436D01*
X199476Y498936D02*X200476D01*
X198976Y499436D02*X199476Y498936D01*
X199976Y499936D02*X200976Y498936D01*
X202177Y502436D02*X202677Y502936D01*
X204177D01*
X204677Y502436D01*
Y501436D01*
X202177Y498936D02*X204677Y501436D01*
X202177Y498936D02*X204677D01*
X205878Y502436D02*X206378Y502936D01*
X207878D01*
X208378Y502436D01*
Y501436D01*
X205878Y498936D02*X208378Y501436D01*
X205878Y498936D02*X208378D01*
X209579Y502436D02*X210079Y502936D01*
X211579D01*
X212079Y502436D01*
Y501436D01*
X209579Y498936D02*X212079Y501436D01*
X209579Y498936D02*X212079D01*
X198976Y557554D02*Y554554D01*
Y557554D02*X199476Y558054D01*
X200476D01*
X200976Y557554D01*
Y554554D01*
X200476Y554054D02*X200976Y554554D01*
X199476Y554054D02*X200476D01*
X198976Y554554D02*X199476Y554054D01*
X199976Y555054D02*X200976Y554054D01*
X202177Y557554D02*X202677Y558054D01*
X204177D01*
X204677Y557554D01*
Y556554D01*
X202177Y554054D02*X204677Y556554D01*
X202177Y554054D02*X204677D01*
X205878Y557554D02*X206378Y558054D01*
X207878D01*
X208378Y557554D01*
Y556554D01*
X205878Y554054D02*X208378Y556554D01*
X205878Y554054D02*X208378D01*
X209579Y557554D02*X210079Y558054D01*
X211079D01*
X211579Y557554D01*
Y554554D01*
X211079Y554054D02*X211579Y554554D01*
X210079Y554054D02*X211079D01*
X209579Y554554D02*X210079Y554054D01*
Y556054D02*X211579D01*
X155480Y477377D02*X157480D01*
X155480D02*X154980Y477877D01*
Y478877D02*Y477877D01*
X155480Y479377D02*X154980Y478877D01*
X155480Y479377D02*X156980D01*
Y481377D02*Y477377D01*
Y479377D02*X154980Y481377D01*
X152279Y479377D02*X153779D01*
X151779Y481377D02*X153779D01*
Y477377D01*
X151779D02*X153779D01*
X150578Y481377D02*Y477377D01*
X148578Y481377D02*X150578D01*
X147377D02*Y477877D01*
X146877Y477377D01*
X145377D02*X146877D01*
X145377D02*X144877Y477877D01*
Y481377D02*Y477877D01*
Y479377D02*X147377D01*
X143676Y477877D02*Y477377D01*
Y477877D02*X142676Y478877D01*
X141676Y477877D01*
Y477377D01*
X142676Y481377D02*Y478877D01*
X140475Y477877D02*X139975Y477377D01*
X138475D02*X139975D01*
X138475D02*X137975Y477877D01*
Y478877D02*Y477877D01*
X140475Y481377D02*X137975Y478877D01*
Y481377D02*X140475D01*
X698976Y436881D02*Y435381D01*
X699476Y437381D02*X698976Y436881D01*
X699476Y437381D02*X702476D01*
X702976Y436881D01*
Y435381D01*
X702476Y434180D02*X702976Y433680D01*
Y432680D01*
X702476Y432180D01*
X699476D02*X702476D01*
X698976Y432680D02*X699476Y432180D01*
X698976Y433680D02*Y432680D01*
X699476Y434180D02*X698976Y433680D01*
X700976D02*Y432180D01*
X699476Y430979D02*X698976Y430479D01*
X699476Y430979D02*X702476D01*
X702976Y430479D01*
Y429479D01*
X702476Y428979D01*
X699476D02*X702476D01*
X698976Y429479D02*X699476Y428979D01*
X698976Y430479D02*Y429479D01*
X699976Y430979D02*X701976Y428979D01*
X698976Y427278D02*Y426278D01*
Y426778D02*X702976D01*
X701976Y427778D02*X702976Y426778D01*
X712693Y551388D02*X716693D01*
Y551888D02*Y549888D01*
X716193Y549388D01*
X715193D02*X716193D01*
X714693Y549888D02*X715193Y549388D01*
X714693Y551388D02*Y549888D01*
X716693Y548187D02*Y546187D01*
X716193Y545687D01*
X715193D02*X716193D01*
X714693Y546187D02*X715193Y545687D01*
X714693Y547687D02*Y546187D01*
X712693Y547687D02*X716693D01*
X714693D02*X712693Y545687D01*
X713193Y544486D02*X716193D01*
X716693Y543986D01*
Y542986D01*
X716193Y542486D01*
X713193D02*X716193D01*
X712693Y542986D02*X713193Y542486D01*
X712693Y543986D02*Y542986D01*
X713193Y544486D02*X712693Y543986D01*
X716693Y539285D02*X716193Y538785D01*
X716693Y540785D02*Y539285D01*
X716193Y541285D02*X716693Y540785D01*
X713193Y541285D02*X716193D01*
X713193D02*X712693Y540785D01*
Y539285D01*
X713193Y538785D01*
X714193D01*
X714693Y539285D02*X714193Y538785D01*
X714693Y540285D02*Y539285D01*
X716693Y537584D02*Y535584D01*
X716193Y535084D01*
X715193D02*X716193D01*
X714693Y535584D02*X715193Y535084D01*
X714693Y537084D02*Y535584D01*
X712693Y537084D02*X716693D01*
X714693D02*X712693Y535084D01*
X714693Y533883D02*Y532383D01*
X712693Y533883D02*Y531883D01*
Y533883D02*X716693D01*
Y531883D01*
X712693Y530682D02*X716693D01*
X712693D02*Y528682D01*
Y527481D02*X716193D01*
X716693Y526981D01*
Y525481D01*
X716193Y524981D01*
X712693D02*X716193D01*
X714693Y527481D02*Y524981D01*
X716193Y523780D02*X716693D01*
X716193D02*X715193Y522780D01*
X716193Y521780D01*
X716693D01*
X712693Y522780D02*X715193D01*
X712693Y520079D02*Y519079D01*
Y519579D02*X716693D01*
X715693Y520579D02*X716693Y519579D01*
X713193Y517878D02*X712693Y517378D01*
X713193Y517878D02*X716193D01*
X716693Y517378D01*
Y516378D01*
X716193Y515878D01*
X713193D02*X716193D01*
X712693Y516378D02*X713193Y515878D01*
X712693Y517378D02*Y516378D01*
X713693Y517878D02*X715693Y515878D01*
X712693Y514177D02*Y513177D01*
Y513677D02*X716693D01*
X715693Y514677D02*X716693Y513677D01*
X517874Y557554D02*Y554554D01*
Y557554D02*X518374Y558054D01*
X519374D01*
X519874Y557554D01*
Y554554D01*
X519374Y554054D02*X519874Y554554D01*
X518374Y554054D02*X519374D01*
X517874Y554554D02*X518374Y554054D01*
X518874Y555054D02*X519874Y554054D01*
X521075Y557554D02*X521575Y558054D01*
X523075D01*
X523575Y557554D01*
Y556554D01*
X521075Y554054D02*X523575Y556554D01*
X521075Y554054D02*X523575D01*
X525276D02*X526276D01*
X525776Y558054D02*Y554054D01*
X524776Y557054D02*X525776Y558054D01*
X527477Y554554D02*X527977Y554054D01*
X527477Y555554D02*Y554554D01*
Y555554D02*X527977Y556054D01*
X528977D01*
X529477Y555554D01*
Y554554D01*
X528977Y554054D02*X529477Y554554D01*
X527977Y554054D02*X528977D01*
X527477Y556554D02*X527977Y556054D01*
X527477Y557554D02*Y556554D01*
Y557554D02*X527977Y558054D01*
X528977D01*
X529477Y557554D01*
Y556554D01*
X528977Y556054D02*X529477Y556554D01*
X517874Y447318D02*Y444318D01*
Y447318D02*X518374Y447818D01*
X519374D01*
X519874Y447318D01*
Y444318D01*
X519374Y443818D02*X519874Y444318D01*
X518374Y443818D02*X519374D01*
X517874Y444318D02*X518374Y443818D01*
X518874Y444818D02*X519874Y443818D01*
X521075Y447318D02*X521575Y447818D01*
X523075D01*
X523575Y447318D01*
Y446318D01*
X521075Y443818D02*X523575Y446318D01*
X521075Y443818D02*X523575D01*
X524776Y447318D02*X525276Y447818D01*
X526776D01*
X527276Y447318D01*
Y446318D01*
X524776Y443818D02*X527276Y446318D01*
X524776Y443818D02*X527276D01*
X528477Y444318D02*X528977Y443818D01*
X528477Y447318D02*Y444318D01*
Y447318D02*X528977Y447818D01*
X529977D01*
X530477Y447318D01*
Y444318D01*
X529977Y443818D02*X530477Y444318D01*
X528977Y443818D02*X529977D01*
X528477Y444818D02*X530477Y446818D01*
X517874Y502436D02*Y499436D01*
Y502436D02*X518374Y502936D01*
X519374D01*
X519874Y502436D01*
Y499436D01*
X519374Y498936D02*X519874Y499436D01*
X518374Y498936D02*X519374D01*
X517874Y499436D02*X518374Y498936D01*
X518874Y499936D02*X519874Y498936D01*
X521075Y502436D02*X521575Y502936D01*
X523075D01*
X523575Y502436D01*
Y501436D01*
X521075Y498936D02*X523575Y501436D01*
X521075Y498936D02*X523575D01*
X525276D02*X526276D01*
X525776Y502936D02*Y498936D01*
X524776Y501936D02*X525776Y502936D01*
X527477Y498936D02*X529477Y500936D01*
Y502436D02*Y500936D01*
X528977Y502936D02*X529477Y502436D01*
X527977Y502936D02*X528977D01*
X527477Y502436D02*X527977Y502936D01*
X527477Y502436D02*Y501436D01*
X527977Y500936D01*
X529477D01*
X517874Y523495D02*Y519495D01*
X519874D01*
X521075Y521495D02*X522575D01*
X521075Y519495D02*X523075D01*
X521075Y523495D02*Y519495D01*
Y523495D02*X523075D01*
X524776D02*Y519495D01*
X526276Y523495D02*X526776Y522995D01*
Y519995D01*
X526276Y519495D02*X526776Y519995D01*
X524276Y519495D02*X526276D01*
X524276Y523495D02*X526276D01*
X527977Y522995D02*X528477Y523495D01*
X529977D01*
X530477Y522995D01*
Y521995D01*
X527977Y519495D02*X530477Y521995D01*
X527977Y519495D02*X530477D01*
X532178D02*X533178D01*
X532678Y523495D02*Y519495D01*
X531678Y522495D02*X532678Y523495D01*
X517874Y468377D02*Y464377D01*
X519874D01*
X521075Y466377D02*X522575D01*
X521075Y464377D02*X523075D01*
X521075Y468377D02*Y464377D01*
Y468377D02*X523075D01*
X524776D02*Y464377D01*
X526276Y468377D02*X526776Y467877D01*
Y464877D01*
X526276Y464377D02*X526776Y464877D01*
X524276Y464377D02*X526276D01*
X524276Y468377D02*X526276D01*
X527977Y467877D02*X528477Y468377D01*
X529977D01*
X530477Y467877D01*
Y466877D01*
X527977Y464377D02*X530477Y466877D01*
X527977Y464377D02*X530477D01*
X531678Y467877D02*X532178Y468377D01*
X533678D01*
X534178Y467877D01*
Y466877D01*
X531678Y464377D02*X534178Y466877D01*
X531678Y464377D02*X534178D01*
X359331Y523495D02*Y519495D01*
X361331D01*
X362532Y521495D02*X364032D01*
X362532Y519495D02*X364532D01*
X362532Y523495D02*Y519495D01*
Y523495D02*X364532D01*
X366233D02*Y519495D01*
X367733Y523495D02*X368233Y522995D01*
Y519995D01*
X367733Y519495D02*X368233Y519995D01*
X365733Y519495D02*X367733D01*
X365733Y523495D02*X367733D01*
X369934Y519495D02*X370934D01*
X370434Y523495D02*Y519495D01*
X369434Y522495D02*X370434Y523495D01*
X372635Y519495D02*X373635D01*
X373135Y523495D02*Y519495D01*
X372135Y522495D02*X373135Y523495D01*
X360394Y557554D02*Y554554D01*
Y557554D02*X360894Y558054D01*
X361894D01*
X362394Y557554D01*
Y554554D01*
X361894Y554054D02*X362394Y554554D01*
X360894Y554054D02*X361894D01*
X360394Y554554D02*X360894Y554054D01*
X361394Y555054D02*X362394Y554054D01*
X363595Y557554D02*X364095Y558054D01*
X365595D01*
X366095Y557554D01*
Y556554D01*
X363595Y554054D02*X366095Y556554D01*
X363595Y554054D02*X366095D01*
X367296Y554554D02*X367796Y554054D01*
X367296Y557554D02*Y554554D01*
Y557554D02*X367796Y558054D01*
X368796D01*
X369296Y557554D01*
Y554554D01*
X368796Y554054D02*X369296Y554554D01*
X367796Y554054D02*X368796D01*
X367296Y555054D02*X369296Y557054D01*
X371997Y558054D02*X372497Y557554D01*
X370997Y558054D02*X371997D01*
X370497Y557554D02*X370997Y558054D01*
X370497Y557554D02*Y554554D01*
X370997Y554054D01*
X371997Y556054D02*X372497Y555554D01*
X370497Y556054D02*X371997D01*
X370997Y554054D02*X371997D01*
X372497Y554554D01*
Y555554D02*Y554554D01*
X316898Y367141D02*X318898D01*
X316898D02*X316398Y367641D01*
Y368641D02*Y367641D01*
X316898Y369141D02*X316398Y368641D01*
X316898Y369141D02*X318398D01*
Y371141D02*Y367141D01*
Y369141D02*X316398Y371141D01*
X313697Y369141D02*X315197D01*
X313197Y371141D02*X315197D01*
Y367141D01*
X313197D02*X315197D01*
X311996Y371141D02*Y367141D01*
X309996Y371141D02*X311996D01*
X308795D02*Y367641D01*
X308295Y367141D01*
X306795D02*X308295D01*
X306795D02*X306295Y367641D01*
Y371141D02*Y367641D01*
Y369141D02*X308795D01*
X305094Y367641D02*Y367141D01*
Y367641D02*X304094Y368641D01*
X303094Y367641D01*
Y367141D01*
X304094Y371141D02*Y368641D01*
X300393Y371141D02*X301393D01*
X300893D02*Y367141D01*
X301893Y368141D02*X300893Y367141D01*
X299192Y369141D02*X297192Y367141D01*
X296692Y369141D02*X299192D01*
X297192Y371141D02*Y367141D01*
X316898Y422259D02*X318898D01*
X316898D02*X316398Y422759D01*
Y423759D02*Y422759D01*
X316898Y424259D02*X316398Y423759D01*
X316898Y424259D02*X318398D01*
Y426259D02*Y422259D01*
Y424259D02*X316398Y426259D01*
X313697Y424259D02*X315197D01*
X313197Y426259D02*X315197D01*
Y422259D01*
X313197D02*X315197D01*
X311996Y426259D02*Y422259D01*
X309996Y426259D02*X311996D01*
X308795D02*Y422759D01*
X308295Y422259D01*
X306795D02*X308295D01*
X306795D02*X306295Y422759D01*
Y426259D02*Y422759D01*
Y424259D02*X308795D01*
X305094Y422759D02*Y422259D01*
Y422759D02*X304094Y423759D01*
X303094Y422759D01*
Y422259D01*
X304094Y426259D02*Y423759D01*
X300393Y426259D02*X301393D01*
X300893D02*Y422259D01*
X301893Y423259D02*X300893Y422259D01*
X299192Y422759D02*X298692Y422259D01*
X297692D02*X298692D01*
X297692D02*X297192Y422759D01*
Y425759D02*Y422759D01*
X297692Y426259D02*X297192Y425759D01*
X297692Y426259D02*X298692D01*
X299192Y425759D02*X298692Y426259D01*
X297192Y424259D02*X298692D01*
X316898Y532495D02*X318898D01*
X316898D02*X316398Y532995D01*
Y533995D02*Y532995D01*
X316898Y534495D02*X316398Y533995D01*
X316898Y534495D02*X318398D01*
Y536495D02*Y532495D01*
Y534495D02*X316398Y536495D01*
X313697Y534495D02*X315197D01*
X313197Y536495D02*X315197D01*
Y532495D01*
X313197D02*X315197D01*
X311996Y536495D02*Y532495D01*
X309996Y536495D02*X311996D01*
X308795D02*Y532995D01*
X308295Y532495D01*
X306795D02*X308295D01*
X306795D02*X306295Y532995D01*
Y536495D02*Y532995D01*
Y534495D02*X308795D01*
X305094Y532995D02*Y532495D01*
Y532995D02*X304094Y533995D01*
X303094Y532995D01*
Y532495D01*
X304094Y536495D02*Y533995D01*
X300393Y536495D02*X301393D01*
X300893D02*Y532495D01*
X301893Y533495D02*X300893Y532495D01*
X297692Y536495D02*X298692D01*
X298192D02*Y532495D01*
X299192Y533495D02*X298192Y532495D01*
X316898Y477377D02*X318898D01*
X316898D02*X316398Y477877D01*
Y478877D02*Y477877D01*
X316898Y479377D02*X316398Y478877D01*
X316898Y479377D02*X318398D01*
Y481377D02*Y477377D01*
Y479377D02*X316398Y481377D01*
X313697Y479377D02*X315197D01*
X313197Y481377D02*X315197D01*
Y477377D01*
X313197D02*X315197D01*
X311996Y481377D02*Y477377D01*
X309996Y481377D02*X311996D01*
X308795D02*Y477877D01*
X308295Y477377D01*
X306795D02*X308295D01*
X306795D02*X306295Y477877D01*
Y481377D02*Y477877D01*
Y479377D02*X308795D01*
X305094Y477877D02*Y477377D01*
Y477877D02*X304094Y478877D01*
X303094Y477877D01*
Y477377D01*
X304094Y481377D02*Y478877D01*
X300393Y481377D02*X301393D01*
X300893D02*Y477377D01*
X301893Y478377D02*X300893Y477377D01*
X299192Y477877D02*X298692Y477377D01*
X297192D02*X298692D01*
X297192D02*X296692Y477877D01*
Y478877D02*Y477877D01*
X299192Y481377D02*X296692Y478877D01*
Y481377D02*X299192D01*
X360394Y468377D02*Y464377D01*
X362394D01*
X363595Y466377D02*X365095D01*
X363595Y464377D02*X365595D01*
X363595Y468377D02*Y464377D01*
Y468377D02*X365595D01*
X367296D02*Y464377D01*
X368796Y468377D02*X369296Y467877D01*
Y464877D01*
X368796Y464377D02*X369296Y464877D01*
X366796Y464377D02*X368796D01*
X366796Y468377D02*X368796D01*
X370997Y464377D02*X371997D01*
X371497Y468377D02*Y464377D01*
X370497Y467377D02*X371497Y468377D01*
X373198Y467877D02*X373698Y468377D01*
X375198D01*
X375698Y467877D01*
Y466877D01*
X373198Y464377D02*X375698Y466877D01*
X373198Y464377D02*X375698D01*
X360394Y447318D02*Y444318D01*
Y447318D02*X360894Y447818D01*
X361894D01*
X362394Y447318D01*
Y444318D01*
X361894Y443818D02*X362394Y444318D01*
X360894Y443818D02*X361894D01*
X360394Y444318D02*X360894Y443818D01*
X361394Y444818D02*X362394Y443818D01*
X363595Y447318D02*X364095Y447818D01*
X365595D01*
X366095Y447318D01*
Y446318D01*
X363595Y443818D02*X366095Y446318D01*
X363595Y443818D02*X366095D01*
X367796D02*X368796D01*
X368296Y447818D02*Y443818D01*
X367296Y446818D02*X368296Y447818D01*
X369997Y444318D02*X370497Y443818D01*
X369997Y447318D02*Y444318D01*
Y447318D02*X370497Y447818D01*
X371497D01*
X371997Y447318D01*
Y444318D01*
X371497Y443818D02*X371997Y444318D01*
X370497Y443818D02*X371497D01*
X369997Y444818D02*X371997Y446818D01*
X360394Y502436D02*Y499436D01*
Y502436D02*X360894Y502936D01*
X361894D01*
X362394Y502436D01*
Y499436D01*
X361894Y498936D02*X362394Y499436D01*
X360894Y498936D02*X361894D01*
X360394Y499436D02*X360894Y498936D01*
X361394Y499936D02*X362394Y498936D01*
X363595Y502436D02*X364095Y502936D01*
X365595D01*
X366095Y502436D01*
Y501436D01*
X363595Y498936D02*X366095Y501436D01*
X363595Y498936D02*X366095D01*
X367296Y499436D02*X367796Y498936D01*
X367296Y502436D02*Y499436D01*
Y502436D02*X367796Y502936D01*
X368796D01*
X369296Y502436D01*
Y499436D01*
X368796Y498936D02*X369296Y499436D01*
X367796Y498936D02*X368796D01*
X367296Y499936D02*X369296Y501936D01*
X370497Y498936D02*X372497Y500936D01*
Y502436D02*Y500936D01*
X371997Y502936D02*X372497Y502436D01*
X370997Y502936D02*X371997D01*
X370497Y502436D02*X370997Y502936D01*
X370497Y502436D02*Y501436D01*
X370997Y500936D01*
X372497D01*
X198976Y281963D02*Y278963D01*
Y281963D02*X199476Y282463D01*
X200476D01*
X200976Y281963D01*
Y278963D01*
X200476Y278463D02*X200976Y278963D01*
X199476Y278463D02*X200476D01*
X198976Y278963D02*X199476Y278463D01*
X199976Y279463D02*X200976Y278463D01*
X202177Y281963D02*X202677Y282463D01*
X204177D01*
X204677Y281963D01*
Y280963D01*
X202177Y278463D02*X204677Y280963D01*
X202177Y278463D02*X204677D01*
X205878Y278963D02*X206378Y278463D01*
X205878Y281963D02*Y278963D01*
Y281963D02*X206378Y282463D01*
X207378D01*
X207878Y281963D01*
Y278963D01*
X207378Y278463D02*X207878Y278963D01*
X206378Y278463D02*X207378D01*
X205878Y279463D02*X207878Y281463D01*
X209579Y278463D02*X210579D01*
X210079Y282463D02*Y278463D01*
X209079Y281463D02*X210079Y282463D01*
X198976Y392200D02*Y389200D01*
Y392200D02*X199476Y392700D01*
X200476D01*
X200976Y392200D01*
Y389200D01*
X200476Y388700D02*X200976Y389200D01*
X199476Y388700D02*X200476D01*
X198976Y389200D02*X199476Y388700D01*
X199976Y389700D02*X200976Y388700D01*
X202177Y392200D02*X202677Y392700D01*
X204177D01*
X204677Y392200D01*
Y391200D01*
X202177Y388700D02*X204677Y391200D01*
X202177Y388700D02*X204677D01*
X205878Y392200D02*X206378Y392700D01*
X207878D01*
X208378Y392200D01*
Y391200D01*
X205878Y388700D02*X208378Y391200D01*
X205878Y388700D02*X208378D01*
X209579Y389200D02*X210079Y388700D01*
X209579Y390200D02*Y389200D01*
Y390200D02*X210079Y390700D01*
X211079D01*
X211579Y390200D01*
Y389200D01*
X211079Y388700D02*X211579Y389200D01*
X210079Y388700D02*X211079D01*
X209579Y391200D02*X210079Y390700D01*
X209579Y392200D02*Y391200D01*
Y392200D02*X210079Y392700D01*
X211079D01*
X211579Y392200D01*
Y391200D01*
X211079Y390700D02*X211579Y391200D01*
X316898Y312022D02*X318898D01*
X316898D02*X316398Y312522D01*
Y313522D02*Y312522D01*
X316898Y314022D02*X316398Y313522D01*
X316898Y314022D02*X318398D01*
Y316022D02*Y312022D01*
Y314022D02*X316398Y316022D01*
X313697Y314022D02*X315197D01*
X313197Y316022D02*X315197D01*
Y312022D01*
X313197D02*X315197D01*
X311996Y316022D02*Y312022D01*
X309996Y316022D02*X311996D01*
X308795D02*Y312522D01*
X308295Y312022D01*
X306795D02*X308295D01*
X306795D02*X306295Y312522D01*
Y316022D02*Y312522D01*
Y314022D02*X308795D01*
X305094Y312522D02*Y312022D01*
Y312522D02*X304094Y313522D01*
X303094Y312522D01*
Y312022D01*
X304094Y316022D02*Y313522D01*
X300393Y316022D02*X301393D01*
X300893D02*Y312022D01*
X301893Y313022D02*X300893Y312022D01*
X297192D02*X299192D01*
Y314022D02*Y312022D01*
Y314022D02*X298692Y313522D01*
X297692D02*X298692D01*
X297692D02*X297192Y314022D01*
Y315522D02*Y314022D01*
X297692Y316022D02*X297192Y315522D01*
X297692Y316022D02*X298692D01*
X299192Y315522D02*X298692Y316022D01*
X155480Y312022D02*X157480D01*
X155480D02*X154980Y312522D01*
Y313522D02*Y312522D01*
X155480Y314022D02*X154980Y313522D01*
X155480Y314022D02*X156980D01*
Y316022D02*Y312022D01*
Y314022D02*X154980Y316022D01*
X152279Y314022D02*X153779D01*
X151779Y316022D02*X153779D01*
Y312022D01*
X151779D02*X153779D01*
X150578Y316022D02*Y312022D01*
X148578Y316022D02*X150578D01*
X147377D02*Y312522D01*
X146877Y312022D01*
X145377D02*X146877D01*
X145377D02*X144877Y312522D01*
Y316022D02*Y312522D01*
Y314022D02*X147377D01*
X143676Y312522D02*Y312022D01*
Y312522D02*X142676Y313522D01*
X141676Y312522D01*
Y312022D01*
X142676Y316022D02*Y313522D01*
X138475Y312022D02*X140475D01*
Y314022D02*Y312022D01*
Y314022D02*X139975Y313522D01*
X138975D02*X139975D01*
X138975D02*X138475Y314022D01*
Y315522D02*Y314022D01*
X138975Y316022D02*X138475Y315522D01*
X138975Y316022D02*X139975D01*
X140475Y315522D02*X139975Y316022D01*
X198976Y303022D02*Y299022D01*
X200976D01*
X202177Y301022D02*X203677D01*
X202177Y299022D02*X204177D01*
X202177Y303022D02*Y299022D01*
Y303022D02*X204177D01*
X205878D02*Y299022D01*
X207378Y303022D02*X207878Y302522D01*
Y299522D01*
X207378Y299022D02*X207878Y299522D01*
X205378Y299022D02*X207378D01*
X205378Y303022D02*X207378D01*
X209079D02*X211079D01*
X209079D02*Y301022D01*
X209579Y301522D01*
X210579D01*
X211079Y301022D01*
Y299522D01*
X210579Y299022D02*X211079Y299522D01*
X209579Y299022D02*X210579D01*
X209079Y299522D02*X209579Y299022D01*
X198976Y192786D02*Y188786D01*
X200976D01*
X202177Y190786D02*X203677D01*
X202177Y188786D02*X204177D01*
X202177Y192786D02*Y188786D01*
Y192786D02*X204177D01*
X205878D02*Y188786D01*
X207378Y192786D02*X207878Y192286D01*
Y189286D01*
X207378Y188786D02*X207878Y189286D01*
X205378Y188786D02*X207378D01*
X205378Y192786D02*X207378D01*
X209079Y188786D02*X211579Y191286D01*
Y192786D02*Y191286D01*
X209079Y192786D02*X211579D01*
X155480Y201786D02*X157480D01*
X155480D02*X154980Y202286D01*
Y203286D02*Y202286D01*
X155480Y203786D02*X154980Y203286D01*
X155480Y203786D02*X156980D01*
Y205786D02*Y201786D01*
Y203786D02*X154980Y205786D01*
X152279Y203786D02*X153779D01*
X151779Y205786D02*X153779D01*
Y201786D01*
X151779D02*X153779D01*
X150578Y205786D02*Y201786D01*
X148578Y205786D02*X150578D01*
X147377D02*Y202286D01*
X146877Y201786D01*
X145377D02*X146877D01*
X145377D02*X144877Y202286D01*
Y205786D02*Y202286D01*
Y203786D02*X147377D01*
X143676Y202286D02*Y201786D01*
Y202286D02*X142676Y203286D01*
X141676Y202286D01*
Y201786D01*
X142676Y205786D02*Y203286D01*
X140475Y205786D02*X137975Y203286D01*
Y201786D01*
X140475D01*
X198976Y171727D02*Y168727D01*
Y171727D02*X199476Y172227D01*
X200476D01*
X200976Y171727D01*
Y168727D01*
X200476Y168227D02*X200976Y168727D01*
X199476Y168227D02*X200476D01*
X198976Y168727D02*X199476Y168227D01*
X199976Y169227D02*X200976Y168227D01*
X202177Y171727D02*X202677Y172227D01*
X204177D01*
X204677Y171727D01*
Y170727D01*
X202177Y168227D02*X204677Y170727D01*
X202177Y168227D02*X204677D01*
X205878Y168727D02*X206378Y168227D01*
X205878Y171727D02*Y168727D01*
Y171727D02*X206378Y172227D01*
X207378D01*
X207878Y171727D01*
Y168727D01*
X207378Y168227D02*X207878Y168727D01*
X206378Y168227D02*X207378D01*
X205878Y169227D02*X207878Y171227D01*
X209079Y171727D02*X209579Y172227D01*
X210579D01*
X211079Y171727D01*
Y168727D01*
X210579Y168227D02*X211079Y168727D01*
X209579Y168227D02*X210579D01*
X209079Y168727D02*X209579Y168227D01*
Y170227D02*X211079D01*
X198976Y337081D02*Y334081D01*
Y337081D02*X199476Y337581D01*
X200476D01*
X200976Y337081D01*
Y334081D01*
X200476Y333581D02*X200976Y334081D01*
X199476Y333581D02*X200476D01*
X198976Y334081D02*X199476Y333581D01*
X199976Y334581D02*X200976Y333581D01*
X202177Y337081D02*X202677Y337581D01*
X204177D01*
X204677Y337081D01*
Y336081D01*
X202177Y333581D02*X204677Y336081D01*
X202177Y333581D02*X204677D01*
X205878Y337081D02*X206378Y337581D01*
X207878D01*
X208378Y337081D01*
Y336081D01*
X205878Y333581D02*X208378Y336081D01*
X205878Y333581D02*X208378D01*
X209579D02*X211579Y335581D01*
Y337081D02*Y335581D01*
X211079Y337581D02*X211579Y337081D01*
X210079Y337581D02*X211079D01*
X209579Y337081D02*X210079Y337581D01*
X209579Y337081D02*Y336081D01*
X210079Y335581D01*
X211579D01*
X155480Y256904D02*X157480D01*
X155480D02*X154980Y257404D01*
Y258404D02*Y257404D01*
X155480Y258904D02*X154980Y258404D01*
X155480Y258904D02*X156980D01*
Y260904D02*Y256904D01*
Y258904D02*X154980Y260904D01*
X152279Y258904D02*X153779D01*
X151779Y260904D02*X153779D01*
Y256904D01*
X151779D02*X153779D01*
X150578Y260904D02*Y256904D01*
X148578Y260904D02*X150578D01*
X147377D02*Y257404D01*
X146877Y256904D01*
X145377D02*X146877D01*
X145377D02*X144877Y257404D01*
Y260904D02*Y257404D01*
Y258904D02*X147377D01*
X143676Y257404D02*Y256904D01*
Y257404D02*X142676Y258404D01*
X141676Y257404D01*
Y256904D01*
X142676Y260904D02*Y258404D01*
X138975Y256904D02*X138475Y257404D01*
X138975Y256904D02*X139975D01*
X140475Y257404D02*X139975Y256904D01*
X140475Y260404D02*Y257404D01*
Y260404D02*X139975Y260904D01*
X138975Y258904D02*X138475Y259404D01*
X138975Y258904D02*X140475D01*
X138975Y260904D02*X139975D01*
X138975D02*X138475Y260404D01*
Y259404D01*
X197913Y247904D02*Y243904D01*
X199913D01*
X201114Y245904D02*X202614D01*
X201114Y243904D02*X203114D01*
X201114Y247904D02*Y243904D01*
Y247904D02*X203114D01*
X204815D02*Y243904D01*
X206315Y247904D02*X206815Y247404D01*
Y244404D01*
X206315Y243904D02*X206815Y244404D01*
X204315Y243904D02*X206315D01*
X204315Y247904D02*X206315D01*
X209516D02*X210016Y247404D01*
X208516Y247904D02*X209516D01*
X208016Y247404D02*X208516Y247904D01*
X208016Y247404D02*Y244404D01*
X208516Y243904D01*
X209516Y245904D02*X210016Y245404D01*
X208016Y245904D02*X209516D01*
X208516Y243904D02*X209516D01*
X210016Y244404D01*
Y245404D02*Y244404D01*
X198976Y226845D02*Y223845D01*
Y226845D02*X199476Y227345D01*
X200476D01*
X200976Y226845D01*
Y223845D01*
X200476Y223345D02*X200976Y223845D01*
X199476Y223345D02*X200476D01*
X198976Y223845D02*X199476Y223345D01*
X199976Y224345D02*X200976Y223345D01*
X202177Y226845D02*X202677Y227345D01*
X204177D01*
X204677Y226845D01*
Y225845D01*
X202177Y223345D02*X204677Y225845D01*
X202177Y223345D02*X204677D01*
X205878Y223845D02*X206378Y223345D01*
X205878Y226845D02*Y223845D01*
Y226845D02*X206378Y227345D01*
X207378D01*
X207878Y226845D01*
Y223845D01*
X207378Y223345D02*X207878Y223845D01*
X206378Y223345D02*X207378D01*
X205878Y224345D02*X207878Y226345D01*
X209079Y226845D02*X209579Y227345D01*
X211079D01*
X211579Y226845D01*
Y225845D01*
X209079Y223345D02*X211579Y225845D01*
X209079Y223345D02*X211579D01*
X316898Y201786D02*X318898D01*
X316898D02*X316398Y202286D01*
Y203286D02*Y202286D01*
X316898Y203786D02*X316398Y203286D01*
X316898Y203786D02*X318398D01*
Y205786D02*Y201786D01*
Y203786D02*X316398Y205786D01*
X313697Y203786D02*X315197D01*
X313197Y205786D02*X315197D01*
Y201786D01*
X313197D02*X315197D01*
X311996Y205786D02*Y201786D01*
X309996Y205786D02*X311996D01*
X308795D02*Y202286D01*
X308295Y201786D01*
X306795D02*X308295D01*
X306795D02*X306295Y202286D01*
Y205786D02*Y202286D01*
Y203786D02*X308795D01*
X305094Y202286D02*Y201786D01*
Y202286D02*X304094Y203286D01*
X303094Y202286D01*
Y201786D01*
X304094Y205786D02*Y203286D01*
X300393Y205786D02*X301393D01*
X300893D02*Y201786D01*
X301893Y202786D02*X300893Y201786D01*
X299192Y205786D02*X296692Y203286D01*
Y201786D01*
X299192D01*
X316898Y256904D02*X318898D01*
X316898D02*X316398Y257404D01*
Y258404D02*Y257404D01*
X316898Y258904D02*X316398Y258404D01*
X316898Y258904D02*X318398D01*
Y260904D02*Y256904D01*
Y258904D02*X316398Y260904D01*
X313697Y258904D02*X315197D01*
X313197Y260904D02*X315197D01*
Y256904D01*
X313197D02*X315197D01*
X311996Y260904D02*Y256904D01*
X309996Y260904D02*X311996D01*
X308795D02*Y257404D01*
X308295Y256904D01*
X306795D02*X308295D01*
X306795D02*X306295Y257404D01*
Y260904D02*Y257404D01*
Y258904D02*X308795D01*
X305094Y257404D02*Y256904D01*
Y257404D02*X304094Y258404D01*
X303094Y257404D01*
Y256904D01*
X304094Y260904D02*Y258404D01*
X300393Y260904D02*X301393D01*
X300893D02*Y256904D01*
X301893Y257904D02*X300893Y256904D01*
X297692D02*X297192Y257404D01*
X297692Y256904D02*X298692D01*
X299192Y257404D02*X298692Y256904D01*
X299192Y260404D02*Y257404D01*
Y260404D02*X298692Y260904D01*
X297692Y258904D02*X297192Y259404D01*
X297692Y258904D02*X299192D01*
X297692Y260904D02*X298692D01*
X297692D02*X297192Y260404D01*
Y259404D01*
X155480Y367141D02*X157480D01*
X155480D02*X154980Y367641D01*
Y368641D02*Y367641D01*
X155480Y369141D02*X154980Y368641D01*
X155480Y369141D02*X156980D01*
Y371141D02*Y367141D01*
Y369141D02*X154980Y371141D01*
X152279Y369141D02*X153779D01*
X151779Y371141D02*X153779D01*
Y367141D01*
X151779D02*X153779D01*
X150578Y371141D02*Y367141D01*
X148578Y371141D02*X150578D01*
X147377D02*Y367641D01*
X146877Y367141D01*
X145377D02*X146877D01*
X145377D02*X144877Y367641D01*
Y371141D02*Y367641D01*
Y369141D02*X147377D01*
X143676Y367641D02*Y367141D01*
Y367641D02*X142676Y368641D01*
X141676Y367641D01*
Y367141D01*
X142676Y371141D02*Y368641D01*
X140475Y369141D02*X138475Y367141D01*
X137975Y369141D02*X140475D01*
X138475Y371141D02*Y367141D01*
X155480Y422259D02*X157480D01*
X155480D02*X154980Y422759D01*
Y423759D02*Y422759D01*
X155480Y424259D02*X154980Y423759D01*
X155480Y424259D02*X156980D01*
Y426259D02*Y422259D01*
Y424259D02*X154980Y426259D01*
X152279Y424259D02*X153779D01*
X151779Y426259D02*X153779D01*
Y422259D01*
X151779D02*X153779D01*
X150578Y426259D02*Y422259D01*
X148578Y426259D02*X150578D01*
X147377D02*Y422759D01*
X146877Y422259D01*
X145377D02*X146877D01*
X145377D02*X144877Y422759D01*
Y426259D02*Y422759D01*
Y424259D02*X147377D01*
X143676Y422759D02*Y422259D01*
Y422759D02*X142676Y423759D01*
X141676Y422759D01*
Y422259D01*
X142676Y426259D02*Y423759D01*
X140475Y422759D02*X139975Y422259D01*
X138975D02*X139975D01*
X138975D02*X138475Y422759D01*
Y425759D02*Y422759D01*
X138975Y426259D02*X138475Y425759D01*
X138975Y426259D02*X139975D01*
X140475Y425759D02*X139975Y426259D01*
X138475Y424259D02*X139975D01*
X360394Y413259D02*Y409259D01*
X362394D01*
X363595Y411259D02*X365095D01*
X363595Y409259D02*X365595D01*
X363595Y413259D02*Y409259D01*
Y413259D02*X365595D01*
X367296D02*Y409259D01*
X368796Y413259D02*X369296Y412759D01*
Y409759D01*
X368796Y409259D02*X369296Y409759D01*
X366796Y409259D02*X368796D01*
X366796Y413259D02*X368796D01*
X370997Y409259D02*X371997D01*
X371497Y413259D02*Y409259D01*
X370497Y412259D02*X371497Y413259D01*
X373198Y412759D02*X373698Y413259D01*
X374698D01*
X375198Y412759D01*
Y409759D01*
X374698Y409259D02*X375198Y409759D01*
X373698Y409259D02*X374698D01*
X373198Y409759D02*X373698Y409259D01*
Y411259D02*X375198D01*
X360394Y392200D02*Y389200D01*
Y392200D02*X360894Y392700D01*
X361894D01*
X362394Y392200D01*
Y389200D01*
X361894Y388700D02*X362394Y389200D01*
X360894Y388700D02*X361894D01*
X360394Y389200D02*X360894Y388700D01*
X361394Y389700D02*X362394Y388700D01*
X363595Y392200D02*X364095Y392700D01*
X365595D01*
X366095Y392200D01*
Y391200D01*
X363595Y388700D02*X366095Y391200D01*
X363595Y388700D02*X366095D01*
X367796D02*X368796D01*
X368296Y392700D02*Y388700D01*
X367296Y391700D02*X368296Y392700D01*
X370497Y388700D02*X371497D01*
X370997Y392700D02*Y388700D01*
X369997Y391700D02*X370997Y392700D01*
X360394Y358141D02*Y354141D01*
X362394D01*
X363595Y356141D02*X365095D01*
X363595Y354141D02*X365595D01*
X363595Y358141D02*Y354141D01*
Y358141D02*X365595D01*
X367296D02*Y354141D01*
X368796Y358141D02*X369296Y357641D01*
Y354641D01*
X368796Y354141D02*X369296Y354641D01*
X366796Y354141D02*X368796D01*
X366796Y358141D02*X368796D01*
X370997Y354141D02*X371997D01*
X371497Y358141D02*Y354141D01*
X370497Y357141D02*X371497Y358141D01*
X373198Y356141D02*X375198Y358141D01*
X373198Y356141D02*X375698D01*
X375198Y358141D02*Y354141D01*
X360394Y337081D02*Y334081D01*
Y337081D02*X360894Y337581D01*
X361894D01*
X362394Y337081D01*
Y334081D01*
X361894Y333581D02*X362394Y334081D01*
X360894Y333581D02*X361894D01*
X360394Y334081D02*X360894Y333581D01*
X361394Y334581D02*X362394Y333581D01*
X363595Y337081D02*X364095Y337581D01*
X365595D01*
X366095Y337081D01*
Y336081D01*
X363595Y333581D02*X366095Y336081D01*
X363595Y333581D02*X366095D01*
X367796D02*X368796D01*
X368296Y337581D02*Y333581D01*
X367296Y336581D02*X368296Y337581D01*
X369997Y337081D02*X370497Y337581D01*
X371997D01*
X372497Y337081D01*
Y336081D01*
X369997Y333581D02*X372497Y336081D01*
X369997Y333581D02*X372497D01*
X198976Y468377D02*Y464377D01*
X200976D01*
X202177Y466377D02*X203677D01*
X202177Y464377D02*X204177D01*
X202177Y468377D02*Y464377D01*
Y468377D02*X204177D01*
X205878D02*Y464377D01*
X207378Y468377D02*X207878Y467877D01*
Y464877D01*
X207378Y464377D02*X207878Y464877D01*
X205378Y464377D02*X207378D01*
X205378Y468377D02*X207378D01*
X209079Y467877D02*X209579Y468377D01*
X211079D01*
X211579Y467877D01*
Y466877D01*
X209079Y464377D02*X211579Y466877D01*
X209079Y464377D02*X211579D01*
X198976Y413259D02*Y409259D01*
X200976D01*
X202177Y411259D02*X203677D01*
X202177Y409259D02*X204177D01*
X202177Y413259D02*Y409259D01*
Y413259D02*X204177D01*
X205878D02*Y409259D01*
X207378Y413259D02*X207878Y412759D01*
Y409759D01*
X207378Y409259D02*X207878Y409759D01*
X205378Y409259D02*X207378D01*
X205378Y413259D02*X207378D01*
X209079Y412759D02*X209579Y413259D01*
X210579D01*
X211079Y412759D01*
Y409759D01*
X210579Y409259D02*X211079Y409759D01*
X209579Y409259D02*X210579D01*
X209079Y409759D02*X209579Y409259D01*
Y411259D02*X211079D01*
X198976Y358141D02*Y354141D01*
X200976D01*
X202177Y356141D02*X203677D01*
X202177Y354141D02*X204177D01*
X202177Y358141D02*Y354141D01*
Y358141D02*X204177D01*
X205878D02*Y354141D01*
X207378Y358141D02*X207878Y357641D01*
Y354641D01*
X207378Y354141D02*X207878Y354641D01*
X205378Y354141D02*X207378D01*
X205378Y358141D02*X207378D01*
X209079Y356141D02*X211079Y358141D01*
X209079Y356141D02*X211579D01*
X211079Y358141D02*Y354141D01*
X198976Y447318D02*Y444318D01*
Y447318D02*X199476Y447818D01*
X200476D01*
X200976Y447318D01*
Y444318D01*
X200476Y443818D02*X200976Y444318D01*
X199476Y443818D02*X200476D01*
X198976Y444318D02*X199476Y443818D01*
X199976Y444818D02*X200976Y443818D01*
X202177Y447318D02*X202677Y447818D01*
X204177D01*
X204677Y447318D01*
Y446318D01*
X202177Y443818D02*X204677Y446318D01*
X202177Y443818D02*X204677D01*
X205878Y447318D02*X206378Y447818D01*
X207878D01*
X208378Y447318D01*
Y446318D01*
X205878Y443818D02*X208378Y446318D01*
X205878Y443818D02*X208378D01*
X210079D02*X211079D01*
X210579Y447818D02*Y443818D01*
X209579Y446818D02*X210579Y447818D01*
X360394Y303022D02*Y299022D01*
X362394D01*
X363595Y301022D02*X365095D01*
X363595Y299022D02*X365595D01*
X363595Y303022D02*Y299022D01*
Y303022D02*X365595D01*
X367296D02*Y299022D01*
X368796Y303022D02*X369296Y302522D01*
Y299522D01*
X368796Y299022D02*X369296Y299522D01*
X366796Y299022D02*X368796D01*
X366796Y303022D02*X368796D01*
X370997Y299022D02*X371997D01*
X371497Y303022D02*Y299022D01*
X370497Y302022D02*X371497Y303022D01*
X373198D02*X375198D01*
X373198D02*Y301022D01*
X373698Y301522D01*
X374698D01*
X375198Y301022D01*
Y299522D01*
X374698Y299022D02*X375198Y299522D01*
X373698Y299022D02*X374698D01*
X373198Y299522D02*X373698Y299022D01*
X360394Y281963D02*Y278963D01*
Y281963D02*X360894Y282463D01*
X361894D01*
X362394Y281963D01*
Y278963D01*
X361894Y278463D02*X362394Y278963D01*
X360894Y278463D02*X361894D01*
X360394Y278963D02*X360894Y278463D01*
X361394Y279463D02*X362394Y278463D01*
X363595Y281963D02*X364095Y282463D01*
X365595D01*
X366095Y281963D01*
Y280963D01*
X363595Y278463D02*X366095Y280963D01*
X363595Y278463D02*X366095D01*
X367796D02*X368796D01*
X368296Y282463D02*Y278463D01*
X367296Y281463D02*X368296Y282463D01*
X369997Y281963D02*X370497Y282463D01*
X371497D01*
X371997Y281963D01*
Y278963D01*
X371497Y278463D02*X371997Y278963D01*
X370497Y278463D02*X371497D01*
X369997Y278963D02*X370497Y278463D01*
Y280463D02*X371997D01*
X360394Y137668D02*Y133668D01*
X362394D01*
X363595Y135668D02*X365095D01*
X363595Y133668D02*X365595D01*
X363595Y137668D02*Y133668D01*
Y137668D02*X365595D01*
X367296D02*Y133668D01*
X368796Y137668D02*X369296Y137168D01*
Y134168D01*
X368796Y133668D02*X369296Y134168D01*
X366796Y133668D02*X368796D01*
X366796Y137668D02*X368796D01*
X370997Y133668D02*X371997D01*
X371497Y137668D02*Y133668D01*
X370497Y136668D02*X371497Y137668D01*
X373198Y134168D02*X373698Y133668D01*
X373198Y135168D02*Y134168D01*
Y135168D02*X373698Y135668D01*
X374698D01*
X375198Y135168D01*
Y134168D01*
X374698Y133668D02*X375198Y134168D01*
X373698Y133668D02*X374698D01*
X373198Y136168D02*X373698Y135668D01*
X373198Y137168D02*Y136168D01*
Y137168D02*X373698Y137668D01*
X374698D01*
X375198Y137168D01*
Y136168D01*
X374698Y135668D02*X375198Y136168D01*
X360394Y82550D02*Y78550D01*
X362394D01*
X363595Y80550D02*X365095D01*
X363595Y78550D02*X365595D01*
X363595Y82550D02*Y78550D01*
Y82550D02*X365595D01*
X367296D02*Y78550D01*
X368796Y82550D02*X369296Y82050D01*
Y79050D01*
X368796Y78550D02*X369296Y79050D01*
X366796Y78550D02*X368796D01*
X366796Y82550D02*X368796D01*
X370997Y78550D02*X371997D01*
X371497Y82550D02*Y78550D01*
X370497Y81550D02*X371497Y82550D01*
X373198Y78550D02*X375198Y80550D01*
Y82050D02*Y80550D01*
X374698Y82550D02*X375198Y82050D01*
X373698Y82550D02*X374698D01*
X373198Y82050D02*X373698Y82550D01*
X373198Y82050D02*Y81050D01*
X373698Y80550D01*
X375198D01*
X360394Y61491D02*Y58491D01*
Y61491D02*X360894Y61991D01*
X361894D01*
X362394Y61491D01*
Y58491D01*
X361894Y57991D02*X362394Y58491D01*
X360894Y57991D02*X361894D01*
X360394Y58491D02*X360894Y57991D01*
X361394Y58991D02*X362394Y57991D01*
X363595Y61491D02*X364095Y61991D01*
X365595D01*
X366095Y61491D01*
Y60491D01*
X363595Y57991D02*X366095Y60491D01*
X363595Y57991D02*X366095D01*
X367796D02*X368796D01*
X368296Y61991D02*Y57991D01*
X367296Y60991D02*X368296Y61991D01*
X369997Y57991D02*X372497Y60491D01*
Y61991D02*Y60491D01*
X369997Y61991D02*X372497D01*
X360394Y27432D02*Y23432D01*
X362394D01*
X363595Y25432D02*X365095D01*
X363595Y23432D02*X365595D01*
X363595Y27432D02*Y23432D01*
Y27432D02*X365595D01*
X367296D02*Y23432D01*
X368796Y27432D02*X369296Y26932D01*
Y23932D01*
X368796Y23432D02*X369296Y23932D01*
X366796Y23432D02*X368796D01*
X366796Y27432D02*X368796D01*
X370497Y26932D02*X370997Y27432D01*
X372497D01*
X372997Y26932D01*
Y25932D01*
X370497Y23432D02*X372997Y25932D01*
X370497Y23432D02*X372997D01*
X374198Y23932D02*X374698Y23432D01*
X374198Y26932D02*Y23932D01*
Y26932D02*X374698Y27432D01*
X375698D01*
X376198Y26932D01*
Y23932D01*
X375698Y23432D02*X376198Y23932D01*
X374698Y23432D02*X375698D01*
X374198Y24432D02*X376198Y26432D01*
X360394Y116609D02*Y113609D01*
Y116609D02*X360894Y117109D01*
X361894D01*
X362394Y116609D01*
Y113609D01*
X361894Y113109D02*X362394Y113609D01*
X360894Y113109D02*X361894D01*
X360394Y113609D02*X360894Y113109D01*
X361394Y114109D02*X362394Y113109D01*
X363595Y116609D02*X364095Y117109D01*
X365595D01*
X366095Y116609D01*
Y115609D01*
X363595Y113109D02*X366095Y115609D01*
X363595Y113109D02*X366095D01*
X367796D02*X368796D01*
X368296Y117109D02*Y113109D01*
X367296Y116109D02*X368296Y117109D01*
X371497D02*X371997Y116609D01*
X370497Y117109D02*X371497D01*
X369997Y116609D02*X370497Y117109D01*
X369997Y116609D02*Y113609D01*
X370497Y113109D01*
X371497Y115109D02*X371997Y114609D01*
X369997Y115109D02*X371497D01*
X370497Y113109D02*X371497D01*
X371997Y113609D01*
Y114609D02*Y113609D01*
X316898Y36432D02*X318898D01*
X316898D02*X316398Y36932D01*
Y37932D02*Y36932D01*
X316898Y38432D02*X316398Y37932D01*
X316898Y38432D02*X318398D01*
Y40432D02*Y36432D01*
Y38432D02*X316398Y40432D01*
X313697Y38432D02*X315197D01*
X313197Y40432D02*X315197D01*
Y36432D01*
X313197D02*X315197D01*
X311996Y40432D02*Y36432D01*
X309996Y40432D02*X311996D01*
X308795D02*Y36932D01*
X308295Y36432D01*
X306795D02*X308295D01*
X306795D02*X306295Y36932D01*
Y40432D02*Y36932D01*
Y38432D02*X308795D01*
X305094Y36932D02*Y36432D01*
Y36932D02*X304094Y37932D01*
X303094Y36932D01*
Y36432D01*
X304094Y40432D02*Y37932D01*
X301893Y36932D02*X301393Y36432D01*
X299893D02*X301393D01*
X299893D02*X299393Y36932D01*
Y37932D02*Y36932D01*
X301893Y40432D02*X299393Y37932D01*
Y40432D02*X301893D01*
X298192Y39932D02*X297692Y40432D01*
X298192Y39932D02*Y36932D01*
X297692Y36432D01*
X296692D02*X297692D01*
X296692D02*X296192Y36932D01*
Y39932D02*Y36932D01*
X296692Y40432D02*X296192Y39932D01*
X296692Y40432D02*X297692D01*
X298192Y39432D02*X296192Y37432D01*
X316898Y91550D02*X318898D01*
X316898D02*X316398Y92050D01*
Y93050D02*Y92050D01*
X316898Y93550D02*X316398Y93050D01*
X316898Y93550D02*X318398D01*
Y95550D02*Y91550D01*
Y93550D02*X316398Y95550D01*
X313697Y93550D02*X315197D01*
X313197Y95550D02*X315197D01*
Y91550D01*
X313197D02*X315197D01*
X311996Y95550D02*Y91550D01*
X309996Y95550D02*X311996D01*
X308795D02*Y92050D01*
X308295Y91550D01*
X306795D02*X308295D01*
X306795D02*X306295Y92050D01*
Y95550D02*Y92050D01*
Y93550D02*X308795D01*
X305094Y92050D02*Y91550D01*
Y92050D02*X304094Y93050D01*
X303094Y92050D01*
Y91550D01*
X304094Y95550D02*Y93050D01*
X300393Y95550D02*X301393D01*
X300893D02*Y91550D01*
X301893Y92550D02*X300893Y91550D01*
X299192Y95550D02*X297192Y93550D01*
Y92050D01*
X297692Y91550D02*X297192Y92050D01*
X297692Y91550D02*X298692D01*
X299192Y92050D02*X298692Y91550D01*
X299192Y93050D02*Y92050D01*
Y93050D02*X298692Y93550D01*
X297192D02*X298692D01*
X316898Y146668D02*X318898D01*
X316898D02*X316398Y147168D01*
Y148168D02*Y147168D01*
X316898Y148668D02*X316398Y148168D01*
X316898Y148668D02*X318398D01*
Y150668D02*Y146668D01*
Y148668D02*X316398Y150668D01*
X313697Y148668D02*X315197D01*
X313197Y150668D02*X315197D01*
Y146668D01*
X313197D02*X315197D01*
X311996Y150668D02*Y146668D01*
X309996Y150668D02*X311996D01*
X308795D02*Y147168D01*
X308295Y146668D01*
X306795D02*X308295D01*
X306795D02*X306295Y147168D01*
Y150668D02*Y147168D01*
Y148668D02*X308795D01*
X305094Y147168D02*Y146668D01*
Y147168D02*X304094Y148168D01*
X303094Y147168D01*
Y146668D01*
X304094Y150668D02*Y148168D01*
X300393Y150668D02*X301393D01*
X300893D02*Y146668D01*
X301893Y147668D02*X300893Y146668D01*
X299192Y150168D02*X298692Y150668D01*
X299192Y150168D02*Y149168D01*
X298692Y148668D01*
X297692D02*X298692D01*
X297692D02*X297192Y149168D01*
Y150168D02*Y149168D01*
X297692Y150668D02*X297192Y150168D01*
X297692Y150668D02*X298692D01*
X299192Y148168D02*X298692Y148668D01*
X299192Y148168D02*Y147168D01*
X298692Y146668D01*
X297692D02*X298692D01*
X297692D02*X297192Y147168D01*
Y148168D02*Y147168D01*
X297692Y148668D02*X297192Y148168D01*
X517874Y226845D02*Y223845D01*
Y226845D02*X518374Y227345D01*
X519374D01*
X519874Y226845D01*
Y223845D01*
X519374Y223345D02*X519874Y223845D01*
X518374Y223345D02*X519374D01*
X517874Y223845D02*X518374Y223345D01*
X518874Y224345D02*X519874Y223345D01*
X521075Y226845D02*X521575Y227345D01*
X523075D01*
X523575Y226845D01*
Y225845D01*
X521075Y223345D02*X523575Y225845D01*
X521075Y223345D02*X523575D01*
X524776Y226845D02*X525276Y227345D01*
X526776D01*
X527276Y226845D01*
Y225845D01*
X524776Y223345D02*X527276Y225845D01*
X524776Y223345D02*X527276D01*
X528477D02*X530977Y225845D01*
Y227345D02*Y225845D01*
X528477Y227345D02*X530977D01*
X517874Y116609D02*Y113609D01*
Y116609D02*X518374Y117109D01*
X519374D01*
X519874Y116609D01*
Y113609D01*
X519374Y113109D02*X519874Y113609D01*
X518374Y113109D02*X519374D01*
X517874Y113609D02*X518374Y113109D01*
X518874Y114109D02*X519874Y113109D01*
X521075Y116609D02*X521575Y117109D01*
X523075D01*
X523575Y116609D01*
Y115609D01*
X521075Y113109D02*X523575Y115609D01*
X521075Y113109D02*X523575D01*
X524776Y113609D02*X525276Y113109D01*
X524776Y116609D02*Y113609D01*
Y116609D02*X525276Y117109D01*
X526276D01*
X526776Y116609D01*
Y113609D01*
X526276Y113109D02*X526776Y113609D01*
X525276Y113109D02*X526276D01*
X524776Y114109D02*X526776Y116109D01*
X527977Y113109D02*X530477Y115609D01*
Y117109D02*Y115609D01*
X527977Y117109D02*X530477D01*
X517874Y171727D02*Y168727D01*
Y171727D02*X518374Y172227D01*
X519374D01*
X519874Y171727D01*
Y168727D01*
X519374Y168227D02*X519874Y168727D01*
X518374Y168227D02*X519374D01*
X517874Y168727D02*X518374Y168227D01*
X518874Y169227D02*X519874Y168227D01*
X521075Y171727D02*X521575Y172227D01*
X523075D01*
X523575Y171727D01*
Y170727D01*
X521075Y168227D02*X523575Y170727D01*
X521075Y168227D02*X523575D01*
X524776Y171727D02*X525276Y172227D01*
X526276D01*
X526776Y171727D01*
Y168727D01*
X526276Y168227D02*X526776Y168727D01*
X525276Y168227D02*X526276D01*
X524776Y168727D02*X525276Y168227D01*
Y170227D02*X526776D01*
X527977Y168727D02*X528477Y168227D01*
X527977Y171727D02*Y168727D01*
Y171727D02*X528477Y172227D01*
X529477D01*
X529977Y171727D01*
Y168727D01*
X529477Y168227D02*X529977Y168727D01*
X528477Y168227D02*X529477D01*
X527977Y169227D02*X529977Y171227D01*
X478316Y146668D02*X480316D01*
X478316D02*X477816Y147168D01*
Y148168D02*Y147168D01*
X478316Y148668D02*X477816Y148168D01*
X478316Y148668D02*X479816D01*
Y150668D02*Y146668D01*
Y148668D02*X477816Y150668D01*
X475115Y148668D02*X476615D01*
X474615Y150668D02*X476615D01*
Y146668D01*
X474615D02*X476615D01*
X473414Y150668D02*Y146668D01*
X471414Y150668D02*X473414D01*
X470213D02*Y147168D01*
X469713Y146668D01*
X468213D02*X469713D01*
X468213D02*X467713Y147168D01*
Y150668D02*Y147168D01*
Y148668D02*X470213D01*
X466512Y147168D02*Y146668D01*
Y147168D02*X465512Y148168D01*
X464512Y147168D01*
Y146668D01*
X465512Y150668D02*Y148168D01*
X463311Y147168D02*X462811Y146668D01*
X461311D02*X462811D01*
X461311D02*X460811Y147168D01*
Y148168D02*Y147168D01*
X463311Y150668D02*X460811Y148168D01*
Y150668D02*X463311D01*
X459610Y150168D02*X459110Y150668D01*
X459610Y150168D02*Y149168D01*
X459110Y148668D01*
X458110D02*X459110D01*
X458110D02*X457610Y149168D01*
Y150168D02*Y149168D01*
X458110Y150668D02*X457610Y150168D01*
X458110Y150668D02*X459110D01*
X459610Y148168D02*X459110Y148668D01*
X459610Y148168D02*Y147168D01*
X459110Y146668D01*
X458110D02*X459110D01*
X458110D02*X457610Y147168D01*
Y148168D02*Y147168D01*
X458110Y148668D02*X457610Y148168D01*
X478316Y36432D02*X480316D01*
X478316D02*X477816Y36932D01*
Y37932D02*Y36932D01*
X478316Y38432D02*X477816Y37932D01*
X478316Y38432D02*X479816D01*
Y40432D02*Y36432D01*
Y38432D02*X477816Y40432D01*
X475115Y38432D02*X476615D01*
X474615Y40432D02*X476615D01*
Y36432D01*
X474615D02*X476615D01*
X473414Y40432D02*Y36432D01*
X471414Y40432D02*X473414D01*
X470213D02*Y36932D01*
X469713Y36432D01*
X468213D02*X469713D01*
X468213D02*X467713Y36932D01*
Y40432D02*Y36932D01*
Y38432D02*X470213D01*
X466512Y36932D02*Y36432D01*
Y36932D02*X465512Y37932D01*
X464512Y36932D01*
Y36432D01*
X465512Y40432D02*Y37932D01*
X463311Y36932D02*X462811Y36432D01*
X461811D02*X462811D01*
X461811D02*X461311Y36932D01*
Y39932D02*Y36932D01*
X461811Y40432D02*X461311Y39932D01*
X461811Y40432D02*X462811D01*
X463311Y39932D02*X462811Y40432D01*
X461311Y38432D02*X462811D01*
X460110Y39932D02*X459610Y40432D01*
X460110Y39932D02*Y36932D01*
X459610Y36432D01*
X458610D02*X459610D01*
X458610D02*X458110Y36932D01*
Y39932D02*Y36932D01*
X458610Y40432D02*X458110Y39932D01*
X458610Y40432D02*X459610D01*
X460110Y39432D02*X458110Y37432D01*
X478316Y91550D02*X480316D01*
X478316D02*X477816Y92050D01*
Y93050D02*Y92050D01*
X478316Y93550D02*X477816Y93050D01*
X478316Y93550D02*X479816D01*
Y95550D02*Y91550D01*
Y93550D02*X477816Y95550D01*
X475115Y93550D02*X476615D01*
X474615Y95550D02*X476615D01*
Y91550D01*
X474615D02*X476615D01*
X473414Y95550D02*Y91550D01*
X471414Y95550D02*X473414D01*
X470213D02*Y92050D01*
X469713Y91550D01*
X468213D02*X469713D01*
X468213D02*X467713Y92050D01*
Y95550D02*Y92050D01*
Y93550D02*X470213D01*
X466512Y92050D02*Y91550D01*
Y92050D02*X465512Y93050D01*
X464512Y92050D01*
Y91550D01*
X465512Y95550D02*Y93050D01*
X463311Y92050D02*X462811Y91550D01*
X461311D02*X462811D01*
X461311D02*X460811Y92050D01*
Y93050D02*Y92050D01*
X463311Y95550D02*X460811Y93050D01*
Y95550D02*X463311D01*
X459610D02*X457610Y93550D01*
Y92050D01*
X458110Y91550D02*X457610Y92050D01*
X458110Y91550D02*X459110D01*
X459610Y92050D02*X459110Y91550D01*
X459610Y93050D02*Y92050D01*
Y93050D02*X459110Y93550D01*
X457610D02*X459110D01*
X360394Y226845D02*Y223845D01*
Y226845D02*X360894Y227345D01*
X361894D01*
X362394Y226845D01*
Y223845D01*
X361894Y223345D02*X362394Y223845D01*
X360894Y223345D02*X361894D01*
X360394Y223845D02*X360894Y223345D01*
X361394Y224345D02*X362394Y223345D01*
X363595Y226845D02*X364095Y227345D01*
X365595D01*
X366095Y226845D01*
Y225845D01*
X363595Y223345D02*X366095Y225845D01*
X363595Y223345D02*X366095D01*
X367796D02*X368796D01*
X368296Y227345D02*Y223345D01*
X367296Y226345D02*X368296Y227345D01*
X369997Y225345D02*X371997Y227345D01*
X369997Y225345D02*X372497D01*
X371997Y227345D02*Y223345D01*
X360394Y247904D02*Y243904D01*
X362394D01*
X363595Y245904D02*X365095D01*
X363595Y243904D02*X365595D01*
X363595Y247904D02*Y243904D01*
Y247904D02*X365595D01*
X367296D02*Y243904D01*
X368796Y247904D02*X369296Y247404D01*
Y244404D01*
X368796Y243904D02*X369296Y244404D01*
X366796Y243904D02*X368796D01*
X366796Y247904D02*X368796D01*
X370997Y243904D02*X371997D01*
X371497Y247904D02*Y243904D01*
X370497Y246904D02*X371497Y247904D01*
X374698D02*X375198Y247404D01*
X373698Y247904D02*X374698D01*
X373198Y247404D02*X373698Y247904D01*
X373198Y247404D02*Y244404D01*
X373698Y243904D01*
X374698Y245904D02*X375198Y245404D01*
X373198Y245904D02*X374698D01*
X373698Y243904D02*X374698D01*
X375198Y244404D01*
Y245404D02*Y244404D01*
X360394Y192786D02*Y188786D01*
X362394D01*
X363595Y190786D02*X365095D01*
X363595Y188786D02*X365595D01*
X363595Y192786D02*Y188786D01*
Y192786D02*X365595D01*
X367296D02*Y188786D01*
X368796Y192786D02*X369296Y192286D01*
Y189286D01*
X368796Y188786D02*X369296Y189286D01*
X366796Y188786D02*X368796D01*
X366796Y192786D02*X368796D01*
X370997Y188786D02*X371997D01*
X371497Y192786D02*Y188786D01*
X370497Y191786D02*X371497Y192786D01*
X373198Y188786D02*X375698Y191286D01*
Y192786D02*Y191286D01*
X373198Y192786D02*X375698D01*
X478316Y201786D02*X480316D01*
X478316D02*X477816Y202286D01*
Y203286D02*Y202286D01*
X478316Y203786D02*X477816Y203286D01*
X478316Y203786D02*X479816D01*
Y205786D02*Y201786D01*
Y203786D02*X477816Y205786D01*
X475115Y203786D02*X476615D01*
X474615Y205786D02*X476615D01*
Y201786D01*
X474615D02*X476615D01*
X473414Y205786D02*Y201786D01*
X471414Y205786D02*X473414D01*
X470213D02*Y202286D01*
X469713Y201786D01*
X468213D02*X469713D01*
X468213D02*X467713Y202286D01*
Y205786D02*Y202286D01*
Y203786D02*X470213D01*
X466512Y202286D02*Y201786D01*
Y202286D02*X465512Y203286D01*
X464512Y202286D01*
Y201786D01*
X465512Y205786D02*Y203286D01*
X463311Y202286D02*X462811Y201786D01*
X461311D02*X462811D01*
X461311D02*X460811Y202286D01*
Y203286D02*Y202286D01*
X463311Y205786D02*X460811Y203286D01*
Y205786D02*X463311D01*
X459610D02*X457110Y203286D01*
Y201786D01*
X459610D01*
X478316Y256904D02*X480316D01*
X478316D02*X477816Y257404D01*
Y258404D02*Y257404D01*
X478316Y258904D02*X477816Y258404D01*
X478316Y258904D02*X479816D01*
Y260904D02*Y256904D01*
Y258904D02*X477816Y260904D01*
X475115Y258904D02*X476615D01*
X474615Y260904D02*X476615D01*
Y256904D01*
X474615D02*X476615D01*
X473414Y260904D02*Y256904D01*
X471414Y260904D02*X473414D01*
X470213D02*Y257404D01*
X469713Y256904D01*
X468213D02*X469713D01*
X468213D02*X467713Y257404D01*
Y260904D02*Y257404D01*
Y258904D02*X470213D01*
X466512Y257404D02*Y256904D01*
Y257404D02*X465512Y258404D01*
X464512Y257404D01*
Y256904D01*
X465512Y260904D02*Y258404D01*
X463311Y257404D02*X462811Y256904D01*
X461311D02*X462811D01*
X461311D02*X460811Y257404D01*
Y258404D02*Y257404D01*
X463311Y260904D02*X460811Y258404D01*
Y260904D02*X463311D01*
X458110Y256904D02*X457610Y257404D01*
X458110Y256904D02*X459110D01*
X459610Y257404D02*X459110Y256904D01*
X459610Y260404D02*Y257404D01*
Y260404D02*X459110Y260904D01*
X458110Y258904D02*X457610Y259404D01*
X458110Y258904D02*X459610D01*
X458110Y260904D02*X459110D01*
X458110D02*X457610Y260404D01*
Y259404D01*
X360394Y171727D02*Y168727D01*
Y171727D02*X360894Y172227D01*
X361894D01*
X362394Y171727D01*
Y168727D01*
X361894Y168227D02*X362394Y168727D01*
X360894Y168227D02*X361894D01*
X360394Y168727D02*X360894Y168227D01*
X361394Y169227D02*X362394Y168227D01*
X363595Y171727D02*X364095Y172227D01*
X365595D01*
X366095Y171727D01*
Y170727D01*
X363595Y168227D02*X366095Y170727D01*
X363595Y168227D02*X366095D01*
X367796D02*X368796D01*
X368296Y172227D02*Y168227D01*
X367296Y171227D02*X368296Y172227D01*
X369997D02*X371997D01*
X369997D02*Y170227D01*
X370497Y170727D01*
X371497D01*
X371997Y170227D01*
Y168727D01*
X371497Y168227D02*X371997Y168727D01*
X370497Y168227D02*X371497D01*
X369997Y168727D02*X370497Y168227D01*
X198976Y82550D02*Y78550D01*
X200976D01*
X202177Y80550D02*X203677D01*
X202177Y78550D02*X204177D01*
X202177Y82550D02*Y78550D01*
Y82550D02*X204177D01*
X205878D02*Y78550D01*
X207378Y82550D02*X207878Y82050D01*
Y79050D01*
X207378Y78550D02*X207878Y79050D01*
X205378Y78550D02*X207378D01*
X205378Y82550D02*X207378D01*
X209079Y78550D02*X211079Y80550D01*
Y82050D02*Y80550D01*
X210579Y82550D02*X211079Y82050D01*
X209579Y82550D02*X210579D01*
X209079Y82050D02*X209579Y82550D01*
X209079Y82050D02*Y81050D01*
X209579Y80550D01*
X211079D01*
X198976Y137668D02*Y133668D01*
X200976D01*
X202177Y135668D02*X203677D01*
X202177Y133668D02*X204177D01*
X202177Y137668D02*Y133668D01*
Y137668D02*X204177D01*
X205878D02*Y133668D01*
X207378Y137668D02*X207878Y137168D01*
Y134168D01*
X207378Y133668D02*X207878Y134168D01*
X205378Y133668D02*X207378D01*
X205378Y137668D02*X207378D01*
X209079Y134168D02*X209579Y133668D01*
X209079Y135168D02*Y134168D01*
Y135168D02*X209579Y135668D01*
X210579D01*
X211079Y135168D01*
Y134168D01*
X210579Y133668D02*X211079Y134168D01*
X209579Y133668D02*X210579D01*
X209079Y136168D02*X209579Y135668D01*
X209079Y137168D02*Y136168D01*
Y137168D02*X209579Y137668D01*
X210579D01*
X211079Y137168D01*
Y136168D01*
X210579Y135668D02*X211079Y136168D01*
X155480Y146668D02*X157480D01*
X155480D02*X154980Y147168D01*
Y148168D02*Y147168D01*
X155480Y148668D02*X154980Y148168D01*
X155480Y148668D02*X156980D01*
Y150668D02*Y146668D01*
Y148668D02*X154980Y150668D01*
X152279Y148668D02*X153779D01*
X151779Y150668D02*X153779D01*
Y146668D01*
X151779D02*X153779D01*
X150578Y150668D02*Y146668D01*
X148578Y150668D02*X150578D01*
X147377D02*Y147168D01*
X146877Y146668D01*
X145377D02*X146877D01*
X145377D02*X144877Y147168D01*
Y150668D02*Y147168D01*
Y148668D02*X147377D01*
X143676Y147168D02*Y146668D01*
Y147168D02*X142676Y148168D01*
X141676Y147168D01*
Y146668D01*
X142676Y150668D02*Y148168D01*
X140475Y150168D02*X139975Y150668D01*
X140475Y150168D02*Y149168D01*
X139975Y148668D01*
X138975D02*X139975D01*
X138975D02*X138475Y149168D01*
Y150168D02*Y149168D01*
X138975Y150668D02*X138475Y150168D01*
X138975Y150668D02*X139975D01*
X140475Y148168D02*X139975Y148668D01*
X140475Y148168D02*Y147168D01*
X139975Y146668D01*
X138975D02*X139975D01*
X138975D02*X138475Y147168D01*
Y148168D02*Y147168D01*
X138975Y148668D02*X138475Y148168D01*
X198976Y116609D02*Y113609D01*
Y116609D02*X199476Y117109D01*
X200476D01*
X200976Y116609D01*
Y113609D01*
X200476Y113109D02*X200976Y113609D01*
X199476Y113109D02*X200476D01*
X198976Y113609D02*X199476Y113109D01*
X199976Y114109D02*X200976Y113109D01*
X202177Y116609D02*X202677Y117109D01*
X204177D01*
X204677Y116609D01*
Y115609D01*
X202177Y113109D02*X204677Y115609D01*
X202177Y113109D02*X204677D01*
X205878Y113609D02*X206378Y113109D01*
X205878Y116609D02*Y113609D01*
Y116609D02*X206378Y117109D01*
X207378D01*
X207878Y116609D01*
Y113609D01*
X207378Y113109D02*X207878Y113609D01*
X206378Y113109D02*X207378D01*
X205878Y114109D02*X207878Y116109D01*
X209079Y115109D02*X211079Y117109D01*
X209079Y115109D02*X211579D01*
X211079Y117109D02*Y113109D01*
X198976Y27432D02*Y23432D01*
X200976D01*
X202177Y25432D02*X203677D01*
X202177Y23432D02*X204177D01*
X202177Y27432D02*Y23432D01*
Y27432D02*X204177D01*
X205878D02*Y23432D01*
X207378Y27432D02*X207878Y26932D01*
Y23932D01*
X207378Y23432D02*X207878Y23932D01*
X205378Y23432D02*X207378D01*
X205378Y27432D02*X207378D01*
X209579Y23432D02*X210579D01*
X210079Y27432D02*Y23432D01*
X209079Y26432D02*X210079Y27432D01*
X211780Y23932D02*X212280Y23432D01*
X211780Y26932D02*Y23932D01*
Y26932D02*X212280Y27432D01*
X213280D01*
X213780Y26932D01*
Y23932D01*
X213280Y23432D02*X213780Y23932D01*
X212280Y23432D02*X213280D01*
X211780Y24432D02*X213780Y26432D01*
X155480Y36432D02*X157480D01*
X155480D02*X154980Y36932D01*
Y37932D02*Y36932D01*
X155480Y38432D02*X154980Y37932D01*
X155480Y38432D02*X156980D01*
Y40432D02*Y36432D01*
Y38432D02*X154980Y40432D01*
X152279Y38432D02*X153779D01*
X151779Y40432D02*X153779D01*
Y36432D01*
X151779D02*X153779D01*
X150578Y40432D02*Y36432D01*
X148578Y40432D02*X150578D01*
X147377D02*Y36932D01*
X146877Y36432D01*
X145377D02*X146877D01*
X145377D02*X144877Y36932D01*
Y40432D02*Y36932D01*
Y38432D02*X147377D01*
X143676Y36932D02*Y36432D01*
Y36932D02*X142676Y37932D01*
X141676Y36932D01*
Y36432D01*
X142676Y40432D02*Y37932D01*
X138975Y40432D02*X139975D01*
X139475D02*Y36432D01*
X140475Y37432D02*X139475Y36432D01*
X137774Y39932D02*X137274Y40432D01*
X137774Y39932D02*Y36932D01*
X137274Y36432D01*
X136274D02*X137274D01*
X136274D02*X135774Y36932D01*
Y39932D02*Y36932D01*
X136274Y40432D02*X135774Y39932D01*
X136274Y40432D02*X137274D01*
X137774Y39432D02*X135774Y37432D01*
X155480Y91550D02*X157480D01*
X155480D02*X154980Y92050D01*
Y93050D02*Y92050D01*
X155480Y93550D02*X154980Y93050D01*
X155480Y93550D02*X156980D01*
Y95550D02*Y91550D01*
Y93550D02*X154980Y95550D01*
X152279Y93550D02*X153779D01*
X151779Y95550D02*X153779D01*
Y91550D01*
X151779D02*X153779D01*
X150578Y95550D02*Y91550D01*
X148578Y95550D02*X150578D01*
X147377D02*Y92050D01*
X146877Y91550D01*
X145377D02*X146877D01*
X145377D02*X144877Y92050D01*
Y95550D02*Y92050D01*
Y93550D02*X147377D01*
X143676Y92050D02*Y91550D01*
Y92050D02*X142676Y93050D01*
X141676Y92050D01*
Y91550D01*
X142676Y95550D02*Y93050D01*
X140475Y95550D02*X138475Y93550D01*
Y92050D01*
X138975Y91550D02*X138475Y92050D01*
X138975Y91550D02*X139975D01*
X140475Y92050D02*X139975Y91550D01*
X140475Y93050D02*Y92050D01*
Y93050D02*X139975Y93550D01*
X138475D02*X139975D01*
X198976Y61491D02*Y58491D01*
Y61491D02*X199476Y61991D01*
X200476D01*
X200976Y61491D01*
Y58491D01*
X200476Y57991D02*X200976Y58491D01*
X199476Y57991D02*X200476D01*
X198976Y58491D02*X199476Y57991D01*
X199976Y58991D02*X200976Y57991D01*
X202177Y61491D02*X202677Y61991D01*
X204177D01*
X204677Y61491D01*
Y60491D01*
X202177Y57991D02*X204677Y60491D01*
X202177Y57991D02*X204677D01*
X205878Y58491D02*X206378Y57991D01*
X205878Y61491D02*Y58491D01*
Y61491D02*X206378Y61991D01*
X207378D01*
X207878Y61491D01*
Y58491D01*
X207378Y57991D02*X207878Y58491D01*
X206378Y57991D02*X207378D01*
X205878Y58991D02*X207878Y60991D01*
X209079Y61991D02*X211079D01*
X209079D02*Y59991D01*
X209579Y60491D01*
X210579D01*
X211079Y59991D01*
Y58491D01*
X210579Y57991D02*X211079Y58491D01*
X209579Y57991D02*X210579D01*
X209079Y58491D02*X209579Y57991D01*
M02*
