M48
INCH
T17C0.050
T21C0.070
T26C0.042
T27C0.043
T28C0.038
T29C0.030
T35C0.035
T44C0.039
T45C0.079
T46C0.024
T47C0.034
%
T46
X059252Y014468
X058070Y003641
X058661Y009055
X059842Y025098
X060433Y017224
X056299Y047834
X056889Y022736
X056397Y033464
X057283Y044645
X056811Y043425
X056299Y042125
X053051Y038582
X058169Y042027
X067126Y034645
X068503Y039370
X059842Y031102
X065452Y030905
X026082Y017618
X056692Y048425
X044881Y056299
X027066Y055610
X042519Y047637
X047244Y038582
X043602Y045964
X043011Y033661
X043011Y025984
X044685Y025098
X041732Y028149
X027066Y027263
X027263Y016436
X043011Y014370
T29
X084944Y011984
X085944Y011984
X086944Y011984
X087944Y011984
X088944Y011984
X089944Y011984
X090944Y011984
X091944Y011984
X065055Y034881
X065055Y035881
X065055Y036881
X065055Y037881
X065055Y038881
X065055Y039881
X068897Y045988
X068897Y044488
X092944Y011984
X093944Y011984
X094944Y011984
X095944Y011984
X096944Y011984
X097944Y011984
X098944Y011984
X099944Y011984
X100944Y011984
X101944Y011984
X102944Y011984
X103944Y011984
X103944Y017984
X102944Y017984
X101944Y017984
X100944Y017984
X099944Y017984
X098944Y017984
X097944Y017984
X096944Y017984
X095944Y017984
X094944Y017984
X093944Y017984
X092944Y017984
X092519Y020472
X094019Y020472
X091944Y017984
X090944Y017984
X089944Y017984
X088944Y017984
X087944Y017984
X086944Y017984
X085944Y017984
X084944Y017984
X059055Y053881
X059055Y052881
X059055Y051881
X059055Y050881
X059055Y049881
X059055Y048881
X059055Y047881
X059055Y046881
X059055Y045881
X059055Y044881
X059055Y043881
X059055Y042881
X059055Y041881
X059055Y040881
X059055Y039881
X059055Y038881
X059055Y037881
X059055Y036881
X059055Y035881
X059055Y034881
X065055Y040881
X065055Y041881
X065055Y042881
X065055Y043881
X065055Y044881
X065055Y045881
X065055Y046881
X065055Y047881
X065055Y048881
X065055Y049881
X065055Y050881
X065055Y051881
X065055Y052881
X065055Y053881
T47
X057480Y012795
T35
X075590Y021259
X077952Y021259
X078740Y020472
T28
X072244Y020944
X073244Y020944
X072244Y019944
X073244Y019944
X072244Y018944
X073244Y018944
X072244Y017944
X072244Y016944
X072244Y015944
X072244Y014944
X072244Y013944
X073244Y017944
X073244Y016944
X073244Y015944
X073244Y014944
X073244Y013944
X081102Y017141
X081102Y016141
X081102Y015141
X081102Y014141
X081102Y013141
X081102Y012141
X070472Y054885
X070472Y053885
X070472Y052885
X070472Y051885
X070472Y050885
X070472Y049885
T44
X070472Y005511
X072440Y005511
X074409Y005511
X062598Y005511
X064566Y005511
X066535Y005511
X068503Y005511
X092519Y005511
X094488Y005511
X096456Y005511
X098425Y005511
X118897Y027165
X118897Y017716
X118897Y024409
X118897Y020472
X118897Y022440
X118897Y013779
X118897Y015747
X118897Y009842
X118897Y011810
X105511Y005511
X100393Y005511
X102362Y005511
X107480Y005511
X109448Y005511
X111417Y005511
X113385Y005511
X115354Y005511
X117322Y005511
X119291Y005511
X090551Y005511
X083464Y005511
X079527Y005511
X081496Y005511
X076377Y005511
X085433Y005511
X087401Y005511
X118897Y031102
X118897Y038582
X118897Y029133
X118897Y042519
X118897Y040551
X118897Y051968
X118897Y049999
X118897Y047244
X118897Y045275
T26
X035039Y011810
X036039Y011810
X034039Y011810
X035039Y017322
X036039Y017322
X034039Y017322
X035039Y022834
X034039Y022834
X036039Y022834
X035039Y028346
X035039Y033858
X035039Y039370
X035039Y055905
X035039Y006299
X036039Y028346
X036039Y033858
X036039Y039370
X036039Y055905
X036039Y006299
X034039Y028346
X034039Y033858
X034039Y039370
X034039Y055905
X034039Y006299
X018897Y039370
X019897Y039370
X017897Y039370
X018897Y033858
X019897Y033858
X017897Y022834
X017897Y033858
X017897Y055905
X035039Y050393
X034039Y050393
X036039Y050393
X018897Y050393
X019897Y050393
X017897Y050393
X035039Y044881
X036039Y044881
X034039Y044881
X018897Y044881
X019897Y044881
X017897Y044881
X018897Y055905
X019897Y055905
X018897Y028346
X019897Y028346
X017897Y028346
X018897Y022834
X017897Y006299
X018897Y006299
X019897Y006299
X019897Y022834
X018897Y011810
X019897Y011810
X017897Y011810
X018897Y017322
X019897Y017322
X017897Y017322
X050787Y006299
X050787Y017322
X050787Y011810
X050787Y022834
X051787Y006299
X051787Y017322
X051787Y011810
X051787Y022834
X049787Y006299
X049787Y017322
X049787Y011810
X049787Y022834
X050787Y028346
X051787Y028346
X049787Y028346
X050787Y033858
X051787Y033858
X049787Y033858
X050787Y039370
X049787Y039370
X050787Y044881
X051787Y039370
X051787Y050393
X051787Y055905
X050787Y050393
X049787Y050393
X050787Y055905
X049787Y055905
X051787Y044881
X049787Y044881
T27
X034539Y020078
X035539Y020078
X034539Y014566
X035539Y014566
X034539Y025590
X034539Y036614
X034539Y042125
X034539Y009055
X034433Y053149
X035539Y025590
X035539Y036614
X035539Y042125
X035539Y009055
X035433Y053149
X034539Y031102
X035539Y031102
X019397Y036614
X019397Y042125
X018397Y042125
X018397Y036614
X018397Y047637
X018397Y053149
X019397Y053149
X018397Y031102
X019397Y031102
X018291Y025590
X019291Y025590
X034539Y047637
X035539Y047637
X019397Y047637
X034539Y003543
X035539Y003543
X018397Y003543
X019397Y003543
X018397Y014566
X019397Y014566
X018397Y009055
X019397Y009055
X018397Y020078
X019397Y020078
X050287Y003543
X051287Y003543
X064566Y024409
X064566Y023409
X050287Y025590
X051287Y025590
X050287Y020078
X050287Y009055
X050287Y014566
X051287Y020078
X051287Y009055
X051287Y014566
X050287Y031102
X051287Y031102
X051287Y042125
X051287Y047637
X051287Y053149
X051287Y036614
X050287Y042125
X050287Y047637
X050287Y053149
X050287Y036614
T17
X015748Y039564
X015748Y036614
X015748Y034052
X015748Y042125
X015748Y056099
X015748Y053149
X015748Y023028
X015748Y028540
X015748Y025590
X015748Y031102
X015748Y050587
X031889Y050587
X015748Y047637
X031889Y045075
X031889Y056099
X031889Y053149
X031889Y047637
X015748Y045075
X031889Y034052
X031889Y031102
X031889Y039564
X031889Y042125
X031889Y023028
X031889Y028540
X031889Y025590
X031889Y036614
X031889Y020078
X031889Y017516
X031889Y006493
X031889Y012005
X031889Y009055
X031889Y014566
X031889Y003543
X015748Y003543
X015748Y009055
X015748Y006493
X015748Y012005
X015748Y014566
X015748Y017516
X015748Y020078
X048031Y017516
X048031Y014566
X048031Y023028
X048031Y020078
X048031Y034052
X048031Y031102
X048031Y039564
X048031Y036614
X048031Y042125
X048031Y050587
X048031Y047637
X048031Y045075
X048031Y056099
X048031Y053149
X048031Y028540
X048031Y025590
X048031Y003543
X048031Y006493
X048031Y012005
X048031Y009055
T21
X022589Y049087
X038731Y054599
X022589Y054599
X006448Y054599
X006448Y049087
X038731Y049087
X006448Y043575
X006448Y038064
X006448Y032552
X038731Y032552
X038731Y027040
X022589Y032552
X022589Y038064
X022589Y043575
X022589Y027040
X038731Y038064
X038731Y043575
X022589Y021528
X038731Y004993
X038731Y016016
X038731Y010505
X038731Y021528
X022589Y004993
X022589Y010505
X022589Y016016
X006448Y010505
X006448Y016016
X006448Y021528
X006448Y027040
X006448Y004993
T45
X060236Y001574
M30
