G04 start of page 18 for group -3984 idx -3984 *
G04 Title: (unknown), fab *
G04 Creator: pcb 20091103 *
G04 CreationDate: Чтв 05 Июл 2012 10:45:54 UTC *
G04 For: aml *
G04 Format: Gerber/RS-274X *
G04 PCB-Dimensions: 1259850 590550 *
G04 PCB-Coordinate-Origin: lower left *
%MOIN*%
%FSLAX25Y25*%
%LNFAB*%
%ADD13C,0.0100*%
%ADD20C,0.0200*%
%ADD53R,0.0080X0.0080*%
%ADD54C,0.0060*%
G54D20*G36*
X1101912Y252590D02*X1109677Y244824D01*
X1109112Y244259D01*
X1101346Y252024D01*
X1101912Y252590D01*
G37*
G36*
X1101346Y244824D02*X1109112Y252590D01*
X1109677Y252024D01*
X1101912Y244259D01*
X1101346Y244824D01*
G37*
G54D53*X1103912Y250024D02*X1107112D01*
X1103912D02*Y246824D01*
X1107112D01*
Y250024D02*Y246824D01*
X1102312Y251624D02*X1108712D01*
X1102312D02*Y245224D01*
X1108712D01*
Y251624D02*Y245224D01*
G54D20*G36*
X764510Y556921D02*X772275Y549155D01*
X771710Y548590D01*
X763944Y556355D01*
X764510Y556921D01*
G37*
G36*
X763944Y549155D02*X771710Y556921D01*
X772275Y556355D01*
X764510Y548590D01*
X763944Y549155D01*
G37*
G54D53*X766510Y554355D02*X769710D01*
X766510D02*Y551155D01*
X769710D01*
Y554355D02*Y551155D01*
X764910Y555955D02*X771310D01*
X764910D02*Y549555D01*
X771310D01*
Y555955D02*Y549555D01*
G54D20*G36*
X1101912Y556921D02*X1109677Y549155D01*
X1109112Y548590D01*
X1101346Y556355D01*
X1101912Y556921D01*
G37*
G36*
X1101346Y549155D02*X1109112Y556921D01*
X1109677Y556355D01*
X1101912Y548590D01*
X1101346Y549155D01*
G37*
G54D53*X1103912Y554355D02*X1107112D01*
X1103912D02*Y551155D01*
X1107112D01*
Y554355D02*Y551155D01*
X1102312Y555955D02*X1108712D01*
X1102312D02*Y549555D01*
X1108712D01*
Y555955D02*Y549555D01*
G54D20*G36*
X764510Y266763D02*X772275Y258997D01*
X771710Y258432D01*
X763944Y266197D01*
X764510Y266763D01*
G37*
G36*
X763944Y258997D02*X771710Y266763D01*
X772275Y266197D01*
X764510Y258432D01*
X763944Y258997D01*
G37*
G54D53*X766510Y264197D02*X769710D01*
X766510D02*Y260997D01*
X769710D01*
Y264197D02*Y260997D01*
X764910Y265797D02*X771310D01*
X764910D02*Y259397D01*
X771310D01*
Y265797D02*Y259397D01*
G54D20*G36*
X11400Y605965D02*X19165Y598200D01*
X18600Y597634D01*
X10834Y605400D01*
X11400Y605965D01*
G37*
G36*
X10834Y598200D02*X18600Y605965D01*
X19165Y605400D01*
X11400Y597634D01*
X10834Y598200D01*
G37*
G54D53*X13400Y603400D02*X16600D01*
X13400D02*Y600200D01*
X16600D01*
Y603400D02*Y600200D01*
X11800Y605000D02*X18200D01*
X11800D02*Y598600D01*
X18200D01*
Y605000D02*Y598600D01*
G54D54*X140000Y604050D02*Y598050D01*
Y604050D02*Y603300D01*
X143750Y599550D01*
Y604050D02*Y598050D01*
X145551Y603300D02*Y598800D01*
Y603300D02*X146301Y604050D01*
X147801D01*
X148551Y603300D01*
Y598800D01*
X147801Y598050D02*X148551Y598800D01*
X146301Y598050D02*X147801D01*
X145551Y598800D02*X146301Y598050D01*
X140000Y594799D02*X150353D01*
X98000Y601050D02*X101000Y604050D01*
X98000Y601050D02*X101750D01*
X101000Y604050D02*Y598050D01*
X98000Y594799D02*X103551D01*
X45000Y598800D02*X45750Y598050D01*
X45000Y603300D02*Y598800D01*
Y603300D02*X45750Y604050D01*
X47250D01*
X48000Y603300D01*
Y598800D01*
X47250Y598050D02*X48000Y598800D01*
X45750Y598050D02*X47250D01*
X45000Y599550D02*X48000Y602550D01*
X49801Y598050D02*X50551D01*
X53103D02*X54603D01*
X53853Y604050D02*Y598050D01*
X52353Y602550D02*X53853Y604050D01*
X56404Y603300D02*X57154Y604050D01*
X59404D01*
X60154Y603300D01*
Y601800D01*
X56404Y598050D02*X60154Y601800D01*
X56404Y598050D02*X60154D01*
X64206Y604050D02*X64956Y603300D01*
X62706Y604050D02*X64206D01*
X61956Y603300D02*X62706Y604050D01*
X61956Y603300D02*Y598800D01*
X62706Y598050D01*
X64206Y601050D02*X64956Y600300D01*
X61956Y601050D02*X64206D01*
X62706Y598050D02*X64206D01*
X64956Y598800D01*
Y600300D02*Y598800D01*
X45000Y594799D02*X66757D01*
X23622Y548106D02*Y538506D01*
X18822Y543306D02*X28422D01*
X22022Y544906D02*X25222D01*
X22022D02*Y541706D01*
X25222D01*
Y544906D02*Y541706D01*
X20422Y546506D02*X26822D01*
X20422D02*Y540106D01*
X26822D01*
Y546506D02*Y540106D01*
X1232283Y548106D02*Y538506D01*
X1227483Y543306D02*X1237083D01*
X1230683Y544906D02*X1233883D01*
X1230683D02*Y541706D01*
X1233883D01*
Y544906D02*Y541706D01*
X1229083Y546506D02*X1235483D01*
X1229083D02*Y540106D01*
X1235483D01*
Y546506D02*Y540106D01*
X1232283Y55980D02*Y46380D01*
X1227483Y51180D02*X1237083D01*
X1230683Y52780D02*X1233883D01*
X1230683D02*Y49580D01*
X1233883D01*
Y52780D02*Y49580D01*
X1229083Y54380D02*X1235483D01*
X1229083D02*Y47980D01*
X1235483D01*
Y54380D02*Y47980D01*
X23622Y55980D02*Y46380D01*
X18822Y51180D02*X28422D01*
X22022Y52780D02*X25222D01*
X22022D02*Y49580D01*
X25222D01*
Y52780D02*Y49580D01*
X20422Y54380D02*X26822D01*
X20422D02*Y47980D01*
X26822D01*
Y54380D02*Y47980D01*
X629921Y331570D02*Y321970D01*
X625121Y326770D02*X634721D01*
X628321Y328370D02*X631521D01*
X628321D02*Y325170D01*
X631521D01*
Y328370D02*Y325170D01*
X626721Y329970D02*X633121D01*
X626721D02*Y323570D01*
X633121D01*
Y329970D02*Y323570D01*
X1212598Y331570D02*Y321970D01*
X1207798Y326770D02*X1217398D01*
X1210998Y328370D02*X1214198D01*
X1210998D02*Y325170D01*
X1214198D01*
Y328370D02*Y325170D01*
X1209398Y329970D02*X1215798D01*
X1209398D02*Y323570D01*
X1215798D01*
Y329970D02*Y323570D01*
X15000Y621600D02*Y612000D01*
X10200Y616800D02*X19800D01*
X13400Y618400D02*X16600D01*
X13400D02*Y615200D01*
X16600D01*
Y618400D02*Y615200D01*
X11800Y620000D02*X18200D01*
X11800D02*Y613600D01*
X18200D01*
Y620000D02*Y613600D01*
X140000Y619050D02*Y613050D01*
Y619050D02*Y618300D01*
X143750Y614550D01*
Y619050D02*Y613050D01*
X145551Y618300D02*Y613800D01*
Y618300D02*X146301Y619050D01*
X147801D01*
X148551Y618300D01*
Y613800D01*
X147801Y613050D02*X148551Y613800D01*
X146301Y613050D02*X147801D01*
X145551Y613800D02*X146301Y613050D01*
X140000Y609799D02*X150353D01*
X100250Y619050D02*X101000Y618300D01*
X98750Y619050D02*X100250D01*
X98000Y618300D02*X98750Y619050D01*
X98000Y618300D02*Y613800D01*
X98750Y613050D01*
X100250Y616050D02*X101000Y615300D01*
X98000Y616050D02*X100250D01*
X98750Y613050D02*X100250D01*
X101000Y613800D01*
Y615300D02*Y613800D01*
X98000Y609799D02*X102801D01*
X45000Y613800D02*X45750Y613050D01*
X45000Y618300D02*Y613800D01*
Y618300D02*X45750Y619050D01*
X47250D01*
X48000Y618300D01*
Y613800D01*
X47250Y613050D02*X48000Y613800D01*
X45750Y613050D02*X47250D01*
X45000Y614550D02*X48000Y617550D01*
X49801Y613050D02*X50551D01*
X53103D02*X54603D01*
X53853Y619050D02*Y613050D01*
X52353Y617550D02*X53853Y619050D01*
X57154Y613050D02*X58654D01*
X57904Y619050D02*Y613050D01*
X56404Y617550D02*X57904Y619050D01*
X60456Y613800D02*X61206Y613050D01*
X60456Y615300D02*Y613800D01*
Y615300D02*X61206Y616050D01*
X62706D01*
X63456Y615300D01*
Y613800D01*
X62706Y613050D02*X63456Y613800D01*
X61206Y613050D02*X62706D01*
X60456Y616800D02*X61206Y616050D01*
X60456Y618300D02*Y616800D01*
Y618300D02*X61206Y619050D01*
X62706D01*
X63456Y618300D01*
Y616800D01*
X62706Y616050D02*X63456Y616800D01*
X45000Y609799D02*X65257D01*
X602362Y15747D02*Y10947D01*
Y15747D02*X606522Y18147D01*
X602362Y15747D02*X598202Y18147D01*
X600762Y15747D02*G75*G03X603962Y15747I1600J0D01*G01*
G75*G03X600762Y15747I-1600J0D01*G01*
X599162D02*G75*G03X605562Y15747I3200J0D01*G01*
G75*G03X599162Y15747I-3200J0D01*G01*
X15000Y631800D02*Y627000D01*
Y631800D02*X19160Y634200D01*
X15000Y631800D02*X10840Y634200D01*
X13400Y631800D02*G75*G03X16600Y631800I1600J0D01*G01*
G75*G03X13400Y631800I-1600J0D01*G01*
X11800D02*G75*G03X18200Y631800I3200J0D01*G01*
G75*G03X11800Y631800I-3200J0D01*G01*
X135000Y634050D02*Y633300D01*
X136500Y631800D01*
X138000Y633300D01*
Y634050D02*Y633300D01*
X136500Y631800D02*Y628050D01*
X139801Y631050D02*X142051D01*
X139801Y628050D02*X142801D01*
X139801Y634050D02*Y628050D01*
Y634050D02*X142801D01*
X147603D02*X148353Y633300D01*
X145353Y634050D02*X147603D01*
X144603Y633300D02*X145353Y634050D01*
X144603Y633300D02*Y631800D01*
X145353Y631050D01*
X147603D01*
X148353Y630300D01*
Y628800D01*
X147603Y628050D02*X148353Y628800D01*
X145353Y628050D02*X147603D01*
X144603Y628800D02*X145353Y628050D01*
X135000Y624799D02*X150154D01*
X98750Y628050D02*X100250D01*
X99500Y634050D02*Y628050D01*
X98000Y632550D02*X99500Y634050D01*
X98000Y624799D02*X102051D01*
X45000Y628800D02*X45750Y628050D01*
X45000Y633300D02*Y628800D01*
Y633300D02*X45750Y634050D01*
X47250D01*
X48000Y633300D01*
Y628800D01*
X47250Y628050D02*X48000Y628800D01*
X45750Y628050D02*X47250D01*
X45000Y629550D02*X48000Y632550D01*
X49801Y628050D02*X50551D01*
X52353Y628800D02*X53103Y628050D01*
X52353Y633300D02*Y628800D01*
Y633300D02*X53103Y634050D01*
X54603D01*
X55353Y633300D01*
Y628800D01*
X54603Y628050D02*X55353Y628800D01*
X53103Y628050D02*X54603D01*
X52353Y629550D02*X55353Y632550D01*
X57154Y628050D02*X60904Y631800D01*
Y634050D02*Y631800D01*
X57154Y634050D02*X60904D01*
X62706Y628050D02*X65706Y631050D01*
Y633300D02*Y631050D01*
X64956Y634050D02*X65706Y633300D01*
X63456Y634050D02*X64956D01*
X62706Y633300D02*X63456Y634050D01*
X62706Y633300D02*Y631800D01*
X63456Y631050D01*
X65706D01*
X45000Y624799D02*X67507D01*
X385716Y106650D02*X388916D01*
X385716D02*Y103450D01*
X388916D01*
Y106650D02*Y103450D01*
X384116Y108250D02*X390516D01*
X384116D02*Y101850D01*
X390516D01*
Y108250D02*Y101850D01*
X385716Y437359D02*X388916D01*
X385716D02*Y434159D01*
X388916D01*
Y437359D02*Y434159D01*
X384116Y438959D02*X390516D01*
X384116D02*Y432559D01*
X390516D01*
Y438959D02*Y432559D01*
X385716Y51532D02*X388916D01*
X385716D02*Y48332D01*
X388916D01*
Y51532D02*Y48332D01*
X384116Y53132D02*X390516D01*
X384116D02*Y46732D01*
X390516D01*
Y53132D02*Y46732D01*
X385716Y272004D02*X388916D01*
X385716D02*Y268804D01*
X388916D01*
Y272004D02*Y268804D01*
X384116Y273604D02*X390516D01*
X384116D02*Y267204D01*
X390516D01*
Y273604D02*Y267204D01*
X224298Y492477D02*X227498D01*
X224298D02*Y489277D01*
X227498D01*
Y492477D02*Y489277D01*
X222698Y494077D02*X229098D01*
X222698D02*Y487677D01*
X229098D01*
Y494077D02*Y487677D01*
X224298Y272004D02*X227498D01*
X224298D02*Y268804D01*
X227498D01*
Y272004D02*Y268804D01*
X222698Y273604D02*X229098D01*
X222698D02*Y267204D01*
X229098D01*
Y273604D02*Y267204D01*
X224298Y161768D02*X227498D01*
X224298D02*Y158568D01*
X227498D01*
Y161768D02*Y158568D01*
X222698Y163368D02*X229098D01*
X222698D02*Y156968D01*
X229098D01*
Y163368D02*Y156968D01*
X224298Y106650D02*X227498D01*
X224298D02*Y103450D01*
X227498D01*
Y106650D02*Y103450D01*
X222698Y108250D02*X229098D01*
X222698D02*Y101850D01*
X229098D01*
Y108250D02*Y101850D01*
X224298Y51532D02*X227498D01*
X224298D02*Y48332D01*
X227498D01*
Y51532D02*Y48332D01*
X222698Y53132D02*X229098D01*
X222698D02*Y46732D01*
X229098D01*
Y53132D02*Y46732D01*
X224298Y216886D02*X227498D01*
X224298D02*Y213686D01*
X227498D01*
Y216886D02*Y213686D01*
X222698Y218486D02*X229098D01*
X222698D02*Y212086D01*
X229098D01*
Y218486D02*Y212086D01*
X224298Y547595D02*X227498D01*
X224298D02*Y544395D01*
X227498D01*
Y547595D02*Y544395D01*
X222698Y549195D02*X229098D01*
X222698D02*Y542795D01*
X229098D01*
Y549195D02*Y542795D01*
X385716Y547595D02*X388916D01*
X385716D02*Y544395D01*
X388916D01*
Y547595D02*Y544395D01*
X384116Y549195D02*X390516D01*
X384116D02*Y542795D01*
X390516D01*
Y549195D02*Y542795D01*
X385716Y492477D02*X388916D01*
X385716D02*Y489277D01*
X388916D01*
Y492477D02*Y489277D01*
X384116Y494077D02*X390516D01*
X384116D02*Y487677D01*
X390516D01*
Y494077D02*Y487677D01*
X385716Y382241D02*X388916D01*
X385716D02*Y379041D01*
X388916D01*
Y382241D02*Y379041D01*
X384116Y383841D02*X390516D01*
X384116D02*Y377441D01*
X390516D01*
Y383841D02*Y377441D01*
X385716Y327122D02*X388916D01*
X385716D02*Y323922D01*
X388916D01*
Y327122D02*Y323922D01*
X384116Y328722D02*X390516D01*
X384116D02*Y322322D01*
X390516D01*
Y328722D02*Y322322D01*
X385716Y216886D02*X388916D01*
X385716D02*Y213686D01*
X388916D01*
Y216886D02*Y213686D01*
X384116Y218486D02*X390516D01*
X384116D02*Y212086D01*
X390516D01*
Y218486D02*Y212086D01*
X385716Y161768D02*X388916D01*
X385716D02*Y158568D01*
X388916D01*
Y161768D02*Y158568D01*
X384116Y163368D02*X390516D01*
X384116D02*Y156968D01*
X390516D01*
Y163368D02*Y156968D01*
X224298Y437359D02*X227498D01*
X224298D02*Y434159D01*
X227498D01*
Y437359D02*Y434159D01*
X222698Y438959D02*X229098D01*
X222698D02*Y432559D01*
X229098D01*
Y438959D02*Y432559D01*
X224298Y382241D02*X227498D01*
X224298D02*Y379041D01*
X227498D01*
Y382241D02*Y379041D01*
X222698Y383841D02*X229098D01*
X222698D02*Y377441D01*
X229098D01*
Y383841D02*Y377441D01*
X224298Y327122D02*X227498D01*
X224298D02*Y323922D01*
X227498D01*
Y327122D02*Y323922D01*
X222698Y328722D02*X229098D01*
X222698D02*Y322322D01*
X229098D01*
Y328722D02*Y322322D01*
X62880Y547595D02*X66080D01*
X62880D02*Y544395D01*
X66080D01*
Y547595D02*Y544395D01*
X61280Y549195D02*X67680D01*
X61280D02*Y542795D01*
X67680D01*
Y549195D02*Y542795D01*
X62880Y327122D02*X66080D01*
X62880D02*Y323922D01*
X66080D01*
Y327122D02*Y323922D01*
X61280Y328722D02*X67680D01*
X61280D02*Y322322D01*
X67680D01*
Y328722D02*Y322322D01*
X62880Y272004D02*X66080D01*
X62880D02*Y268804D01*
X66080D01*
Y272004D02*Y268804D01*
X61280Y273604D02*X67680D01*
X61280D02*Y267204D01*
X67680D01*
Y273604D02*Y267204D01*
X62880Y51532D02*X66080D01*
X62880D02*Y48332D01*
X66080D01*
Y51532D02*Y48332D01*
X61280Y53132D02*X67680D01*
X61280D02*Y46732D01*
X67680D01*
Y53132D02*Y46732D01*
X62880Y382241D02*X66080D01*
X62880D02*Y379041D01*
X66080D01*
Y382241D02*Y379041D01*
X61280Y383841D02*X67680D01*
X61280D02*Y377441D01*
X67680D01*
Y383841D02*Y377441D01*
X62880Y216886D02*X66080D01*
X62880D02*Y213686D01*
X66080D01*
Y216886D02*Y213686D01*
X61280Y218486D02*X67680D01*
X61280D02*Y212086D01*
X67680D01*
Y218486D02*Y212086D01*
X62880Y161768D02*X66080D01*
X62880D02*Y158568D01*
X66080D01*
Y161768D02*Y158568D01*
X61280Y163368D02*X67680D01*
X61280D02*Y156968D01*
X67680D01*
Y163368D02*Y156968D01*
X62880Y106650D02*X66080D01*
X62880D02*Y103450D01*
X66080D01*
Y106650D02*Y103450D01*
X61280Y108250D02*X67680D01*
X61280D02*Y101850D01*
X67680D01*
Y108250D02*Y101850D01*
X62880Y437359D02*X66080D01*
X62880D02*Y434159D01*
X66080D01*
Y437359D02*Y434159D01*
X61280Y438959D02*X67680D01*
X61280D02*Y432559D01*
X67680D01*
Y438959D02*Y432559D01*
X62880Y492477D02*X66080D01*
X62880D02*Y489277D01*
X66080D01*
Y492477D02*Y489277D01*
X61280Y494077D02*X67680D01*
X61280D02*Y487677D01*
X67680D01*
Y494077D02*Y487677D01*
X13400Y648400D02*X16600D01*
X13400D02*Y645200D01*
X16600D01*
Y648400D02*Y645200D01*
X11800Y650000D02*X18200D01*
X11800D02*Y643600D01*
X18200D01*
Y650000D02*Y643600D01*
X135000Y649050D02*Y648300D01*
X136500Y646800D01*
X138000Y648300D01*
Y649050D02*Y648300D01*
X136500Y646800D02*Y643050D01*
X139801Y646050D02*X142051D01*
X139801Y643050D02*X142801D01*
X139801Y649050D02*Y643050D01*
Y649050D02*X142801D01*
X147603D02*X148353Y648300D01*
X145353Y649050D02*X147603D01*
X144603Y648300D02*X145353Y649050D01*
X144603Y648300D02*Y646800D01*
X145353Y646050D01*
X147603D01*
X148353Y645300D01*
Y643800D01*
X147603Y643050D02*X148353Y643800D01*
X145353Y643050D02*X147603D01*
X144603Y643800D02*X145353Y643050D01*
X135000Y639799D02*X150154D01*
X98000Y648300D02*X98750Y649050D01*
X100250D01*
X101000Y648300D01*
Y643800D01*
X100250Y643050D02*X101000Y643800D01*
X98750Y643050D02*X100250D01*
X98000Y643800D02*X98750Y643050D01*
Y646050D02*X101000D01*
X102801Y643800D02*X103551Y643050D01*
X102801Y648300D02*Y643800D01*
Y648300D02*X103551Y649050D01*
X105051D01*
X105801Y648300D01*
Y643800D01*
X105051Y643050D02*X105801Y643800D01*
X103551Y643050D02*X105051D01*
X102801Y644550D02*X105801Y647550D01*
X98000Y639799D02*X107603D01*
X45000Y643800D02*X45750Y643050D01*
X45000Y648300D02*Y643800D01*
Y648300D02*X45750Y649050D01*
X47250D01*
X48000Y648300D01*
Y643800D01*
X47250Y643050D02*X48000Y643800D01*
X45750Y643050D02*X47250D01*
X45000Y644550D02*X48000Y647550D01*
X49801Y643050D02*X50551D01*
X52353Y643800D02*X53103Y643050D01*
X52353Y648300D02*Y643800D01*
Y648300D02*X53103Y649050D01*
X54603D01*
X55353Y648300D01*
Y643800D01*
X54603Y643050D02*X55353Y643800D01*
X53103Y643050D02*X54603D01*
X52353Y644550D02*X55353Y647550D01*
X57154Y643050D02*X60904Y646800D01*
Y649050D02*Y646800D01*
X57154Y649050D02*X60904D01*
X62706Y643800D02*X63456Y643050D01*
X62706Y648300D02*Y643800D01*
Y648300D02*X63456Y649050D01*
X64956D01*
X65706Y648300D01*
Y643800D01*
X64956Y643050D02*X65706Y643800D01*
X63456Y643050D02*X64956D01*
X62706Y644550D02*X65706Y647550D01*
X45000Y639799D02*X67507D01*
X479516Y120050D02*G75*G03X481116Y120050I800J0D01*G01*
G75*G03X479516Y120050I-800J0D01*G01*
X477916D02*G75*G03X482716Y120050I2400J0D01*G01*
G75*G03X477916Y120050I-2400J0D01*G01*
X479516Y90550D02*G75*G03X481116Y90550I800J0D01*G01*
G75*G03X479516Y90550I-800J0D01*G01*
X477916D02*G75*G03X482716Y90550I2400J0D01*G01*
G75*G03X477916Y90550I-2400J0D01*G01*
X479516Y450759D02*G75*G03X481116Y450759I800J0D01*G01*
G75*G03X479516Y450759I-800J0D01*G01*
X477916D02*G75*G03X482716Y450759I2400J0D01*G01*
G75*G03X477916Y450759I-2400J0D01*G01*
X479516Y421259D02*G75*G03X481116Y421259I800J0D01*G01*
G75*G03X479516Y421259I-800J0D01*G01*
X477916D02*G75*G03X482716Y421259I2400J0D01*G01*
G75*G03X477916Y421259I-2400J0D01*G01*
X479516Y64932D02*G75*G03X481116Y64932I800J0D01*G01*
G75*G03X479516Y64932I-800J0D01*G01*
X477916D02*G75*G03X482716Y64932I2400J0D01*G01*
G75*G03X477916Y64932I-2400J0D01*G01*
X479516Y35432D02*G75*G03X481116Y35432I800J0D01*G01*
G75*G03X479516Y35432I-800J0D01*G01*
X477916D02*G75*G03X482716Y35432I2400J0D01*G01*
G75*G03X477916Y35432I-2400J0D01*G01*
X479516Y285404D02*G75*G03X481116Y285404I800J0D01*G01*
G75*G03X479516Y285404I-800J0D01*G01*
X477916D02*G75*G03X482716Y285404I2400J0D01*G01*
G75*G03X477916Y285404I-2400J0D01*G01*
X479516Y255904D02*G75*G03X481116Y255904I800J0D01*G01*
G75*G03X479516Y255904I-800J0D01*G01*
X477916D02*G75*G03X482716Y255904I2400J0D01*G01*
G75*G03X477916Y255904I-2400J0D01*G01*
X318098Y505877D02*G75*G03X319698Y505877I800J0D01*G01*
G75*G03X318098Y505877I-800J0D01*G01*
X316498D02*G75*G03X321298Y505877I2400J0D01*G01*
G75*G03X316498Y505877I-2400J0D01*G01*
X318098Y476377D02*G75*G03X319698Y476377I800J0D01*G01*
G75*G03X318098Y476377I-800J0D01*G01*
X316498D02*G75*G03X321298Y476377I2400J0D01*G01*
G75*G03X316498Y476377I-2400J0D01*G01*
X318098Y285404D02*G75*G03X319698Y285404I800J0D01*G01*
G75*G03X318098Y285404I-800J0D01*G01*
X316498D02*G75*G03X321298Y285404I2400J0D01*G01*
G75*G03X316498Y285404I-2400J0D01*G01*
X318098Y255904D02*G75*G03X319698Y255904I800J0D01*G01*
G75*G03X318098Y255904I-800J0D01*G01*
X316498D02*G75*G03X321298Y255904I2400J0D01*G01*
G75*G03X316498Y255904I-2400J0D01*G01*
X318098Y175168D02*G75*G03X319698Y175168I800J0D01*G01*
G75*G03X318098Y175168I-800J0D01*G01*
X316498D02*G75*G03X321298Y175168I2400J0D01*G01*
G75*G03X316498Y175168I-2400J0D01*G01*
X318098Y145668D02*G75*G03X319698Y145668I800J0D01*G01*
G75*G03X318098Y145668I-800J0D01*G01*
X316498D02*G75*G03X321298Y145668I2400J0D01*G01*
G75*G03X316498Y145668I-2400J0D01*G01*
X318098Y120050D02*G75*G03X319698Y120050I800J0D01*G01*
G75*G03X318098Y120050I-800J0D01*G01*
X316498D02*G75*G03X321298Y120050I2400J0D01*G01*
G75*G03X316498Y120050I-2400J0D01*G01*
X318098Y90550D02*G75*G03X319698Y90550I800J0D01*G01*
G75*G03X318098Y90550I-800J0D01*G01*
X316498D02*G75*G03X321298Y90550I2400J0D01*G01*
G75*G03X316498Y90550I-2400J0D01*G01*
X318098Y64932D02*G75*G03X319698Y64932I800J0D01*G01*
G75*G03X318098Y64932I-800J0D01*G01*
X316498D02*G75*G03X321298Y64932I2400J0D01*G01*
G75*G03X316498Y64932I-2400J0D01*G01*
X318098Y35432D02*G75*G03X319698Y35432I800J0D01*G01*
G75*G03X318098Y35432I-800J0D01*G01*
X316498D02*G75*G03X321298Y35432I2400J0D01*G01*
G75*G03X316498Y35432I-2400J0D01*G01*
X318098Y230286D02*G75*G03X319698Y230286I800J0D01*G01*
G75*G03X318098Y230286I-800J0D01*G01*
X316498D02*G75*G03X321298Y230286I2400J0D01*G01*
G75*G03X316498Y230286I-2400J0D01*G01*
X318098Y200786D02*G75*G03X319698Y200786I800J0D01*G01*
G75*G03X318098Y200786I-800J0D01*G01*
X316498D02*G75*G03X321298Y200786I2400J0D01*G01*
G75*G03X316498Y200786I-2400J0D01*G01*
X318098Y560995D02*G75*G03X319698Y560995I800J0D01*G01*
G75*G03X318098Y560995I-800J0D01*G01*
X316498D02*G75*G03X321298Y560995I2400J0D01*G01*
G75*G03X316498Y560995I-2400J0D01*G01*
X318098Y531495D02*G75*G03X319698Y531495I800J0D01*G01*
G75*G03X318098Y531495I-800J0D01*G01*
X316498D02*G75*G03X321298Y531495I2400J0D01*G01*
G75*G03X316498Y531495I-2400J0D01*G01*
X479516Y560995D02*G75*G03X481116Y560995I800J0D01*G01*
G75*G03X479516Y560995I-800J0D01*G01*
X477916D02*G75*G03X482716Y560995I2400J0D01*G01*
G75*G03X477916Y560995I-2400J0D01*G01*
X479516Y531495D02*G75*G03X481116Y531495I800J0D01*G01*
G75*G03X479516Y531495I-800J0D01*G01*
X477916D02*G75*G03X482716Y531495I2400J0D01*G01*
G75*G03X477916Y531495I-2400J0D01*G01*
X479516Y505877D02*G75*G03X481116Y505877I800J0D01*G01*
G75*G03X479516Y505877I-800J0D01*G01*
X477916D02*G75*G03X482716Y505877I2400J0D01*G01*
G75*G03X477916Y505877I-2400J0D01*G01*
X479516Y476377D02*G75*G03X481116Y476377I800J0D01*G01*
G75*G03X479516Y476377I-800J0D01*G01*
X477916D02*G75*G03X482716Y476377I2400J0D01*G01*
G75*G03X477916Y476377I-2400J0D01*G01*
X479516Y395641D02*G75*G03X481116Y395641I800J0D01*G01*
G75*G03X479516Y395641I-800J0D01*G01*
X477916D02*G75*G03X482716Y395641I2400J0D01*G01*
G75*G03X477916Y395641I-2400J0D01*G01*
X479516Y366141D02*G75*G03X481116Y366141I800J0D01*G01*
G75*G03X479516Y366141I-800J0D01*G01*
X477916D02*G75*G03X482716Y366141I2400J0D01*G01*
G75*G03X477916Y366141I-2400J0D01*G01*
X479516Y340522D02*G75*G03X481116Y340522I800J0D01*G01*
G75*G03X479516Y340522I-800J0D01*G01*
X477916D02*G75*G03X482716Y340522I2400J0D01*G01*
G75*G03X477916Y340522I-2400J0D01*G01*
X479516Y311022D02*G75*G03X481116Y311022I800J0D01*G01*
G75*G03X479516Y311022I-800J0D01*G01*
X477916D02*G75*G03X482716Y311022I2400J0D01*G01*
G75*G03X477916Y311022I-2400J0D01*G01*
X479516Y230286D02*G75*G03X481116Y230286I800J0D01*G01*
G75*G03X479516Y230286I-800J0D01*G01*
X477916D02*G75*G03X482716Y230286I2400J0D01*G01*
G75*G03X477916Y230286I-2400J0D01*G01*
X479516Y200786D02*G75*G03X481116Y200786I800J0D01*G01*
G75*G03X479516Y200786I-800J0D01*G01*
X477916D02*G75*G03X482716Y200786I2400J0D01*G01*
G75*G03X477916Y200786I-2400J0D01*G01*
X479516Y175168D02*G75*G03X481116Y175168I800J0D01*G01*
G75*G03X479516Y175168I-800J0D01*G01*
X477916D02*G75*G03X482716Y175168I2400J0D01*G01*
G75*G03X477916Y175168I-2400J0D01*G01*
X479516Y145668D02*G75*G03X481116Y145668I800J0D01*G01*
G75*G03X479516Y145668I-800J0D01*G01*
X477916D02*G75*G03X482716Y145668I2400J0D01*G01*
G75*G03X477916Y145668I-2400J0D01*G01*
X318098Y450759D02*G75*G03X319698Y450759I800J0D01*G01*
G75*G03X318098Y450759I-800J0D01*G01*
X316498D02*G75*G03X321298Y450759I2400J0D01*G01*
G75*G03X316498Y450759I-2400J0D01*G01*
X318098Y421259D02*G75*G03X319698Y421259I800J0D01*G01*
G75*G03X318098Y421259I-800J0D01*G01*
X316498D02*G75*G03X321298Y421259I2400J0D01*G01*
G75*G03X316498Y421259I-2400J0D01*G01*
X318098Y395641D02*G75*G03X319698Y395641I800J0D01*G01*
G75*G03X318098Y395641I-800J0D01*G01*
X316498D02*G75*G03X321298Y395641I2400J0D01*G01*
G75*G03X316498Y395641I-2400J0D01*G01*
X318098Y366141D02*G75*G03X319698Y366141I800J0D01*G01*
G75*G03X318098Y366141I-800J0D01*G01*
X316498D02*G75*G03X321298Y366141I2400J0D01*G01*
G75*G03X316498Y366141I-2400J0D01*G01*
X318098Y340522D02*G75*G03X319698Y340522I800J0D01*G01*
G75*G03X318098Y340522I-800J0D01*G01*
X316498D02*G75*G03X321298Y340522I2400J0D01*G01*
G75*G03X316498Y340522I-2400J0D01*G01*
X318098Y311022D02*G75*G03X319698Y311022I800J0D01*G01*
G75*G03X318098Y311022I-800J0D01*G01*
X316498D02*G75*G03X321298Y311022I2400J0D01*G01*
G75*G03X316498Y311022I-2400J0D01*G01*
X156680Y560995D02*G75*G03X158280Y560995I800J0D01*G01*
G75*G03X156680Y560995I-800J0D01*G01*
X155080D02*G75*G03X159880Y560995I2400J0D01*G01*
G75*G03X155080Y560995I-2400J0D01*G01*
X156680Y531495D02*G75*G03X158280Y531495I800J0D01*G01*
G75*G03X156680Y531495I-800J0D01*G01*
X155080D02*G75*G03X159880Y531495I2400J0D01*G01*
G75*G03X155080Y531495I-2400J0D01*G01*
X156680Y340522D02*G75*G03X158280Y340522I800J0D01*G01*
G75*G03X156680Y340522I-800J0D01*G01*
X155080D02*G75*G03X159880Y340522I2400J0D01*G01*
G75*G03X155080Y340522I-2400J0D01*G01*
X156680Y311022D02*G75*G03X158280Y311022I800J0D01*G01*
G75*G03X156680Y311022I-800J0D01*G01*
X155080D02*G75*G03X159880Y311022I2400J0D01*G01*
G75*G03X155080Y311022I-2400J0D01*G01*
X156680Y285404D02*G75*G03X158280Y285404I800J0D01*G01*
G75*G03X156680Y285404I-800J0D01*G01*
X155080D02*G75*G03X159880Y285404I2400J0D01*G01*
G75*G03X155080Y285404I-2400J0D01*G01*
X156680Y255904D02*G75*G03X158280Y255904I800J0D01*G01*
G75*G03X156680Y255904I-800J0D01*G01*
X155080D02*G75*G03X159880Y255904I2400J0D01*G01*
G75*G03X155080Y255904I-2400J0D01*G01*
X156680Y64932D02*G75*G03X158280Y64932I800J0D01*G01*
G75*G03X156680Y64932I-800J0D01*G01*
X155080D02*G75*G03X159880Y64932I2400J0D01*G01*
G75*G03X155080Y64932I-2400J0D01*G01*
X156680Y35432D02*G75*G03X158280Y35432I800J0D01*G01*
G75*G03X156680Y35432I-800J0D01*G01*
X155080D02*G75*G03X159880Y35432I2400J0D01*G01*
G75*G03X155080Y35432I-2400J0D01*G01*
X156680Y395641D02*G75*G03X158280Y395641I800J0D01*G01*
G75*G03X156680Y395641I-800J0D01*G01*
X155080D02*G75*G03X159880Y395641I2400J0D01*G01*
G75*G03X155080Y395641I-2400J0D01*G01*
X156680Y366141D02*G75*G03X158280Y366141I800J0D01*G01*
G75*G03X156680Y366141I-800J0D01*G01*
X155080D02*G75*G03X159880Y366141I2400J0D01*G01*
G75*G03X155080Y366141I-2400J0D01*G01*
X156680Y230286D02*G75*G03X158280Y230286I800J0D01*G01*
G75*G03X156680Y230286I-800J0D01*G01*
X155080D02*G75*G03X159880Y230286I2400J0D01*G01*
G75*G03X155080Y230286I-2400J0D01*G01*
X156680Y200786D02*G75*G03X158280Y200786I800J0D01*G01*
G75*G03X156680Y200786I-800J0D01*G01*
X155080D02*G75*G03X159880Y200786I2400J0D01*G01*
G75*G03X155080Y200786I-2400J0D01*G01*
X156680Y175168D02*G75*G03X158280Y175168I800J0D01*G01*
G75*G03X156680Y175168I-800J0D01*G01*
X155080D02*G75*G03X159880Y175168I2400J0D01*G01*
G75*G03X155080Y175168I-2400J0D01*G01*
X156680Y145668D02*G75*G03X158280Y145668I800J0D01*G01*
G75*G03X156680Y145668I-800J0D01*G01*
X155080D02*G75*G03X159880Y145668I2400J0D01*G01*
G75*G03X155080Y145668I-2400J0D01*G01*
X156680Y120050D02*G75*G03X158280Y120050I800J0D01*G01*
G75*G03X156680Y120050I-800J0D01*G01*
X155080D02*G75*G03X159880Y120050I2400J0D01*G01*
G75*G03X155080Y120050I-2400J0D01*G01*
X156680Y90550D02*G75*G03X158280Y90550I800J0D01*G01*
G75*G03X156680Y90550I-800J0D01*G01*
X155080D02*G75*G03X159880Y90550I2400J0D01*G01*
G75*G03X155080Y90550I-2400J0D01*G01*
X156680Y450759D02*G75*G03X158280Y450759I800J0D01*G01*
G75*G03X156680Y450759I-800J0D01*G01*
X155080D02*G75*G03X159880Y450759I2400J0D01*G01*
G75*G03X155080Y450759I-2400J0D01*G01*
X156680Y421259D02*G75*G03X158280Y421259I800J0D01*G01*
G75*G03X156680Y421259I-800J0D01*G01*
X155080D02*G75*G03X159880Y421259I2400J0D01*G01*
G75*G03X155080Y421259I-2400J0D01*G01*
X156680Y505877D02*G75*G03X158280Y505877I800J0D01*G01*
G75*G03X156680Y505877I-800J0D01*G01*
X155080D02*G75*G03X159880Y505877I2400J0D01*G01*
G75*G03X155080Y505877I-2400J0D01*G01*
X156680Y476377D02*G75*G03X158280Y476377I800J0D01*G01*
G75*G03X156680Y476377I-800J0D01*G01*
X155080D02*G75*G03X159880Y476377I2400J0D01*G01*
G75*G03X155080Y476377I-2400J0D01*G01*
X14200Y661800D02*G75*G03X15800Y661800I800J0D01*G01*
G75*G03X14200Y661800I-800J0D01*G01*
X12600D02*G75*G03X17400Y661800I2400J0D01*G01*
G75*G03X12600Y661800I-2400J0D01*G01*
X135000Y664050D02*Y663300D01*
X136500Y661800D01*
X138000Y663300D01*
Y664050D02*Y663300D01*
X136500Y661800D02*Y658050D01*
X139801Y661050D02*X142051D01*
X139801Y658050D02*X142801D01*
X139801Y664050D02*Y658050D01*
Y664050D02*X142801D01*
X147603D02*X148353Y663300D01*
X145353Y664050D02*X147603D01*
X144603Y663300D02*X145353Y664050D01*
X144603Y663300D02*Y661800D01*
X145353Y661050D01*
X147603D01*
X148353Y660300D01*
Y658800D01*
X147603Y658050D02*X148353Y658800D01*
X145353Y658050D02*X147603D01*
X144603Y658800D02*X145353Y658050D01*
X135000Y654799D02*X150154D01*
X100250Y664050D02*X101000Y663300D01*
X98750Y664050D02*X100250D01*
X98000Y663300D02*X98750Y664050D01*
X98000Y663300D02*Y658800D01*
X98750Y658050D01*
X100250Y661050D02*X101000Y660300D01*
X98000Y661050D02*X100250D01*
X98750Y658050D02*X100250D01*
X101000Y658800D01*
Y660300D02*Y658800D01*
X102801D02*X103551Y658050D01*
X102801Y663300D02*Y658800D01*
Y663300D02*X103551Y664050D01*
X105051D01*
X105801Y663300D01*
Y658800D01*
X105051Y658050D02*X105801Y658800D01*
X103551Y658050D02*X105051D01*
X102801Y659550D02*X105801Y662550D01*
X98000Y654799D02*X107603D01*
X45000Y658800D02*X45750Y658050D01*
X45000Y663300D02*Y658800D01*
Y663300D02*X45750Y664050D01*
X47250D01*
X48000Y663300D01*
Y658800D01*
X47250Y658050D02*X48000Y658800D01*
X45750Y658050D02*X47250D01*
X45000Y659550D02*X48000Y662550D01*
X49801Y658050D02*X50551D01*
X52353Y658800D02*X53103Y658050D01*
X52353Y663300D02*Y658800D01*
Y663300D02*X53103Y664050D01*
X54603D01*
X55353Y663300D01*
Y658800D01*
X54603Y658050D02*X55353Y658800D01*
X53103Y658050D02*X54603D01*
X52353Y659550D02*X55353Y662550D01*
X57154Y664050D02*X60154D01*
X57154D02*Y661050D01*
X57904Y661800D01*
X59404D01*
X60154Y661050D01*
Y658800D01*
X59404Y658050D02*X60154Y658800D01*
X57904Y658050D02*X59404D01*
X57154Y658800D02*X57904Y658050D01*
X61956Y658800D02*X62706Y658050D01*
X61956Y663300D02*Y658800D01*
Y663300D02*X62706Y664050D01*
X64206D01*
X64956Y663300D01*
Y658800D01*
X64206Y658050D02*X64956Y658800D01*
X62706Y658050D02*X64206D01*
X61956Y659550D02*X64956Y662550D01*
X45000Y654799D02*X66757D01*
X643269Y246493D02*X648069Y241693D01*
X643269D02*X648069Y246493D01*
X644069Y245693D02*X647269D01*
X644069D02*Y242493D01*
X647269D01*
Y245693D02*Y242493D01*
X643269Y236493D02*X648069Y231693D01*
X643269D02*X648069Y236493D01*
X644069Y235693D02*X647269D01*
X644069D02*Y232493D01*
X647269D01*
Y235693D02*Y232493D01*
X500474Y368541D02*X505274Y363741D01*
X500474D02*X505274Y368541D01*
X501274Y367741D02*X504474D01*
X501274D02*Y364541D01*
X504474D01*
Y367741D02*Y364541D01*
X510474Y368541D02*X515274Y363741D01*
X510474D02*X515274Y368541D01*
X511274Y367741D02*X514474D01*
X511274D02*Y364541D01*
X514474D01*
Y367741D02*Y364541D01*
X500474Y37832D02*X505274Y33032D01*
X500474D02*X505274Y37832D01*
X501274Y37032D02*X504474D01*
X501274D02*Y33832D01*
X504474D01*
Y37032D02*Y33832D01*
X510474Y37832D02*X515274Y33032D01*
X510474D02*X515274Y37832D01*
X511274Y37032D02*X514474D01*
X511274D02*Y33832D01*
X514474D01*
Y37032D02*Y33832D01*
X181576Y313422D02*X186376Y308622D01*
X181576D02*X186376Y313422D01*
X182376Y312622D02*X185576D01*
X182376D02*Y309422D01*
X185576D01*
Y312622D02*Y309422D01*
X191576Y313422D02*X196376Y308622D01*
X191576D02*X196376Y313422D01*
X192376Y312622D02*X195576D01*
X192376D02*Y309422D01*
X195576D01*
Y312622D02*Y309422D01*
X341931Y533895D02*X346731Y529095D01*
X341931D02*X346731Y533895D01*
X342731Y533095D02*X345931D01*
X342731D02*Y529895D01*
X345931D01*
Y533095D02*Y529895D01*
X351931Y533895D02*X356731Y529095D01*
X351931D02*X356731Y533895D01*
X352731Y533095D02*X355931D01*
X352731D02*Y529895D01*
X355931D01*
Y533095D02*Y529895D01*
X181576Y533895D02*X186376Y529095D01*
X181576D02*X186376Y533895D01*
X182376Y533095D02*X185576D01*
X182376D02*Y529895D01*
X185576D01*
Y533095D02*Y529895D01*
X191576Y533895D02*X196376Y529095D01*
X191576D02*X196376Y533895D01*
X192376Y533095D02*X195576D01*
X192376D02*Y529895D01*
X195576D01*
Y533095D02*Y529895D01*
X181576Y203186D02*X186376Y198386D01*
X181576D02*X186376Y203186D01*
X182376Y202386D02*X185576D01*
X182376D02*Y199186D01*
X185576D01*
Y202386D02*Y199186D01*
X191576Y203186D02*X196376Y198386D01*
X191576D02*X196376Y203186D01*
X192376Y202386D02*X195576D01*
X192376D02*Y199186D01*
X195576D01*
Y202386D02*Y199186D01*
X181576Y92950D02*X186376Y88150D01*
X181576D02*X186376Y92950D01*
X182376Y92150D02*X185576D01*
X182376D02*Y88950D01*
X185576D01*
Y92150D02*Y88950D01*
X191576Y92950D02*X196376Y88150D01*
X191576D02*X196376Y92950D01*
X192376Y92150D02*X195576D01*
X192376D02*Y88950D01*
X195576D01*
Y92150D02*Y88950D01*
X342994Y148068D02*X347794Y143268D01*
X342994D02*X347794Y148068D01*
X343794Y147268D02*X346994D01*
X343794D02*Y144068D01*
X346994D01*
Y147268D02*Y144068D01*
X352994Y148068D02*X357794Y143268D01*
X352994D02*X357794Y148068D01*
X353794Y147268D02*X356994D01*
X353794D02*Y144068D01*
X356994D01*
Y147268D02*Y144068D01*
X342994Y92950D02*X347794Y88150D01*
X342994D02*X347794Y92950D01*
X343794Y92150D02*X346994D01*
X343794D02*Y88950D01*
X346994D01*
Y92150D02*Y88950D01*
X352994Y92950D02*X357794Y88150D01*
X352994D02*X357794Y92950D01*
X353794Y92150D02*X356994D01*
X353794D02*Y88950D01*
X356994D01*
Y92150D02*Y88950D01*
X342994Y37832D02*X347794Y33032D01*
X342994D02*X347794Y37832D01*
X343794Y37032D02*X346994D01*
X343794D02*Y33832D01*
X346994D01*
Y37032D02*Y33832D01*
X352994Y37832D02*X357794Y33032D01*
X352994D02*X357794Y37832D01*
X353794Y37032D02*X356994D01*
X353794D02*Y33832D01*
X356994D01*
Y37032D02*Y33832D01*
X181576Y148068D02*X186376Y143268D01*
X181576D02*X186376Y148068D01*
X182376Y147268D02*X185576D01*
X182376D02*Y144068D01*
X185576D01*
Y147268D02*Y144068D01*
X191576Y148068D02*X196376Y143268D01*
X191576D02*X196376Y148068D01*
X192376Y147268D02*X195576D01*
X192376D02*Y144068D01*
X195576D01*
Y147268D02*Y144068D01*
X180513Y258304D02*X185313Y253504D01*
X180513D02*X185313Y258304D01*
X181313Y257504D02*X184513D01*
X181313D02*Y254304D01*
X184513D01*
Y257504D02*Y254304D01*
X190513Y258304D02*X195313Y253504D01*
X190513D02*X195313Y258304D01*
X191313Y257504D02*X194513D01*
X191313D02*Y254304D01*
X194513D01*
Y257504D02*Y254304D01*
X181576Y478777D02*X186376Y473977D01*
X181576D02*X186376Y478777D01*
X182376Y477977D02*X185576D01*
X182376D02*Y474777D01*
X185576D01*
Y477977D02*Y474777D01*
X191576Y478777D02*X196376Y473977D01*
X191576D02*X196376Y478777D01*
X192376Y477977D02*X195576D01*
X192376D02*Y474777D01*
X195576D01*
Y477977D02*Y474777D01*
X181576Y423659D02*X186376Y418859D01*
X181576D02*X186376Y423659D01*
X182376Y422859D02*X185576D01*
X182376D02*Y419659D01*
X185576D01*
Y422859D02*Y419659D01*
X191576Y423659D02*X196376Y418859D01*
X191576D02*X196376Y423659D01*
X192376Y422859D02*X195576D01*
X192376D02*Y419659D01*
X195576D01*
Y422859D02*Y419659D01*
X181576Y368541D02*X186376Y363741D01*
X181576D02*X186376Y368541D01*
X182376Y367741D02*X185576D01*
X182376D02*Y364541D01*
X185576D01*
Y367741D02*Y364541D01*
X191576Y368541D02*X196376Y363741D01*
X191576D02*X196376Y368541D01*
X192376Y367741D02*X195576D01*
X192376D02*Y364541D01*
X195576D01*
Y367741D02*Y364541D01*
X181576Y37832D02*X186376Y33032D01*
X181576D02*X186376Y37832D01*
X182376Y37032D02*X185576D01*
X182376D02*Y33832D01*
X185576D01*
Y37032D02*Y33832D01*
X191576Y37832D02*X196376Y33032D01*
X191576D02*X196376Y37832D01*
X192376Y37032D02*X195576D01*
X192376D02*Y33832D01*
X195576D01*
Y37032D02*Y33832D01*
X342994Y478777D02*X347794Y473977D01*
X342994D02*X347794Y478777D01*
X343794Y477977D02*X346994D01*
X343794D02*Y474777D01*
X346994D01*
Y477977D02*Y474777D01*
X352994Y478777D02*X357794Y473977D01*
X352994D02*X357794Y478777D01*
X353794Y477977D02*X356994D01*
X353794D02*Y474777D01*
X356994D01*
Y477977D02*Y474777D01*
X342994Y423659D02*X347794Y418859D01*
X342994D02*X347794Y423659D01*
X343794Y422859D02*X346994D01*
X343794D02*Y419659D01*
X346994D01*
Y422859D02*Y419659D01*
X352994Y423659D02*X357794Y418859D01*
X352994D02*X357794Y423659D01*
X353794Y422859D02*X356994D01*
X353794D02*Y419659D01*
X356994D01*
Y422859D02*Y419659D01*
X342994Y368541D02*X347794Y363741D01*
X342994D02*X347794Y368541D01*
X343794Y367741D02*X346994D01*
X343794D02*Y364541D01*
X346994D01*
Y367741D02*Y364541D01*
X352994Y368541D02*X357794Y363741D01*
X352994D02*X357794Y368541D01*
X353794Y367741D02*X356994D01*
X353794D02*Y364541D01*
X356994D01*
Y367741D02*Y364541D01*
X342994Y313422D02*X347794Y308622D01*
X342994D02*X347794Y313422D01*
X343794Y312622D02*X346994D01*
X343794D02*Y309422D01*
X346994D01*
Y312622D02*Y309422D01*
X352994Y313422D02*X357794Y308622D01*
X352994D02*X357794Y313422D01*
X353794Y312622D02*X356994D01*
X353794D02*Y309422D01*
X356994D01*
Y312622D02*Y309422D01*
X342994Y258304D02*X347794Y253504D01*
X342994D02*X347794Y258304D01*
X343794Y257504D02*X346994D01*
X343794D02*Y254304D01*
X346994D01*
Y257504D02*Y254304D01*
X352994Y258304D02*X357794Y253504D01*
X352994D02*X357794Y258304D01*
X353794Y257504D02*X356994D01*
X353794D02*Y254304D01*
X356994D01*
Y257504D02*Y254304D01*
X342994Y203186D02*X347794Y198386D01*
X342994D02*X347794Y203186D01*
X343794Y202386D02*X346994D01*
X343794D02*Y199186D01*
X346994D01*
Y202386D02*Y199186D01*
X352994Y203186D02*X357794Y198386D01*
X352994D02*X357794Y203186D01*
X353794Y202386D02*X356994D01*
X353794D02*Y199186D01*
X356994D01*
Y202386D02*Y199186D01*
X500474Y533895D02*X505274Y529095D01*
X500474D02*X505274Y533895D01*
X501274Y533095D02*X504474D01*
X501274D02*Y529895D01*
X504474D01*
Y533095D02*Y529895D01*
X510474Y533895D02*X515274Y529095D01*
X510474D02*X515274Y533895D01*
X511274Y533095D02*X514474D01*
X511274D02*Y529895D01*
X514474D01*
Y533095D02*Y529895D01*
X500474Y478777D02*X505274Y473977D01*
X500474D02*X505274Y478777D01*
X501274Y477977D02*X504474D01*
X501274D02*Y474777D01*
X504474D01*
Y477977D02*Y474777D01*
X510474Y478777D02*X515274Y473977D01*
X510474D02*X515274Y478777D01*
X511274Y477977D02*X514474D01*
X511274D02*Y474777D01*
X514474D01*
Y477977D02*Y474777D01*
X500474Y423659D02*X505274Y418859D01*
X500474D02*X505274Y423659D01*
X501274Y422859D02*X504474D01*
X501274D02*Y419659D01*
X504474D01*
Y422859D02*Y419659D01*
X510474Y423659D02*X515274Y418859D01*
X510474D02*X515274Y423659D01*
X511274Y422859D02*X514474D01*
X511274D02*Y419659D01*
X514474D01*
Y422859D02*Y419659D01*
X500474Y148068D02*X505274Y143268D01*
X500474D02*X505274Y148068D01*
X501274Y147268D02*X504474D01*
X501274D02*Y144068D01*
X504474D01*
Y147268D02*Y144068D01*
X510474Y148068D02*X515274Y143268D01*
X510474D02*X515274Y148068D01*
X511274Y147268D02*X514474D01*
X511274D02*Y144068D01*
X514474D01*
Y147268D02*Y144068D01*
X500474Y92950D02*X505274Y88150D01*
X500474D02*X505274Y92950D01*
X501274Y92150D02*X504474D01*
X501274D02*Y88950D01*
X504474D01*
Y92150D02*Y88950D01*
X510474Y92950D02*X515274Y88150D01*
X510474D02*X515274Y92950D01*
X511274Y92150D02*X514474D01*
X511274D02*Y88950D01*
X514474D01*
Y92150D02*Y88950D01*
X500474Y203186D02*X505274Y198386D01*
X500474D02*X505274Y203186D01*
X501274Y202386D02*X504474D01*
X501274D02*Y199186D01*
X504474D01*
Y202386D02*Y199186D01*
X510474Y203186D02*X515274Y198386D01*
X510474D02*X515274Y203186D01*
X511274Y202386D02*X514474D01*
X511274D02*Y199186D01*
X514474D01*
Y202386D02*Y199186D01*
X500474Y258304D02*X505274Y253504D01*
X500474D02*X505274Y258304D01*
X501274Y257504D02*X504474D01*
X501274D02*Y254304D01*
X504474D01*
Y257504D02*Y254304D01*
X510474Y258304D02*X515274Y253504D01*
X510474D02*X515274Y258304D01*
X511274Y257504D02*X514474D01*
X511274D02*Y254304D01*
X514474D01*
Y257504D02*Y254304D01*
X500474Y313422D02*X505274Y308622D01*
X500474D02*X505274Y313422D01*
X501274Y312622D02*X504474D01*
X501274D02*Y309422D01*
X504474D01*
Y312622D02*Y309422D01*
X510474Y313422D02*X515274Y308622D01*
X510474D02*X515274Y313422D01*
X511274Y312622D02*X514474D01*
X511274D02*Y309422D01*
X514474D01*
Y312622D02*Y309422D01*
X12600Y679200D02*X17400Y674400D01*
X12600D02*X17400Y679200D01*
X13400Y678400D02*X16600D01*
X13400D02*Y675200D01*
X16600D01*
Y678400D02*Y675200D01*
X135000Y679050D02*Y678300D01*
X136500Y676800D01*
X138000Y678300D01*
Y679050D02*Y678300D01*
X136500Y676800D02*Y673050D01*
X139801Y676050D02*X142051D01*
X139801Y673050D02*X142801D01*
X139801Y679050D02*Y673050D01*
Y679050D02*X142801D01*
X147603D02*X148353Y678300D01*
X145353Y679050D02*X147603D01*
X144603Y678300D02*X145353Y679050D01*
X144603Y678300D02*Y676800D01*
X145353Y676050D01*
X147603D01*
X148353Y675300D01*
Y673800D01*
X147603Y673050D02*X148353Y673800D01*
X145353Y673050D02*X147603D01*
X144603Y673800D02*X145353Y673050D01*
X135000Y669799D02*X150154D01*
X100250Y679050D02*X101000Y678300D01*
X98750Y679050D02*X100250D01*
X98000Y678300D02*X98750Y679050D01*
X98000Y678300D02*Y673800D01*
X98750Y673050D01*
X100250Y676050D02*X101000Y675300D01*
X98000Y676050D02*X100250D01*
X98750Y673050D02*X100250D01*
X101000Y673800D01*
Y675300D02*Y673800D01*
X102801Y678300D02*X103551Y679050D01*
X105801D01*
X106551Y678300D01*
Y676800D01*
X102801Y673050D02*X106551Y676800D01*
X102801Y673050D02*X106551D01*
X98000Y669799D02*X108353D01*
X45000Y673800D02*X45750Y673050D01*
X45000Y678300D02*Y673800D01*
Y678300D02*X45750Y679050D01*
X47250D01*
X48000Y678300D01*
Y673800D01*
X47250Y673050D02*X48000Y673800D01*
X45750Y673050D02*X47250D01*
X45000Y674550D02*X48000Y677550D01*
X49801Y673050D02*X50551D01*
X52353Y673800D02*X53103Y673050D01*
X52353Y678300D02*Y673800D01*
Y678300D02*X53103Y679050D01*
X54603D01*
X55353Y678300D01*
Y673800D01*
X54603Y673050D02*X55353Y673800D01*
X53103Y673050D02*X54603D01*
X52353Y674550D02*X55353Y677550D01*
X57154Y676050D02*X60154Y679050D01*
X57154Y676050D02*X60904D01*
X60154Y679050D02*Y673050D01*
X62706Y678300D02*X63456Y679050D01*
X64956D01*
X65706Y678300D01*
Y673800D01*
X64956Y673050D02*X65706Y673800D01*
X63456Y673050D02*X64956D01*
X62706Y673800D02*X63456Y673050D01*
Y676050D02*X65706D01*
X45000Y669799D02*X67507D01*
X188976Y176427D02*Y170027D01*
X185776Y173227D02*X192176D01*
X187376Y174827D02*X190576D01*
X187376D02*Y171627D01*
X190576D01*
Y174827D02*Y171627D01*
X198976Y176427D02*Y170027D01*
X195776Y173227D02*X202176D01*
X197376Y174827D02*X200576D01*
X197376D02*Y171627D01*
X200576D01*
Y174827D02*Y171627D01*
X178976Y176427D02*Y170027D01*
X175776Y173227D02*X182176D01*
X177376Y174827D02*X180576D01*
X177376D02*Y171627D01*
X180576D01*
Y174827D02*Y171627D01*
X350394Y66191D02*Y59791D01*
X347194Y62991D02*X353594D01*
X348794Y64591D02*X351994D01*
X348794D02*Y61391D01*
X351994D01*
Y64591D02*Y61391D01*
X360394Y66191D02*Y59791D01*
X357194Y62991D02*X363594D01*
X358794Y64591D02*X361994D01*
X358794D02*Y61391D01*
X361994D01*
Y64591D02*Y61391D01*
X340394Y66191D02*Y59791D01*
X337194Y62991D02*X343594D01*
X338794Y64591D02*X341994D01*
X338794D02*Y61391D01*
X341994D01*
Y64591D02*Y61391D01*
X507874Y452018D02*Y445618D01*
X504674Y448818D02*X511074D01*
X506274Y450418D02*X509474D01*
X506274D02*Y447218D01*
X509474D01*
Y450418D02*Y447218D01*
X517874Y452018D02*Y445618D01*
X514674Y448818D02*X521074D01*
X516274Y450418D02*X519474D01*
X516274D02*Y447218D01*
X519474D01*
Y450418D02*Y447218D01*
X497874Y452018D02*Y445618D01*
X494674Y448818D02*X501074D01*
X496274Y450418D02*X499474D01*
X496274D02*Y447218D01*
X499474D01*
Y450418D02*Y447218D01*
X507874Y562254D02*Y555854D01*
X504674Y559054D02*X511074D01*
X506274Y560654D02*X509474D01*
X506274D02*Y557454D01*
X509474D01*
Y560654D02*Y557454D01*
X517874Y562254D02*Y555854D01*
X514674Y559054D02*X521074D01*
X516274Y560654D02*X519474D01*
X516274D02*Y557454D01*
X519474D01*
Y560654D02*Y557454D01*
X497874Y562254D02*Y555854D01*
X494674Y559054D02*X501074D01*
X496274Y560654D02*X499474D01*
X496274D02*Y557454D01*
X499474D01*
Y560654D02*Y557454D01*
X507874Y286663D02*Y280263D01*
X504674Y283463D02*X511074D01*
X506274Y285063D02*X509474D01*
X506274D02*Y281863D01*
X509474D01*
Y285063D02*Y281863D01*
X517874Y286663D02*Y280263D01*
X514674Y283463D02*X521074D01*
X516274Y285063D02*X519474D01*
X516274D02*Y281863D01*
X519474D01*
Y285063D02*Y281863D01*
X497874Y286663D02*Y280263D01*
X494674Y283463D02*X501074D01*
X496274Y285063D02*X499474D01*
X496274D02*Y281863D01*
X499474D01*
Y285063D02*Y281863D01*
X507874Y507136D02*Y500736D01*
X504674Y503936D02*X511074D01*
X506274Y505536D02*X509474D01*
X506274D02*Y502336D01*
X509474D01*
Y505536D02*Y502336D01*
X517874Y507136D02*Y500736D01*
X514674Y503936D02*X521074D01*
X516274Y505536D02*X519474D01*
X516274D02*Y502336D01*
X519474D01*
Y505536D02*Y502336D01*
X497874Y507136D02*Y500736D01*
X494674Y503936D02*X501074D01*
X496274Y505536D02*X499474D01*
X496274D02*Y502336D01*
X499474D01*
Y505536D02*Y502336D01*
X350394Y452018D02*Y445618D01*
X347194Y448818D02*X353594D01*
X348794Y450418D02*X351994D01*
X348794D02*Y447218D01*
X351994D01*
Y450418D02*Y447218D01*
X360394Y452018D02*Y445618D01*
X357194Y448818D02*X363594D01*
X358794Y450418D02*X361994D01*
X358794D02*Y447218D01*
X361994D01*
Y450418D02*Y447218D01*
X340394Y452018D02*Y445618D01*
X337194Y448818D02*X343594D01*
X338794Y450418D02*X341994D01*
X338794D02*Y447218D01*
X341994D01*
Y450418D02*Y447218D01*
X188976Y66191D02*Y59791D01*
X185776Y62991D02*X192176D01*
X187376Y64591D02*X190576D01*
X187376D02*Y61391D01*
X190576D01*
Y64591D02*Y61391D01*
X198976Y66191D02*Y59791D01*
X195776Y62991D02*X202176D01*
X197376Y64591D02*X200576D01*
X197376D02*Y61391D01*
X200576D01*
Y64591D02*Y61391D01*
X178976Y66191D02*Y59791D01*
X175776Y62991D02*X182176D01*
X177376Y64591D02*X180576D01*
X177376D02*Y61391D01*
X180576D01*
Y64591D02*Y61391D01*
X350394Y231545D02*Y225145D01*
X347194Y228345D02*X353594D01*
X348794Y229945D02*X351994D01*
X348794D02*Y226745D01*
X351994D01*
Y229945D02*Y226745D01*
X360394Y231545D02*Y225145D01*
X357194Y228345D02*X363594D01*
X358794Y229945D02*X361994D01*
X358794D02*Y226745D01*
X361994D01*
Y229945D02*Y226745D01*
X340394Y231545D02*Y225145D01*
X337194Y228345D02*X343594D01*
X338794Y229945D02*X341994D01*
X338794D02*Y226745D01*
X341994D01*
Y229945D02*Y226745D01*
X188976Y562254D02*Y555854D01*
X185776Y559054D02*X192176D01*
X187376Y560654D02*X190576D01*
X187376D02*Y557454D01*
X190576D01*
Y560654D02*Y557454D01*
X198976Y562254D02*Y555854D01*
X195776Y559054D02*X202176D01*
X197376Y560654D02*X200576D01*
X197376D02*Y557454D01*
X200576D01*
Y560654D02*Y557454D01*
X178976Y562254D02*Y555854D01*
X175776Y559054D02*X182176D01*
X177376Y560654D02*X180576D01*
X177376D02*Y557454D01*
X180576D01*
Y560654D02*Y557454D01*
X507874Y396900D02*Y390500D01*
X504674Y393700D02*X511074D01*
X506274Y395300D02*X509474D01*
X506274D02*Y392100D01*
X509474D01*
Y395300D02*Y392100D01*
X517874Y396900D02*Y390500D01*
X514674Y393700D02*X521074D01*
X516274Y395300D02*X519474D01*
X516274D02*Y392100D01*
X519474D01*
Y395300D02*Y392100D01*
X497874Y396900D02*Y390500D01*
X494674Y393700D02*X501074D01*
X496274Y395300D02*X499474D01*
X496274D02*Y392100D01*
X499474D01*
Y395300D02*Y392100D01*
X507874Y341781D02*Y335381D01*
X504674Y338581D02*X511074D01*
X506274Y340181D02*X509474D01*
X506274D02*Y336981D01*
X509474D01*
Y340181D02*Y336981D01*
X517874Y341781D02*Y335381D01*
X514674Y338581D02*X521074D01*
X516274Y340181D02*X519474D01*
X516274D02*Y336981D01*
X519474D01*
Y340181D02*Y336981D01*
X497874Y341781D02*Y335381D01*
X494674Y338581D02*X501074D01*
X496274Y340181D02*X499474D01*
X496274D02*Y336981D01*
X499474D01*
Y340181D02*Y336981D01*
X507874Y231545D02*Y225145D01*
X504674Y228345D02*X511074D01*
X506274Y229945D02*X509474D01*
X506274D02*Y226745D01*
X509474D01*
Y229945D02*Y226745D01*
X517874Y231545D02*Y225145D01*
X514674Y228345D02*X521074D01*
X516274Y229945D02*X519474D01*
X516274D02*Y226745D01*
X519474D01*
Y229945D02*Y226745D01*
X497874Y231545D02*Y225145D01*
X494674Y228345D02*X501074D01*
X496274Y229945D02*X499474D01*
X496274D02*Y226745D01*
X499474D01*
Y229945D02*Y226745D01*
X350394Y562254D02*Y555854D01*
X347194Y559054D02*X353594D01*
X348794Y560654D02*X351994D01*
X348794D02*Y557454D01*
X351994D01*
Y560654D02*Y557454D01*
X360394Y562254D02*Y555854D01*
X357194Y559054D02*X363594D01*
X358794Y560654D02*X361994D01*
X358794D02*Y557454D01*
X361994D01*
Y560654D02*Y557454D01*
X340394Y562254D02*Y555854D01*
X337194Y559054D02*X343594D01*
X338794Y560654D02*X341994D01*
X338794D02*Y557454D01*
X341994D01*
Y560654D02*Y557454D01*
X507874Y121309D02*Y114909D01*
X504674Y118109D02*X511074D01*
X506274Y119709D02*X509474D01*
X506274D02*Y116509D01*
X509474D01*
Y119709D02*Y116509D01*
X517874Y121309D02*Y114909D01*
X514674Y118109D02*X521074D01*
X516274Y119709D02*X519474D01*
X516274D02*Y116509D01*
X519474D01*
Y119709D02*Y116509D01*
X497874Y121309D02*Y114909D01*
X494674Y118109D02*X501074D01*
X496274Y119709D02*X499474D01*
X496274D02*Y116509D01*
X499474D01*
Y119709D02*Y116509D01*
X188976Y341781D02*Y335381D01*
X185776Y338581D02*X192176D01*
X187376Y340181D02*X190576D01*
X187376D02*Y336981D01*
X190576D01*
Y340181D02*Y336981D01*
X198976Y341781D02*Y335381D01*
X195776Y338581D02*X202176D01*
X197376Y340181D02*X200576D01*
X197376D02*Y336981D01*
X200576D01*
Y340181D02*Y336981D01*
X178976Y341781D02*Y335381D01*
X175776Y338581D02*X182176D01*
X177376Y340181D02*X180576D01*
X177376D02*Y336981D01*
X180576D01*
Y340181D02*Y336981D01*
X507874Y176427D02*Y170027D01*
X504674Y173227D02*X511074D01*
X506274Y174827D02*X509474D01*
X506274D02*Y171627D01*
X509474D01*
Y174827D02*Y171627D01*
X517874Y176427D02*Y170027D01*
X514674Y173227D02*X521074D01*
X516274Y174827D02*X519474D01*
X516274D02*Y171627D01*
X519474D01*
Y174827D02*Y171627D01*
X497874Y176427D02*Y170027D01*
X494674Y173227D02*X501074D01*
X496274Y174827D02*X499474D01*
X496274D02*Y171627D01*
X499474D01*
Y174827D02*Y171627D01*
X507874Y66191D02*Y59791D01*
X504674Y62991D02*X511074D01*
X506274Y64591D02*X509474D01*
X506274D02*Y61391D01*
X509474D01*
Y64591D02*Y61391D01*
X517874Y66191D02*Y59791D01*
X514674Y62991D02*X521074D01*
X516274Y64591D02*X519474D01*
X516274D02*Y61391D01*
X519474D01*
Y64591D02*Y61391D01*
X497874Y66191D02*Y59791D01*
X494674Y62991D02*X501074D01*
X496274Y64591D02*X499474D01*
X496274D02*Y61391D01*
X499474D01*
Y64591D02*Y61391D01*
X188976Y452018D02*Y445618D01*
X185776Y448818D02*X192176D01*
X187376Y450418D02*X190576D01*
X187376D02*Y447218D01*
X190576D01*
Y450418D02*Y447218D01*
X198976Y452018D02*Y445618D01*
X195776Y448818D02*X202176D01*
X197376Y450418D02*X200576D01*
X197376D02*Y447218D01*
X200576D01*
Y450418D02*Y447218D01*
X178976Y452018D02*Y445618D01*
X175776Y448818D02*X182176D01*
X177376Y450418D02*X180576D01*
X177376D02*Y447218D01*
X180576D01*
Y450418D02*Y447218D01*
X350394Y396900D02*Y390500D01*
X347194Y393700D02*X353594D01*
X348794Y395300D02*X351994D01*
X348794D02*Y392100D01*
X351994D01*
Y395300D02*Y392100D01*
X360394Y396900D02*Y390500D01*
X357194Y393700D02*X363594D01*
X358794Y395300D02*X361994D01*
X358794D02*Y392100D01*
X361994D01*
Y395300D02*Y392100D01*
X340394Y396900D02*Y390500D01*
X337194Y393700D02*X343594D01*
X338794Y395300D02*X341994D01*
X338794D02*Y392100D01*
X341994D01*
Y395300D02*Y392100D01*
X350394Y341781D02*Y335381D01*
X347194Y338581D02*X353594D01*
X348794Y340181D02*X351994D01*
X348794D02*Y336981D01*
X351994D01*
Y340181D02*Y336981D01*
X360394Y341781D02*Y335381D01*
X357194Y338581D02*X363594D01*
X358794Y340181D02*X361994D01*
X358794D02*Y336981D01*
X361994D01*
Y340181D02*Y336981D01*
X340394Y341781D02*Y335381D01*
X337194Y338581D02*X343594D01*
X338794Y340181D02*X341994D01*
X338794D02*Y336981D01*
X341994D01*
Y340181D02*Y336981D01*
X350394Y286663D02*Y280263D01*
X347194Y283463D02*X353594D01*
X348794Y285063D02*X351994D01*
X348794D02*Y281863D01*
X351994D01*
Y285063D02*Y281863D01*
X360394Y286663D02*Y280263D01*
X357194Y283463D02*X363594D01*
X358794Y285063D02*X361994D01*
X358794D02*Y281863D01*
X361994D01*
Y285063D02*Y281863D01*
X340394Y286663D02*Y280263D01*
X337194Y283463D02*X343594D01*
X338794Y285063D02*X341994D01*
X338794D02*Y281863D01*
X341994D01*
Y285063D02*Y281863D01*
X350394Y507136D02*Y500736D01*
X347194Y503936D02*X353594D01*
X348794Y505536D02*X351994D01*
X348794D02*Y502336D01*
X351994D01*
Y505536D02*Y502336D01*
X360394Y507136D02*Y500736D01*
X357194Y503936D02*X363594D01*
X358794Y505536D02*X361994D01*
X358794D02*Y502336D01*
X361994D01*
Y505536D02*Y502336D01*
X340394Y507136D02*Y500736D01*
X337194Y503936D02*X343594D01*
X338794Y505536D02*X341994D01*
X338794D02*Y502336D01*
X341994D01*
Y505536D02*Y502336D01*
X188976Y121309D02*Y114909D01*
X185776Y118109D02*X192176D01*
X187376Y119709D02*X190576D01*
X187376D02*Y116509D01*
X190576D01*
Y119709D02*Y116509D01*
X198976Y121309D02*Y114909D01*
X195776Y118109D02*X202176D01*
X197376Y119709D02*X200576D01*
X197376D02*Y116509D01*
X200576D01*
Y119709D02*Y116509D01*
X178976Y121309D02*Y114909D01*
X175776Y118109D02*X182176D01*
X177376Y119709D02*X180576D01*
X177376D02*Y116509D01*
X180576D01*
Y119709D02*Y116509D01*
X350394Y121309D02*Y114909D01*
X347194Y118109D02*X353594D01*
X348794Y119709D02*X351994D01*
X348794D02*Y116509D01*
X351994D01*
Y119709D02*Y116509D01*
X360394Y121309D02*Y114909D01*
X357194Y118109D02*X363594D01*
X358794Y119709D02*X361994D01*
X358794D02*Y116509D01*
X361994D01*
Y119709D02*Y116509D01*
X340394Y121309D02*Y114909D01*
X337194Y118109D02*X343594D01*
X338794Y119709D02*X341994D01*
X338794D02*Y116509D01*
X341994D01*
Y119709D02*Y116509D01*
X188976Y286663D02*Y280263D01*
X185776Y283463D02*X192176D01*
X187376Y285063D02*X190576D01*
X187376D02*Y281863D01*
X190576D01*
Y285063D02*Y281863D01*
X198976Y286663D02*Y280263D01*
X195776Y283463D02*X202176D01*
X197376Y285063D02*X200576D01*
X197376D02*Y281863D01*
X200576D01*
Y285063D02*Y281863D01*
X178976Y286663D02*Y280263D01*
X175776Y283463D02*X182176D01*
X177376Y285063D02*X180576D01*
X177376D02*Y281863D01*
X180576D01*
Y285063D02*Y281863D01*
X188976Y231545D02*Y225145D01*
X185776Y228345D02*X192176D01*
X187376Y229945D02*X190576D01*
X187376D02*Y226745D01*
X190576D01*
Y229945D02*Y226745D01*
X198976Y231545D02*Y225145D01*
X195776Y228345D02*X202176D01*
X197376Y229945D02*X200576D01*
X197376D02*Y226745D01*
X200576D01*
Y229945D02*Y226745D01*
X178976Y231545D02*Y225145D01*
X175776Y228345D02*X182176D01*
X177376Y229945D02*X180576D01*
X177376D02*Y226745D01*
X180576D01*
Y229945D02*Y226745D01*
X188976Y507136D02*Y500736D01*
X185776Y503936D02*X192176D01*
X187376Y505536D02*X190576D01*
X187376D02*Y502336D01*
X190576D01*
Y505536D02*Y502336D01*
X198976Y507136D02*Y500736D01*
X195776Y503936D02*X202176D01*
X197376Y505536D02*X200576D01*
X197376D02*Y502336D01*
X200576D01*
Y505536D02*Y502336D01*
X178976Y507136D02*Y500736D01*
X175776Y503936D02*X182176D01*
X177376Y505536D02*X180576D01*
X177376D02*Y502336D01*
X180576D01*
Y505536D02*Y502336D01*
X188976Y396900D02*Y390500D01*
X185776Y393700D02*X192176D01*
X187376Y395300D02*X190576D01*
X187376D02*Y392100D01*
X190576D01*
Y395300D02*Y392100D01*
X198976Y396900D02*Y390500D01*
X195776Y393700D02*X202176D01*
X197376Y395300D02*X200576D01*
X197376D02*Y392100D01*
X200576D01*
Y395300D02*Y392100D01*
X178976Y396900D02*Y390500D01*
X175776Y393700D02*X182176D01*
X177376Y395300D02*X180576D01*
X177376D02*Y392100D01*
X180576D01*
Y395300D02*Y392100D01*
X350394Y176427D02*Y170027D01*
X347194Y173227D02*X353594D01*
X348794Y174827D02*X351994D01*
X348794D02*Y171627D01*
X351994D01*
Y174827D02*Y171627D01*
X360394Y176427D02*Y170027D01*
X357194Y173227D02*X363594D01*
X358794Y174827D02*X361994D01*
X358794D02*Y171627D01*
X361994D01*
Y174827D02*Y171627D01*
X340394Y176427D02*Y170027D01*
X337194Y173227D02*X343594D01*
X338794Y174827D02*X341994D01*
X338794D02*Y171627D01*
X341994D01*
Y174827D02*Y171627D01*
X15000Y695000D02*Y688600D01*
X11800Y691800D02*X18200D01*
X13400Y693400D02*X16600D01*
X13400D02*Y690200D01*
X16600D01*
Y693400D02*Y690200D01*
X135000Y694050D02*Y693300D01*
X136500Y691800D01*
X138000Y693300D01*
Y694050D02*Y693300D01*
X136500Y691800D02*Y688050D01*
X139801Y691050D02*X142051D01*
X139801Y688050D02*X142801D01*
X139801Y694050D02*Y688050D01*
Y694050D02*X142801D01*
X147603D02*X148353Y693300D01*
X145353Y694050D02*X147603D01*
X144603Y693300D02*X145353Y694050D01*
X144603Y693300D02*Y691800D01*
X145353Y691050D01*
X147603D01*
X148353Y690300D01*
Y688800D01*
X147603Y688050D02*X148353Y688800D01*
X145353Y688050D02*X147603D01*
X144603Y688800D02*X145353Y688050D01*
X135000Y684799D02*X150154D01*
X98000Y688050D02*X101000Y691050D01*
Y693300D02*Y691050D01*
X100250Y694050D02*X101000Y693300D01*
X98750Y694050D02*X100250D01*
X98000Y693300D02*X98750Y694050D01*
X98000Y693300D02*Y691800D01*
X98750Y691050D01*
X101000D01*
X102801Y688800D02*X103551Y688050D01*
X102801Y693300D02*Y688800D01*
Y693300D02*X103551Y694050D01*
X105051D01*
X105801Y693300D01*
Y688800D01*
X105051Y688050D02*X105801Y688800D01*
X103551Y688050D02*X105051D01*
X102801Y689550D02*X105801Y692550D01*
X98000Y684799D02*X107603D01*
X45000Y688800D02*X45750Y688050D01*
X45000Y693300D02*Y688800D01*
Y693300D02*X45750Y694050D01*
X47250D01*
X48000Y693300D01*
Y688800D01*
X47250Y688050D02*X48000Y688800D01*
X45750Y688050D02*X47250D01*
X45000Y689550D02*X48000Y692550D01*
X49801Y688050D02*X50551D01*
X52353Y688800D02*X53103Y688050D01*
X52353Y693300D02*Y688800D01*
Y693300D02*X53103Y694050D01*
X54603D01*
X55353Y693300D01*
Y688800D01*
X54603Y688050D02*X55353Y688800D01*
X53103Y688050D02*X54603D01*
X52353Y689550D02*X55353Y692550D01*
X57154Y691050D02*X60154Y694050D01*
X57154Y691050D02*X60904D01*
X60154Y694050D02*Y688050D01*
X62706Y693300D02*X63456Y694050D01*
X65706D01*
X66456Y693300D01*
Y691800D01*
X62706Y688050D02*X66456Y691800D01*
X62706Y688050D02*X66456D01*
X45000Y684799D02*X68257D01*
X1188976Y244093D02*Y240893D01*
Y244093D02*X1191749Y245693D01*
X1188976Y244093D02*X1186203Y245693D01*
X1187376Y244093D02*G75*G03X1190576Y244093I1600J0D01*G01*
G75*G03X1187376Y244093I-1600J0D01*G01*
X1188976Y204723D02*Y201523D01*
Y204723D02*X1191749Y206323D01*
X1188976Y204723D02*X1186203Y206323D01*
X1187376Y204723D02*G75*G03X1190576Y204723I1600J0D01*G01*
G75*G03X1187376Y204723I-1600J0D01*G01*
X1188976Y224408D02*Y221208D01*
Y224408D02*X1191749Y226008D01*
X1188976Y224408D02*X1186203Y226008D01*
X1187376Y224408D02*G75*G03X1190576Y224408I1600J0D01*G01*
G75*G03X1187376Y224408I-1600J0D01*G01*
X1188976Y472440D02*Y469240D01*
Y472440D02*X1191749Y474040D01*
X1188976Y472440D02*X1186203Y474040D01*
X1187376Y472440D02*G75*G03X1190576Y472440I1600J0D01*G01*
G75*G03X1187376Y472440I-1600J0D01*G01*
X1188976Y452755D02*Y449555D01*
Y452755D02*X1191749Y454355D01*
X1188976Y452755D02*X1186203Y454355D01*
X1187376Y452755D02*G75*G03X1190576Y452755I1600J0D01*G01*
G75*G03X1187376Y452755I-1600J0D01*G01*
X1188976Y519684D02*Y516484D01*
Y519684D02*X1191749Y521284D01*
X1188976Y519684D02*X1186203Y521284D01*
X1187376Y519684D02*G75*G03X1190576Y519684I1600J0D01*G01*
G75*G03X1187376Y519684I-1600J0D01*G01*
X1188976Y499999D02*Y496799D01*
Y499999D02*X1191749Y501599D01*
X1188976Y499999D02*X1186203Y501599D01*
X1187376Y499999D02*G75*G03X1190576Y499999I1600J0D01*G01*
G75*G03X1187376Y499999I-1600J0D01*G01*
X1188976Y137794D02*Y134594D01*
Y137794D02*X1191749Y139394D01*
X1188976Y137794D02*X1186203Y139394D01*
X1187376Y137794D02*G75*G03X1190576Y137794I1600J0D01*G01*
G75*G03X1187376Y137794I-1600J0D01*G01*
X1188976Y157479D02*Y154279D01*
Y157479D02*X1191749Y159079D01*
X1188976Y157479D02*X1186203Y159079D01*
X1187376Y157479D02*G75*G03X1190576Y157479I1600J0D01*G01*
G75*G03X1187376Y157479I-1600J0D01*G01*
X1188976Y177164D02*Y173964D01*
Y177164D02*X1191749Y178764D01*
X1188976Y177164D02*X1186203Y178764D01*
X1187376Y177164D02*G75*G03X1190576Y177164I1600J0D01*G01*
G75*G03X1187376Y177164I-1600J0D01*G01*
X1188976Y98424D02*Y95224D01*
Y98424D02*X1191749Y100024D01*
X1188976Y98424D02*X1186203Y100024D01*
X1187376Y98424D02*G75*G03X1190576Y98424I1600J0D01*G01*
G75*G03X1187376Y98424I-1600J0D01*G01*
X1188976Y118109D02*Y114909D01*
Y118109D02*X1191749Y119709D01*
X1188976Y118109D02*X1186203Y119709D01*
X1187376Y118109D02*G75*G03X1190576Y118109I1600J0D01*G01*
G75*G03X1187376Y118109I-1600J0D01*G01*
X1188976Y425196D02*Y421996D01*
Y425196D02*X1191749Y426796D01*
X1188976Y425196D02*X1186203Y426796D01*
X1187376Y425196D02*G75*G03X1190576Y425196I1600J0D01*G01*
G75*G03X1187376Y425196I-1600J0D01*G01*
X1188976Y385826D02*Y382626D01*
Y385826D02*X1191749Y387426D01*
X1188976Y385826D02*X1186203Y387426D01*
X1187376Y385826D02*G75*G03X1190576Y385826I1600J0D01*G01*
G75*G03X1187376Y385826I-1600J0D01*G01*
X1188976Y405511D02*Y402311D01*
Y405511D02*X1191749Y407111D01*
X1188976Y405511D02*X1186203Y407111D01*
X1187376Y405511D02*G75*G03X1190576Y405511I1600J0D01*G01*
G75*G03X1187376Y405511I-1600J0D01*G01*
X625984Y55117D02*Y51917D01*
Y55117D02*X628757Y56717D01*
X625984Y55117D02*X623211Y56717D01*
X624384Y55117D02*G75*G03X627584Y55117I1600J0D01*G01*
G75*G03X624384Y55117I-1600J0D01*G01*
X645669D02*Y51917D01*
Y55117D02*X648442Y56717D01*
X645669Y55117D02*X642896Y56717D01*
X644069Y55117D02*G75*G03X647269Y55117I1600J0D01*G01*
G75*G03X644069Y55117I-1600J0D01*G01*
X665354D02*Y51917D01*
Y55117D02*X668127Y56717D01*
X665354Y55117D02*X662581Y56717D01*
X663754Y55117D02*G75*G03X666954Y55117I1600J0D01*G01*
G75*G03X663754Y55117I-1600J0D01*G01*
X685039D02*Y51917D01*
Y55117D02*X687812Y56717D01*
X685039Y55117D02*X682266Y56717D01*
X683439Y55117D02*G75*G03X686639Y55117I1600J0D01*G01*
G75*G03X683439Y55117I-1600J0D01*G01*
X704724D02*Y51917D01*
Y55117D02*X707497Y56717D01*
X704724Y55117D02*X701951Y56717D01*
X703124Y55117D02*G75*G03X706324Y55117I1600J0D01*G01*
G75*G03X703124Y55117I-1600J0D01*G01*
X724409D02*Y51917D01*
Y55117D02*X727182Y56717D01*
X724409Y55117D02*X721636Y56717D01*
X722809Y55117D02*G75*G03X726009Y55117I1600J0D01*G01*
G75*G03X722809Y55117I-1600J0D01*G01*
X744094D02*Y51917D01*
Y55117D02*X746867Y56717D01*
X744094Y55117D02*X741321Y56717D01*
X742494Y55117D02*G75*G03X745694Y55117I1600J0D01*G01*
G75*G03X742494Y55117I-1600J0D01*G01*
X763779D02*Y51917D01*
Y55117D02*X766552Y56717D01*
X763779Y55117D02*X761006Y56717D01*
X762179Y55117D02*G75*G03X765379Y55117I1600J0D01*G01*
G75*G03X762179Y55117I-1600J0D01*G01*
X834646D02*Y51917D01*
Y55117D02*X837419Y56717D01*
X834646Y55117D02*X831873Y56717D01*
X833046Y55117D02*G75*G03X836246Y55117I1600J0D01*G01*
G75*G03X833046Y55117I-1600J0D01*G01*
X854331D02*Y51917D01*
Y55117D02*X857104Y56717D01*
X854331Y55117D02*X851558Y56717D01*
X852731Y55117D02*G75*G03X855931Y55117I1600J0D01*G01*
G75*G03X852731Y55117I-1600J0D01*G01*
X874016D02*Y51917D01*
Y55117D02*X876789Y56717D01*
X874016Y55117D02*X871243Y56717D01*
X872416Y55117D02*G75*G03X875616Y55117I1600J0D01*G01*
G75*G03X872416Y55117I-1600J0D01*G01*
X795276D02*Y51917D01*
Y55117D02*X798049Y56717D01*
X795276Y55117D02*X792503Y56717D01*
X793676Y55117D02*G75*G03X796876Y55117I1600J0D01*G01*
G75*G03X793676Y55117I-1600J0D01*G01*
X814961D02*Y51917D01*
Y55117D02*X817734Y56717D01*
X814961Y55117D02*X812188Y56717D01*
X813361Y55117D02*G75*G03X816561Y55117I1600J0D01*G01*
G75*G03X813361Y55117I-1600J0D01*G01*
X925197D02*Y51917D01*
Y55117D02*X927970Y56717D01*
X925197Y55117D02*X922424Y56717D01*
X923597Y55117D02*G75*G03X926797Y55117I1600J0D01*G01*
G75*G03X923597Y55117I-1600J0D01*G01*
X944882D02*Y51917D01*
Y55117D02*X947655Y56717D01*
X944882Y55117D02*X942109Y56717D01*
X943282Y55117D02*G75*G03X946482Y55117I1600J0D01*G01*
G75*G03X943282Y55117I-1600J0D01*G01*
X964567D02*Y51917D01*
Y55117D02*X967340Y56717D01*
X964567Y55117D02*X961794Y56717D01*
X962967Y55117D02*G75*G03X966167Y55117I1600J0D01*G01*
G75*G03X962967Y55117I-1600J0D01*G01*
X984252D02*Y51917D01*
Y55117D02*X987025Y56717D01*
X984252Y55117D02*X981479Y56717D01*
X982652Y55117D02*G75*G03X985852Y55117I1600J0D01*G01*
G75*G03X982652Y55117I-1600J0D01*G01*
X1003937D02*Y51917D01*
Y55117D02*X1006710Y56717D01*
X1003937Y55117D02*X1001164Y56717D01*
X1002337Y55117D02*G75*G03X1005537Y55117I1600J0D01*G01*
G75*G03X1002337Y55117I-1600J0D01*G01*
X1023622D02*Y51917D01*
Y55117D02*X1026395Y56717D01*
X1023622Y55117D02*X1020849Y56717D01*
X1022022Y55117D02*G75*G03X1025222Y55117I1600J0D01*G01*
G75*G03X1022022Y55117I-1600J0D01*G01*
X905512D02*Y51917D01*
Y55117D02*X908285Y56717D01*
X905512Y55117D02*X902739Y56717D01*
X903912Y55117D02*G75*G03X907112Y55117I1600J0D01*G01*
G75*G03X903912Y55117I-1600J0D01*G01*
X1055118D02*Y51917D01*
Y55117D02*X1057891Y56717D01*
X1055118Y55117D02*X1052345Y56717D01*
X1053518Y55117D02*G75*G03X1056718Y55117I1600J0D01*G01*
G75*G03X1053518Y55117I-1600J0D01*G01*
X1074803D02*Y51917D01*
Y55117D02*X1077576Y56717D01*
X1074803Y55117D02*X1072030Y56717D01*
X1073203Y55117D02*G75*G03X1076403Y55117I1600J0D01*G01*
G75*G03X1073203Y55117I-1600J0D01*G01*
X1094488D02*Y51917D01*
Y55117D02*X1097261Y56717D01*
X1094488Y55117D02*X1091715Y56717D01*
X1092888Y55117D02*G75*G03X1096088Y55117I1600J0D01*G01*
G75*G03X1092888Y55117I-1600J0D01*G01*
X1114173D02*Y51917D01*
Y55117D02*X1116946Y56717D01*
X1114173Y55117D02*X1111400Y56717D01*
X1112573Y55117D02*G75*G03X1115773Y55117I1600J0D01*G01*
G75*G03X1112573Y55117I-1600J0D01*G01*
X1133858D02*Y51917D01*
Y55117D02*X1136631Y56717D01*
X1133858Y55117D02*X1131085Y56717D01*
X1132258Y55117D02*G75*G03X1135458Y55117I1600J0D01*G01*
G75*G03X1132258Y55117I-1600J0D01*G01*
X1153543D02*Y51917D01*
Y55117D02*X1156316Y56717D01*
X1153543Y55117D02*X1150770Y56717D01*
X1151943Y55117D02*G75*G03X1155143Y55117I1600J0D01*G01*
G75*G03X1151943Y55117I-1600J0D01*G01*
X1173228D02*Y51917D01*
Y55117D02*X1176001Y56717D01*
X1173228Y55117D02*X1170455Y56717D01*
X1171628Y55117D02*G75*G03X1174828Y55117I1600J0D01*G01*
G75*G03X1171628Y55117I-1600J0D01*G01*
X1192913D02*Y51917D01*
Y55117D02*X1195686Y56717D01*
X1192913Y55117D02*X1190140Y56717D01*
X1191313Y55117D02*G75*G03X1194513Y55117I1600J0D01*G01*
G75*G03X1191313Y55117I-1600J0D01*G01*
X1188976Y311022D02*Y307822D01*
Y311022D02*X1191749Y312622D01*
X1188976Y311022D02*X1186203Y312622D01*
X1187376Y311022D02*G75*G03X1190576Y311022I1600J0D01*G01*
G75*G03X1187376Y311022I-1600J0D01*G01*
X1188976Y271652D02*Y268452D01*
Y271652D02*X1191749Y273252D01*
X1188976Y271652D02*X1186203Y273252D01*
X1187376Y271652D02*G75*G03X1190576Y271652I1600J0D01*G01*
G75*G03X1187376Y271652I-1600J0D01*G01*
X1188976Y291337D02*Y288137D01*
Y291337D02*X1191749Y292937D01*
X1188976Y291337D02*X1186203Y292937D01*
X1187376Y291337D02*G75*G03X1190576Y291337I1600J0D01*G01*
G75*G03X1187376Y291337I-1600J0D01*G01*
X15000Y706800D02*Y703600D01*
Y706800D02*X17773Y708400D01*
X15000Y706800D02*X12227Y708400D01*
X13400Y706800D02*G75*G03X16600Y706800I1600J0D01*G01*
G75*G03X13400Y706800I-1600J0D01*G01*
X135000Y709050D02*Y708300D01*
X136500Y706800D01*
X138000Y708300D01*
Y709050D02*Y708300D01*
X136500Y706800D02*Y703050D01*
X139801Y706050D02*X142051D01*
X139801Y703050D02*X142801D01*
X139801Y709050D02*Y703050D01*
Y709050D02*X142801D01*
X147603D02*X148353Y708300D01*
X145353Y709050D02*X147603D01*
X144603Y708300D02*X145353Y709050D01*
X144603Y708300D02*Y706800D01*
X145353Y706050D01*
X147603D01*
X148353Y705300D01*
Y703800D01*
X147603Y703050D02*X148353Y703800D01*
X145353Y703050D02*X147603D01*
X144603Y703800D02*X145353Y703050D01*
X135000Y699799D02*X150154D01*
X98000Y706050D02*X101000Y709050D01*
X98000Y706050D02*X101750D01*
X101000Y709050D02*Y703050D01*
X105801Y709050D02*X106551Y708300D01*
X104301Y709050D02*X105801D01*
X103551Y708300D02*X104301Y709050D01*
X103551Y708300D02*Y703800D01*
X104301Y703050D01*
X105801Y706050D02*X106551Y705300D01*
X103551Y706050D02*X105801D01*
X104301Y703050D02*X105801D01*
X106551Y703800D01*
Y705300D02*Y703800D01*
X98000Y699799D02*X108353D01*
X45000Y703800D02*X45750Y703050D01*
X45000Y708300D02*Y703800D01*
Y708300D02*X45750Y709050D01*
X47250D01*
X48000Y708300D01*
Y703800D01*
X47250Y703050D02*X48000Y703800D01*
X45750Y703050D02*X47250D01*
X45000Y704550D02*X48000Y707550D01*
X49801Y703050D02*X50551D01*
X52353Y703800D02*X53103Y703050D01*
X52353Y708300D02*Y703800D01*
Y708300D02*X53103Y709050D01*
X54603D01*
X55353Y708300D01*
Y703800D01*
X54603Y703050D02*X55353Y703800D01*
X53103Y703050D02*X54603D01*
X52353Y704550D02*X55353Y707550D01*
X57154Y708300D02*X57904Y709050D01*
X59404D01*
X60154Y708300D01*
Y703800D01*
X59404Y703050D02*X60154Y703800D01*
X57904Y703050D02*X59404D01*
X57154Y703800D02*X57904Y703050D01*
Y706050D02*X60154D01*
X61956Y703050D02*X64956Y706050D01*
Y708300D02*Y706050D01*
X64206Y709050D02*X64956Y708300D01*
X62706Y709050D02*X64206D01*
X61956Y708300D02*X62706Y709050D01*
X61956Y708300D02*Y706800D01*
X62706Y706050D01*
X64956D01*
X45000Y699799D02*X66757D01*
X703124Y550457D02*X706324D01*
X703124D02*Y547257D01*
X706324D01*
Y550457D02*Y547257D01*
X703124Y540457D02*X706324D01*
X703124D02*Y537257D01*
X706324D01*
Y540457D02*Y537257D01*
X703124Y530457D02*X706324D01*
X703124D02*Y527257D01*
X706324D01*
Y530457D02*Y527257D01*
X703124Y520457D02*X706324D01*
X703124D02*Y517257D01*
X706324D01*
Y520457D02*Y517257D01*
X703124Y510457D02*X706324D01*
X703124D02*Y507257D01*
X706324D01*
Y510457D02*Y507257D01*
X703124Y500457D02*X706324D01*
X703124D02*Y497257D01*
X706324D01*
Y500457D02*Y497257D01*
X809424Y173016D02*X812624D01*
X809424D02*Y169816D01*
X812624D01*
Y173016D02*Y169816D01*
X809424Y163016D02*X812624D01*
X809424D02*Y159816D01*
X812624D01*
Y163016D02*Y159816D01*
X809424Y153016D02*X812624D01*
X809424D02*Y149816D01*
X812624D01*
Y153016D02*Y149816D01*
X809424Y143016D02*X812624D01*
X809424D02*Y139816D01*
X812624D01*
Y143016D02*Y139816D01*
X809424Y133016D02*X812624D01*
X809424D02*Y129816D01*
X812624D01*
Y133016D02*Y129816D01*
X809424Y123016D02*X812624D01*
X809424D02*Y119816D01*
X812624D01*
Y123016D02*Y119816D01*
X720841Y211048D02*X724041D01*
X720841D02*Y207848D01*
X724041D01*
Y211048D02*Y207848D01*
X730841Y211048D02*X734041D01*
X730841D02*Y207848D01*
X734041D01*
Y211048D02*Y207848D01*
X720841Y201048D02*X724041D01*
X720841D02*Y197848D01*
X724041D01*
Y201048D02*Y197848D01*
X730841Y201048D02*X734041D01*
X730841D02*Y197848D01*
X734041D01*
Y201048D02*Y197848D01*
X720841Y191048D02*X724041D01*
X720841D02*Y187848D01*
X724041D01*
Y191048D02*Y187848D01*
X730841Y191048D02*X734041D01*
X730841D02*Y187848D01*
X734041D01*
Y191048D02*Y187848D01*
X720841Y181048D02*X724041D01*
X720841D02*Y177848D01*
X724041D01*
Y181048D02*Y177848D01*
X730841Y181048D02*X734041D01*
X730841D02*Y177848D01*
X734041D01*
Y181048D02*Y177848D01*
X720841Y171048D02*X724041D01*
X720841D02*Y167848D01*
X724041D01*
Y171048D02*Y167848D01*
X730841Y171048D02*X734041D01*
X730841D02*Y167848D01*
X734041D01*
Y171048D02*Y167848D01*
X720841Y161048D02*X724041D01*
X720841D02*Y157848D01*
X724041D01*
Y161048D02*Y157848D01*
X730841Y161048D02*X734041D01*
X730841D02*Y157848D01*
X734041D01*
Y161048D02*Y157848D01*
X720841Y151048D02*X724041D01*
X720841D02*Y147848D01*
X724041D01*
Y151048D02*Y147848D01*
X730841Y151048D02*X734041D01*
X730841D02*Y147848D01*
X734041D01*
Y151048D02*Y147848D01*
X720841Y141048D02*X724041D01*
X720841D02*Y137848D01*
X724041D01*
Y141048D02*Y137848D01*
X730841Y141048D02*X734041D01*
X730841D02*Y137848D01*
X734041D01*
Y141048D02*Y137848D01*
X13400Y723400D02*X16600D01*
X13400D02*Y720200D01*
X16600D01*
Y723400D02*Y720200D01*
X135000Y724050D02*Y723300D01*
X136500Y721800D01*
X138000Y723300D01*
Y724050D02*Y723300D01*
X136500Y721800D02*Y718050D01*
X139801Y721050D02*X142051D01*
X139801Y718050D02*X142801D01*
X139801Y724050D02*Y718050D01*
Y724050D02*X142801D01*
X147603D02*X148353Y723300D01*
X145353Y724050D02*X147603D01*
X144603Y723300D02*X145353Y724050D01*
X144603Y723300D02*Y721800D01*
X145353Y721050D01*
X147603D01*
X148353Y720300D01*
Y718800D01*
X147603Y718050D02*X148353Y718800D01*
X145353Y718050D02*X147603D01*
X144603Y718800D02*X145353Y718050D01*
X135000Y714799D02*X150154D01*
X98000Y723300D02*X98750Y724050D01*
X101000D01*
X101750Y723300D01*
Y721800D01*
X98000Y718050D02*X101750Y721800D01*
X98000Y718050D02*X101750D01*
X103551Y718800D02*X104301Y718050D01*
X103551Y720300D02*Y718800D01*
Y720300D02*X104301Y721050D01*
X105801D01*
X106551Y720300D01*
Y718800D01*
X105801Y718050D02*X106551Y718800D01*
X104301Y718050D02*X105801D01*
X103551Y721800D02*X104301Y721050D01*
X103551Y723300D02*Y721800D01*
Y723300D02*X104301Y724050D01*
X105801D01*
X106551Y723300D01*
Y721800D01*
X105801Y721050D02*X106551Y721800D01*
X98000Y714799D02*X108353D01*
X45000Y718800D02*X45750Y718050D01*
X45000Y723300D02*Y718800D01*
Y723300D02*X45750Y724050D01*
X47250D01*
X48000Y723300D01*
Y718800D01*
X47250Y718050D02*X48000Y718800D01*
X45750Y718050D02*X47250D01*
X45000Y719550D02*X48000Y722550D01*
X49801Y718050D02*X50551D01*
X52353Y718800D02*X53103Y718050D01*
X52353Y723300D02*Y718800D01*
Y723300D02*X53103Y724050D01*
X54603D01*
X55353Y723300D01*
Y718800D01*
X54603Y718050D02*X55353Y718800D01*
X53103Y718050D02*X54603D01*
X52353Y719550D02*X55353Y722550D01*
X57154Y723300D02*X57904Y724050D01*
X59404D01*
X60154Y723300D01*
Y718800D01*
X59404Y718050D02*X60154Y718800D01*
X57904Y718050D02*X59404D01*
X57154Y718800D02*X57904Y718050D01*
Y721050D02*X60154D01*
X61956Y718800D02*X62706Y718050D01*
X61956Y720300D02*Y718800D01*
Y720300D02*X62706Y721050D01*
X64206D01*
X64956Y720300D01*
Y718800D01*
X64206Y718050D02*X64956Y718800D01*
X62706Y718050D02*X64206D01*
X61956Y721800D02*X62706Y721050D01*
X61956Y723300D02*Y721800D01*
Y723300D02*X62706Y724050D01*
X64206D01*
X64956Y723300D01*
Y721800D01*
X64206Y721050D02*X64956Y721800D01*
X45000Y714799D02*X66757D01*
X755106Y212597D02*G75*G03X756706Y212597I800J0D01*G01*
G75*G03X755106Y212597I-800J0D01*G01*
X778728D02*G75*G03X780328Y212597I800J0D01*G01*
G75*G03X778728Y212597I-800J0D01*G01*
X786602Y204723D02*G75*G03X788202Y204723I800J0D01*G01*
G75*G03X786602Y204723I-800J0D01*G01*
X14200Y736800D02*G75*G03X15800Y736800I800J0D01*G01*
G75*G03X14200Y736800I-800J0D01*G01*
X135000Y739050D02*Y738300D01*
X136500Y736800D01*
X138000Y738300D01*
Y739050D02*Y738300D01*
X136500Y736800D02*Y733050D01*
X139801Y736050D02*X142051D01*
X139801Y733050D02*X142801D01*
X139801Y739050D02*Y733050D01*
Y739050D02*X142801D01*
X147603D02*X148353Y738300D01*
X145353Y739050D02*X147603D01*
X144603Y738300D02*X145353Y739050D01*
X144603Y738300D02*Y736800D01*
X145353Y736050D01*
X147603D01*
X148353Y735300D01*
Y733800D01*
X147603Y733050D02*X148353Y733800D01*
X145353Y733050D02*X147603D01*
X144603Y733800D02*X145353Y733050D01*
X135000Y729799D02*X150154D01*
X98000Y738300D02*X98750Y739050D01*
X100250D01*
X101000Y738300D01*
Y733800D01*
X100250Y733050D02*X101000Y733800D01*
X98750Y733050D02*X100250D01*
X98000Y733800D02*X98750Y733050D01*
Y736050D02*X101000D01*
X98000Y729799D02*X102801D01*
X45000Y733800D02*X45750Y733050D01*
X45000Y738300D02*Y733800D01*
Y738300D02*X45750Y739050D01*
X47250D01*
X48000Y738300D01*
Y733800D01*
X47250Y733050D02*X48000Y733800D01*
X45750Y733050D02*X47250D01*
X45000Y734550D02*X48000Y737550D01*
X49801Y733050D02*X50551D01*
X52353Y733800D02*X53103Y733050D01*
X52353Y738300D02*Y733800D01*
Y738300D02*X53103Y739050D01*
X54603D01*
X55353Y738300D01*
Y733800D01*
X54603Y733050D02*X55353Y733800D01*
X53103Y733050D02*X54603D01*
X52353Y734550D02*X55353Y737550D01*
X57154Y738300D02*X57904Y739050D01*
X59404D01*
X60154Y738300D01*
Y733800D01*
X59404Y733050D02*X60154Y733800D01*
X57904Y733050D02*X59404D01*
X57154Y733800D02*X57904Y733050D01*
Y736050D02*X60154D01*
X61956Y739050D02*X64956D01*
X61956D02*Y736050D01*
X62706Y736800D01*
X64206D01*
X64956Y736050D01*
Y733800D01*
X64206Y733050D02*X64956Y733800D01*
X62706Y733050D02*X64206D01*
X61956Y733800D02*X62706Y733050D01*
X45000Y729799D02*X66757D01*
X573603Y129152D02*X576003Y126752D01*
X573603D02*X576003Y129152D01*
X13800Y753000D02*X16200Y750600D01*
X13800D02*X16200Y753000D01*
X135000Y754050D02*Y753300D01*
X136500Y751800D01*
X138000Y753300D01*
Y754050D02*Y753300D01*
X136500Y751800D02*Y748050D01*
X139801Y751050D02*X142051D01*
X139801Y748050D02*X142801D01*
X139801Y754050D02*Y748050D01*
Y754050D02*X142801D01*
X147603D02*X148353Y753300D01*
X145353Y754050D02*X147603D01*
X144603Y753300D02*X145353Y754050D01*
X144603Y753300D02*Y751800D01*
X145353Y751050D01*
X147603D01*
X148353Y750300D01*
Y748800D01*
X147603Y748050D02*X148353Y748800D01*
X145353Y748050D02*X147603D01*
X144603Y748800D02*X145353Y748050D01*
X135000Y744799D02*X150154D01*
X98750Y748050D02*X100250D01*
X99500Y754050D02*Y748050D01*
X98000Y752550D02*X99500Y754050D01*
X98000Y744799D02*X102051D01*
X45000Y748800D02*X45750Y748050D01*
X45000Y753300D02*Y748800D01*
Y753300D02*X45750Y754050D01*
X47250D01*
X48000Y753300D01*
Y748800D01*
X47250Y748050D02*X48000Y748800D01*
X45750Y748050D02*X47250D01*
X45000Y749550D02*X48000Y752550D01*
X49801Y748050D02*X50551D01*
X52353Y748800D02*X53103Y748050D01*
X52353Y753300D02*Y748800D01*
Y753300D02*X53103Y754050D01*
X54603D01*
X55353Y753300D01*
Y748800D01*
X54603Y748050D02*X55353Y748800D01*
X53103Y748050D02*X54603D01*
X52353Y749550D02*X55353Y752550D01*
X57154Y753300D02*X57904Y754050D01*
X59404D01*
X60154Y753300D01*
Y748800D01*
X59404Y748050D02*X60154Y748800D01*
X57904Y748050D02*X59404D01*
X57154Y748800D02*X57904Y748050D01*
Y751050D02*X60154D01*
X61956D02*X64956Y754050D01*
X61956Y751050D02*X65706D01*
X64956Y754050D02*Y748050D01*
X45000Y744799D02*X67507D01*
X688976Y461481D02*Y458281D01*
X687376Y459881D02*X690576D01*
X688976Y446481D02*Y443281D01*
X687376Y444881D02*X690576D01*
X925197Y206323D02*Y203123D01*
X923597Y204723D02*X926797D01*
X940197Y206323D02*Y203123D01*
X938597Y204723D02*X941797D01*
X590551Y540418D02*Y537218D01*
X588951Y538818D02*X592151D01*
X590551Y530418D02*Y527218D01*
X588951Y528818D02*X592151D01*
X590551Y520418D02*Y517218D01*
X588951Y518818D02*X592151D01*
X590551Y510418D02*Y507218D01*
X588951Y508818D02*X592151D01*
X590551Y500418D02*Y497218D01*
X588951Y498818D02*X592151D01*
X590551Y490418D02*Y487218D01*
X588951Y488818D02*X592151D01*
X590551Y480418D02*Y477218D01*
X588951Y478818D02*X592151D01*
X590551Y470418D02*Y467218D01*
X588951Y468818D02*X592151D01*
X590551Y460418D02*Y457218D01*
X588951Y458818D02*X592151D01*
X590551Y450418D02*Y447218D01*
X588951Y448818D02*X592151D01*
X590551Y440418D02*Y437218D01*
X588951Y438818D02*X592151D01*
X590551Y430418D02*Y427218D01*
X588951Y428818D02*X592151D01*
X590551Y420418D02*Y417218D01*
X588951Y418818D02*X592151D01*
X590551Y410418D02*Y407218D01*
X588951Y408818D02*X592151D01*
X590551Y400418D02*Y397218D01*
X588951Y398818D02*X592151D01*
X590551Y390418D02*Y387218D01*
X588951Y388818D02*X592151D01*
X590551Y380418D02*Y377218D01*
X588951Y378818D02*X592151D01*
X590551Y370418D02*Y367218D01*
X588951Y368818D02*X592151D01*
X590551Y360418D02*Y357218D01*
X588951Y358818D02*X592151D01*
X590551Y350418D02*Y347218D01*
X588951Y348818D02*X592151D01*
X650551Y350418D02*Y347218D01*
X648951Y348818D02*X652151D01*
X650551Y360418D02*Y357218D01*
X648951Y358818D02*X652151D01*
X650551Y370418D02*Y367218D01*
X648951Y368818D02*X652151D01*
X650551Y380418D02*Y377218D01*
X648951Y378818D02*X652151D01*
X650551Y390418D02*Y387218D01*
X648951Y388818D02*X652151D01*
X650551Y400418D02*Y397218D01*
X648951Y398818D02*X652151D01*
X650551Y410418D02*Y407218D01*
X648951Y408818D02*X652151D01*
X650551Y420418D02*Y417218D01*
X648951Y418818D02*X652151D01*
X650551Y430418D02*Y427218D01*
X648951Y428818D02*X652151D01*
X650551Y440418D02*Y437218D01*
X648951Y438818D02*X652151D01*
X650551Y450418D02*Y447218D01*
X648951Y448818D02*X652151D01*
X650551Y460418D02*Y457218D01*
X648951Y458818D02*X652151D01*
X650551Y470418D02*Y467218D01*
X648951Y468818D02*X652151D01*
X650551Y480418D02*Y477218D01*
X648951Y478818D02*X652151D01*
X650551Y490418D02*Y487218D01*
X648951Y488818D02*X652151D01*
X650551Y500418D02*Y497218D01*
X648951Y498818D02*X652151D01*
X650551Y510418D02*Y507218D01*
X648951Y508818D02*X652151D01*
X650551Y520418D02*Y517218D01*
X648951Y518818D02*X652151D01*
X650551Y530418D02*Y527218D01*
X648951Y528818D02*X652151D01*
X650551Y540418D02*Y537218D01*
X648951Y538818D02*X652151D01*
X849448Y121441D02*Y118241D01*
X847848Y119841D02*X851048D01*
X859448Y121441D02*Y118241D01*
X857848Y119841D02*X861048D01*
X869448Y121441D02*Y118241D01*
X867848Y119841D02*X871048D01*
X879448Y121441D02*Y118241D01*
X877848Y119841D02*X881048D01*
X889448Y121441D02*Y118241D01*
X887848Y119841D02*X891048D01*
X899448Y121441D02*Y118241D01*
X897848Y119841D02*X901048D01*
X909448Y121441D02*Y118241D01*
X907848Y119841D02*X911048D01*
X919448Y121441D02*Y118241D01*
X917848Y119841D02*X921048D01*
X929448Y121441D02*Y118241D01*
X927848Y119841D02*X931048D01*
X939448Y121441D02*Y118241D01*
X937848Y119841D02*X941048D01*
X949448Y121441D02*Y118241D01*
X947848Y119841D02*X951048D01*
X959448Y121441D02*Y118241D01*
X957848Y119841D02*X961048D01*
X969448Y121441D02*Y118241D01*
X967848Y119841D02*X971048D01*
X979448Y121441D02*Y118241D01*
X977848Y119841D02*X981048D01*
X989448Y121441D02*Y118241D01*
X987848Y119841D02*X991048D01*
X999448Y121441D02*Y118241D01*
X997848Y119841D02*X1001048D01*
X1009448Y121441D02*Y118241D01*
X1007848Y119841D02*X1011048D01*
X1019448Y121441D02*Y118241D01*
X1017848Y119841D02*X1021048D01*
X1029448Y121441D02*Y118241D01*
X1027848Y119841D02*X1031048D01*
X1039448Y121441D02*Y118241D01*
X1037848Y119841D02*X1041048D01*
X1039448Y181441D02*Y178241D01*
X1037848Y179841D02*X1041048D01*
X1029448Y181441D02*Y178241D01*
X1027848Y179841D02*X1031048D01*
X1019448Y181441D02*Y178241D01*
X1017848Y179841D02*X1021048D01*
X1009448Y181441D02*Y178241D01*
X1007848Y179841D02*X1011048D01*
X999448Y181441D02*Y178241D01*
X997848Y179841D02*X1001048D01*
X989448Y181441D02*Y178241D01*
X987848Y179841D02*X991048D01*
X979448Y181441D02*Y178241D01*
X977848Y179841D02*X981048D01*
X969448Y181441D02*Y178241D01*
X967848Y179841D02*X971048D01*
X959448Y181441D02*Y178241D01*
X957848Y179841D02*X961048D01*
X949448Y181441D02*Y178241D01*
X947848Y179841D02*X951048D01*
X939448Y181441D02*Y178241D01*
X937848Y179841D02*X941048D01*
X929448Y181441D02*Y178241D01*
X927848Y179841D02*X931048D01*
X919448Y181441D02*Y178241D01*
X917848Y179841D02*X921048D01*
X909448Y181441D02*Y178241D01*
X907848Y179841D02*X911048D01*
X899448Y181441D02*Y178241D01*
X897848Y179841D02*X901048D01*
X889448Y181441D02*Y178241D01*
X887848Y179841D02*X891048D01*
X879448Y181441D02*Y178241D01*
X877848Y179841D02*X881048D01*
X869448Y181441D02*Y178241D01*
X867848Y179841D02*X871048D01*
X859448Y181441D02*Y178241D01*
X857848Y179841D02*X861048D01*
X849448Y181441D02*Y178241D01*
X847848Y179841D02*X851048D01*
X15000Y768400D02*Y765200D01*
X13400Y766800D02*X16600D01*
X135000Y769050D02*Y768300D01*
X136500Y766800D01*
X138000Y768300D01*
Y769050D02*Y768300D01*
X136500Y766800D02*Y763050D01*
X139801Y766050D02*X142051D01*
X139801Y763050D02*X142801D01*
X139801Y769050D02*Y763050D01*
Y769050D02*X142801D01*
X147603D02*X148353Y768300D01*
X145353Y769050D02*X147603D01*
X144603Y768300D02*X145353Y769050D01*
X144603Y768300D02*Y766800D01*
X145353Y766050D01*
X147603D01*
X148353Y765300D01*
Y763800D01*
X147603Y763050D02*X148353Y763800D01*
X145353Y763050D02*X147603D01*
X144603Y763800D02*X145353Y763050D01*
X135000Y759799D02*X150154D01*
X98000Y763800D02*X98750Y763050D01*
X98000Y765300D02*Y763800D01*
Y765300D02*X98750Y766050D01*
X100250D01*
X101000Y765300D01*
Y763800D01*
X100250Y763050D02*X101000Y763800D01*
X98750Y763050D02*X100250D01*
X98000Y766800D02*X98750Y766050D01*
X98000Y768300D02*Y766800D01*
Y768300D02*X98750Y769050D01*
X100250D01*
X101000Y768300D01*
Y766800D01*
X100250Y766050D02*X101000Y766800D01*
X102801Y766050D02*X105801Y769050D01*
X102801Y766050D02*X106551D01*
X105801Y769050D02*Y763050D01*
X98000Y759799D02*X108353D01*
X45000Y763800D02*X45750Y763050D01*
X45000Y768300D02*Y763800D01*
Y768300D02*X45750Y769050D01*
X47250D01*
X48000Y768300D01*
Y763800D01*
X47250Y763050D02*X48000Y763800D01*
X45750Y763050D02*X47250D01*
X45000Y764550D02*X48000Y767550D01*
X49801Y763050D02*X50551D01*
X52353Y763800D02*X53103Y763050D01*
X52353Y768300D02*Y763800D01*
Y768300D02*X53103Y769050D01*
X54603D01*
X55353Y768300D01*
Y763800D01*
X54603Y763050D02*X55353Y763800D01*
X53103Y763050D02*X54603D01*
X52353Y764550D02*X55353Y767550D01*
X57154Y768300D02*X57904Y769050D01*
X59404D01*
X60154Y768300D01*
Y763800D01*
X59404Y763050D02*X60154Y763800D01*
X57904Y763050D02*X59404D01*
X57154Y763800D02*X57904Y763050D01*
Y766050D02*X60154D01*
X61956Y763800D02*X62706Y763050D01*
X61956Y768300D02*Y763800D01*
Y768300D02*X62706Y769050D01*
X64206D01*
X64956Y768300D01*
Y763800D01*
X64206Y763050D02*X64956Y763800D01*
X62706Y763050D02*X64206D01*
X61956Y764550D02*X64956Y767550D01*
X45000Y759799D02*X66757D01*
X566929Y484251D02*Y482651D01*
Y484251D02*X568315Y485051D01*
X566929Y484251D02*X565543Y485051D01*
X448819Y562991D02*Y561391D01*
Y562991D02*X450205Y563791D01*
X448819Y562991D02*X447433Y563791D01*
X425197Y476377D02*Y474777D01*
Y476377D02*X426583Y477177D01*
X425197Y476377D02*X423811Y477177D01*
X568110Y434251D02*Y432651D01*
Y434251D02*X569496Y435051D01*
X568110Y434251D02*X566724Y435051D01*
X562992Y421259D02*Y419659D01*
Y421259D02*X564378Y422059D01*
X562992Y421259D02*X561606Y422059D01*
X472441Y385826D02*Y384226D01*
Y385826D02*X473827Y386626D01*
X472441Y385826D02*X471055Y386626D01*
X530512Y385826D02*Y384226D01*
Y385826D02*X531898Y386626D01*
X530512Y385826D02*X529126Y386626D01*
X562992Y478345D02*Y476745D01*
Y478345D02*X564378Y479145D01*
X562992Y478345D02*X561606Y479145D01*
X436024Y459644D02*Y458044D01*
Y459644D02*X437410Y460444D01*
X436024Y459644D02*X434638Y460444D01*
X430118Y336613D02*Y335013D01*
Y336613D02*X431504Y337413D01*
X430118Y336613D02*X428732Y337413D01*
X568898Y227361D02*Y225761D01*
Y227361D02*X570284Y228161D01*
X568898Y227361D02*X567512Y228161D01*
X581693Y420274D02*Y418674D01*
Y420274D02*X583079Y421074D01*
X581693Y420274D02*X580307Y421074D01*
X563976Y334644D02*Y333044D01*
Y334644D02*X565362Y335444D01*
X563976Y334644D02*X562590Y335444D01*
X592520Y144684D02*Y143084D01*
Y144684D02*X593906Y145484D01*
X592520Y144684D02*X591134Y145484D01*
X260827Y176180D02*Y174580D01*
Y176180D02*X262213Y176980D01*
X260827Y176180D02*X259441Y176980D01*
X580709Y36416D02*Y34816D01*
Y36416D02*X582095Y37216D01*
X580709Y36416D02*X579323Y37216D01*
X586614Y90550D02*Y88950D01*
Y90550D02*X588000Y91350D01*
X586614Y90550D02*X585228Y91350D01*
X270669Y556101D02*Y554501D01*
Y556101D02*X272055Y556901D01*
X270669Y556101D02*X269283Y556901D01*
X270669Y272637D02*Y271037D01*
Y272637D02*X272055Y273437D01*
X270669Y272637D02*X269283Y273437D01*
X272638Y164369D02*Y162769D01*
Y164369D02*X274024Y165169D01*
X272638Y164369D02*X271252Y165169D01*
X430118Y143700D02*Y142100D01*
Y143700D02*X431504Y144500D01*
X430118Y143700D02*X428732Y144500D01*
X430118Y259841D02*Y258241D01*
Y259841D02*X431504Y260641D01*
X430118Y259841D02*X428732Y260641D01*
X598425Y250983D02*Y249383D01*
Y250983D02*X599811Y251783D01*
X598425Y250983D02*X597039Y251783D01*
X446850Y250983D02*Y249383D01*
Y250983D02*X448236Y251783D01*
X446850Y250983D02*X445464Y251783D01*
X417323Y281495D02*Y279895D01*
Y281495D02*X418709Y282295D01*
X417323Y281495D02*X415937Y282295D01*
X671260Y346456D02*Y344856D01*
Y346456D02*X672646Y347256D01*
X671260Y346456D02*X669874Y347256D01*
X604331Y172243D02*Y170643D01*
Y172243D02*X605717Y173043D01*
X604331Y172243D02*X602945Y173043D01*
X598425Y311022D02*Y309422D01*
Y311022D02*X599811Y311822D01*
X598425Y311022D02*X597039Y311822D01*
X654527Y309054D02*Y307454D01*
Y309054D02*X655913Y309854D01*
X654527Y309054D02*X653141Y309854D01*
X685039Y393700D02*Y392100D01*
Y393700D02*X686425Y394500D01*
X685039Y393700D02*X683653Y394500D01*
X572835Y446456D02*Y444856D01*
Y446456D02*X574221Y447256D01*
X572835Y446456D02*X571449Y447256D01*
X15000Y781800D02*Y780200D01*
Y781800D02*X16386Y782600D01*
X15000Y781800D02*X13614Y782600D01*
X135000Y784050D02*Y783300D01*
X136500Y781800D01*
X138000Y783300D01*
Y784050D02*Y783300D01*
X136500Y781800D02*Y778050D01*
X139801Y781050D02*X142051D01*
X139801Y778050D02*X142801D01*
X139801Y784050D02*Y778050D01*
Y784050D02*X142801D01*
X147603D02*X148353Y783300D01*
X145353Y784050D02*X147603D01*
X144603Y783300D02*X145353Y784050D01*
X144603Y783300D02*Y781800D01*
X145353Y781050D01*
X147603D01*
X148353Y780300D01*
Y778800D01*
X147603Y778050D02*X148353Y778800D01*
X145353Y778050D02*X147603D01*
X144603Y778800D02*X145353Y778050D01*
X135000Y774799D02*X150154D01*
X98000Y783300D02*X98750Y784050D01*
X100250D01*
X101000Y783300D01*
Y778800D01*
X100250Y778050D02*X101000Y778800D01*
X98750Y778050D02*X100250D01*
X98000Y778800D02*X98750Y778050D01*
Y781050D02*X101000D01*
X103551Y778050D02*X105051D01*
X104301Y784050D02*Y778050D01*
X102801Y782550D02*X104301Y784050D01*
X98000Y774799D02*X106853D01*
X45000Y778800D02*X45750Y778050D01*
X45000Y783300D02*Y778800D01*
Y783300D02*X45750Y784050D01*
X47250D01*
X48000Y783300D01*
Y778800D01*
X47250Y778050D02*X48000Y778800D01*
X45750Y778050D02*X47250D01*
X45000Y779550D02*X48000Y782550D01*
X49801Y778050D02*X50551D01*
X52353Y778800D02*X53103Y778050D01*
X52353Y783300D02*Y778800D01*
Y783300D02*X53103Y784050D01*
X54603D01*
X55353Y783300D01*
Y778800D01*
X54603Y778050D02*X55353Y778800D01*
X53103Y778050D02*X54603D01*
X52353Y779550D02*X55353Y782550D01*
X57154Y783300D02*X57904Y784050D01*
X60154D01*
X60904Y783300D01*
Y781800D01*
X57154Y778050D02*X60904Y781800D01*
X57154Y778050D02*X60904D01*
X62706Y781050D02*X65706Y784050D01*
X62706Y781050D02*X66456D01*
X65706Y784050D02*Y778050D01*
X45000Y774799D02*X68257D01*
X3000Y799050D02*X3750Y798300D01*
X750Y799050D02*X3000D01*
X0Y798300D02*X750Y799050D01*
X0Y798300D02*Y796800D01*
X750Y796050D01*
X3000D01*
X3750Y795300D01*
Y793800D01*
X3000Y793050D02*X3750Y793800D01*
X750Y793050D02*X3000D01*
X0Y793800D02*X750Y793050D01*
X5551Y796050D02*Y793800D01*
X6301Y793050D01*
X8551Y796050D02*Y791550D01*
X7801Y790800D02*X8551Y791550D01*
X6301Y790800D02*X7801D01*
X5551Y791550D02*X6301Y790800D01*
Y793050D02*X7801D01*
X8551Y793800D01*
X11103Y795300D02*Y793050D01*
Y795300D02*X11853Y796050D01*
X12603D01*
X13353Y795300D01*
Y793050D01*
Y795300D02*X14103Y796050D01*
X14853D01*
X15603Y795300D01*
Y793050D01*
X10353Y796050D02*X11103Y795300D01*
X17404Y799050D02*Y793050D01*
Y793800D02*X18154Y793050D01*
X19654D01*
X20404Y793800D01*
Y795300D02*Y793800D01*
X19654Y796050D02*X20404Y795300D01*
X18154Y796050D02*X19654D01*
X17404Y795300D02*X18154Y796050D01*
X22206Y795300D02*Y793800D01*
Y795300D02*X22956Y796050D01*
X24456D01*
X25206Y795300D01*
Y793800D01*
X24456Y793050D02*X25206Y793800D01*
X22956Y793050D02*X24456D01*
X22206Y793800D02*X22956Y793050D01*
X27007Y799050D02*Y793800D01*
X27757Y793050D01*
X41750Y799050D02*Y793050D01*
X44000Y799050D02*X44750Y798300D01*
Y793800D01*
X44000Y793050D02*X44750Y793800D01*
X41000Y793050D02*X44000D01*
X41000Y799050D02*X44000D01*
X46551Y797550D02*Y796800D01*
Y795300D02*Y793050D01*
X50303Y796050D02*X51053Y795300D01*
X48803Y796050D02*X50303D01*
X48053Y795300D02*X48803Y796050D01*
X48053Y795300D02*Y793800D01*
X48803Y793050D01*
X51053Y796050D02*Y793800D01*
X51803Y793050D01*
X48803D02*X50303D01*
X51053Y793800D01*
X54354Y795300D02*Y793050D01*
Y795300D02*X55104Y796050D01*
X55854D01*
X56604Y795300D01*
Y793050D01*
Y795300D02*X57354Y796050D01*
X58104D01*
X58854Y795300D01*
Y793050D01*
X53604Y796050D02*X54354Y795300D01*
X60656Y793050D02*X61406D01*
X65907Y793800D02*X66657Y793050D01*
X65907Y798300D02*X66657Y799050D01*
X65907Y798300D02*Y793800D01*
X68459Y799050D02*X69959D01*
X69209D02*Y793050D01*
X68459D02*X69959D01*
X72510Y795300D02*Y793050D01*
Y795300D02*X73260Y796050D01*
X74010D01*
X74760Y795300D01*
Y793050D01*
X71760Y796050D02*X72510Y795300D01*
X77312Y796050D02*X79562D01*
X76562Y795300D02*X77312Y796050D01*
X76562Y795300D02*Y793800D01*
X77312Y793050D01*
X79562D01*
X81363Y799050D02*Y793050D01*
Y795300D02*X82113Y796050D01*
X83613D01*
X84363Y795300D01*
Y793050D01*
X86165Y799050D02*X86915Y798300D01*
Y793800D01*
X86165Y793050D02*X86915Y793800D01*
X95750Y793050D02*X98000D01*
X95000Y793800D02*X95750Y793050D01*
X95000Y798300D02*Y793800D01*
Y798300D02*X95750Y799050D01*
X98000D01*
X99801Y795300D02*Y793800D01*
Y795300D02*X100551Y796050D01*
X102051D01*
X102801Y795300D01*
Y793800D01*
X102051Y793050D02*X102801Y793800D01*
X100551Y793050D02*X102051D01*
X99801Y793800D02*X100551Y793050D01*
X104603Y796050D02*Y793800D01*
X105353Y793050D01*
X106853D01*
X107603Y793800D01*
Y796050D02*Y793800D01*
X110154Y795300D02*Y793050D01*
Y795300D02*X110904Y796050D01*
X111654D01*
X112404Y795300D01*
Y793050D01*
X109404Y796050D02*X110154Y795300D01*
X114956Y799050D02*Y793800D01*
X115706Y793050D01*
X114206Y796800D02*X115706D01*
X130750Y799050D02*Y793050D01*
X130000Y799050D02*X133000D01*
X133750Y798300D01*
Y796800D01*
X133000Y796050D02*X133750Y796800D01*
X130750Y796050D02*X133000D01*
X135551Y799050D02*Y793800D01*
X136301Y793050D01*
X140053Y796050D02*X140803Y795300D01*
X138553Y796050D02*X140053D01*
X137803Y795300D02*X138553Y796050D01*
X137803Y795300D02*Y793800D01*
X138553Y793050D01*
X140803Y796050D02*Y793800D01*
X141553Y793050D01*
X138553D02*X140053D01*
X140803Y793800D01*
X144104Y799050D02*Y793800D01*
X144854Y793050D01*
X143354Y796800D02*X144854D01*
X147106Y793050D02*X149356D01*
X146356Y793800D02*X147106Y793050D01*
X146356Y795300D02*Y793800D01*
Y795300D02*X147106Y796050D01*
X148606D01*
X149356Y795300D01*
X146356Y794550D02*X149356D01*
Y795300D02*Y794550D01*
X154157Y799050D02*Y793050D01*
X153407D02*X154157Y793800D01*
X151907Y793050D02*X153407D01*
X151157Y793800D02*X151907Y793050D01*
X151157Y795300D02*Y793800D01*
Y795300D02*X151907Y796050D01*
X153407D01*
X154157Y795300D01*
X157459Y796050D02*Y795300D01*
Y793800D02*Y793050D01*
X155959Y798300D02*Y797550D01*
Y798300D02*X156709Y799050D01*
X158209D01*
X158959Y798300D01*
Y797550D01*
X157459Y796050D02*X158959Y797550D01*
X0Y814050D02*X3000D01*
X1500D02*Y808050D01*
X4801Y814050D02*Y808050D01*
Y810300D02*X5551Y811050D01*
X7051D01*
X7801Y810300D01*
Y808050D01*
X10353D02*X12603D01*
X9603Y808800D02*X10353Y808050D01*
X9603Y810300D02*Y808800D01*
Y810300D02*X10353Y811050D01*
X11853D01*
X12603Y810300D01*
X9603Y809550D02*X12603D01*
Y810300D02*Y809550D01*
X15154Y810300D02*Y808050D01*
Y810300D02*X15904Y811050D01*
X17404D01*
X14404D02*X15154Y810300D01*
X19956Y808050D02*X22206D01*
X19206Y808800D02*X19956Y808050D01*
X19206Y810300D02*Y808800D01*
Y810300D02*X19956Y811050D01*
X21456D01*
X22206Y810300D01*
X19206Y809550D02*X22206D01*
Y810300D02*Y809550D01*
X28957Y811050D02*X29707Y810300D01*
X27457Y811050D02*X28957D01*
X26707Y810300D02*X27457Y811050D01*
X26707Y810300D02*Y808800D01*
X27457Y808050D01*
X29707Y811050D02*Y808800D01*
X30457Y808050D01*
X27457D02*X28957D01*
X29707Y808800D01*
X33009Y810300D02*Y808050D01*
Y810300D02*X33759Y811050D01*
X35259D01*
X32259D02*X33009Y810300D01*
X37810Y808050D02*X40060D01*
X37060Y808800D02*X37810Y808050D01*
X37060Y810300D02*Y808800D01*
Y810300D02*X37810Y811050D01*
X39310D01*
X40060Y810300D01*
X37060Y809550D02*X40060D01*
Y810300D02*Y809550D01*
X45312Y808050D02*X46812D01*
X46062Y814050D02*Y808050D01*
X44562Y812550D02*X46062Y814050D01*
X48613Y813300D02*X49363Y814050D01*
X50863D01*
X51613Y813300D01*
Y808800D01*
X50863Y808050D02*X51613Y808800D01*
X49363Y808050D02*X50863D01*
X48613Y808800D02*X49363Y808050D01*
Y811050D02*X51613D01*
X59115Y814050D02*Y808050D01*
X58365D02*X59115Y808800D01*
X56865Y808050D02*X58365D01*
X56115Y808800D02*X56865Y808050D01*
X56115Y810300D02*Y808800D01*
Y810300D02*X56865Y811050D01*
X58365D01*
X59115Y810300D01*
X60916Y812550D02*Y811800D01*
Y810300D02*Y808050D01*
X63168Y813300D02*Y808050D01*
Y813300D02*X63918Y814050D01*
X64668D01*
X62418Y811050D02*X63918D01*
X66919Y813300D02*Y808050D01*
Y813300D02*X67669Y814050D01*
X68419D01*
X66169Y811050D02*X67669D01*
X70671Y808050D02*X72921D01*
X69921Y808800D02*X70671Y808050D01*
X69921Y810300D02*Y808800D01*
Y810300D02*X70671Y811050D01*
X72171D01*
X72921Y810300D01*
X69921Y809550D02*X72921D01*
Y810300D02*Y809550D01*
X75472Y810300D02*Y808050D01*
Y810300D02*X76222Y811050D01*
X77722D01*
X74722D02*X75472Y810300D01*
X80274Y808050D02*X82524D01*
X79524Y808800D02*X80274Y808050D01*
X79524Y810300D02*Y808800D01*
Y810300D02*X80274Y811050D01*
X81774D01*
X82524Y810300D01*
X79524Y809550D02*X82524D01*
Y810300D02*Y809550D01*
X85075Y810300D02*Y808050D01*
Y810300D02*X85825Y811050D01*
X86575D01*
X87325Y810300D01*
Y808050D01*
X84325Y811050D02*X85075Y810300D01*
X89877Y814050D02*Y808800D01*
X90627Y808050D01*
X89127Y811800D02*X90627D01*
X97828Y814050D02*Y808050D01*
X97078D02*X97828Y808800D01*
X95578Y808050D02*X97078D01*
X94828Y808800D02*X95578Y808050D01*
X94828Y810300D02*Y808800D01*
Y810300D02*X95578Y811050D01*
X97078D01*
X97828Y810300D01*
X100380D02*Y808050D01*
Y810300D02*X101130Y811050D01*
X102630D01*
X99630D02*X100380Y810300D01*
X104431Y812550D02*Y811800D01*
Y810300D02*Y808050D01*
X105933Y814050D02*Y808800D01*
X106683Y808050D01*
X108184Y814050D02*Y808800D01*
X108934Y808050D01*
X113886D02*X116136D01*
X116886Y808800D01*
X116136Y809550D02*X116886Y808800D01*
X113886Y809550D02*X116136D01*
X113136Y810300D02*X113886Y809550D01*
X113136Y810300D02*X113886Y811050D01*
X116136D01*
X116886Y810300D01*
X113136Y808800D02*X113886Y808050D01*
X118687Y812550D02*Y811800D01*
Y810300D02*Y808050D01*
X120189Y811050D02*X123189D01*
X120189Y808050D02*X123189Y811050D01*
X120189Y808050D02*X123189D01*
X125740D02*X127990D01*
X124990Y808800D02*X125740Y808050D01*
X124990Y810300D02*Y808800D01*
Y810300D02*X125740Y811050D01*
X127240D01*
X127990Y810300D01*
X124990Y809550D02*X127990D01*
Y810300D02*Y809550D01*
X130542Y808050D02*X132792D01*
X133542Y808800D01*
X132792Y809550D02*X133542Y808800D01*
X130542Y809550D02*X132792D01*
X129792Y810300D02*X130542Y809550D01*
X129792Y810300D02*X130542Y811050D01*
X132792D01*
X133542Y810300D01*
X129792Y808800D02*X130542Y808050D01*
X138043Y811050D02*Y808800D01*
X138793Y808050D01*
X140293D01*
X141043Y808800D01*
Y811050D02*Y808800D01*
X143595Y808050D02*X145845D01*
X146595Y808800D01*
X145845Y809550D02*X146595Y808800D01*
X143595Y809550D02*X145845D01*
X142845Y810300D02*X143595Y809550D01*
X142845Y810300D02*X143595Y811050D01*
X145845D01*
X146595Y810300D01*
X142845Y808800D02*X143595Y808050D01*
X149146D02*X151396D01*
X148396Y808800D02*X149146Y808050D01*
X148396Y810300D02*Y808800D01*
Y810300D02*X149146Y811050D01*
X150646D01*
X151396Y810300D01*
X148396Y809550D02*X151396D01*
Y810300D02*Y809550D01*
X156198Y814050D02*Y808050D01*
X155448D02*X156198Y808800D01*
X153948Y808050D02*X155448D01*
X153198Y808800D02*X153948Y808050D01*
X153198Y810300D02*Y808800D01*
Y810300D02*X153948Y811050D01*
X155448D01*
X156198Y810300D01*
X160699Y812550D02*Y811800D01*
Y810300D02*Y808050D01*
X162951Y810300D02*Y808050D01*
Y810300D02*X163701Y811050D01*
X164451D01*
X165201Y810300D01*
Y808050D01*
X162201Y811050D02*X162951Y810300D01*
X170452Y814050D02*Y808800D01*
X171202Y808050D01*
X169702Y811800D02*X171202D01*
X172704Y814050D02*Y808050D01*
Y810300D02*X173454Y811050D01*
X174954D01*
X175704Y810300D01*
Y808050D01*
X177505Y812550D02*Y811800D01*
Y810300D02*Y808050D01*
X179757D02*X182007D01*
X182757Y808800D01*
X182007Y809550D02*X182757Y808800D01*
X179757Y809550D02*X182007D01*
X179007Y810300D02*X179757Y809550D01*
X179007Y810300D02*X179757Y811050D01*
X182007D01*
X182757Y810300D01*
X179007Y808800D02*X179757Y808050D01*
X187258Y814050D02*Y808800D01*
X188008Y808050D01*
X191760Y811050D02*X192510Y810300D01*
X190260Y811050D02*X191760D01*
X189510Y810300D02*X190260Y811050D01*
X189510Y810300D02*Y808800D01*
X190260Y808050D01*
X192510Y811050D02*Y808800D01*
X193260Y808050D01*
X190260D02*X191760D01*
X192510Y808800D01*
X195061Y811050D02*Y808800D01*
X195811Y808050D01*
X198061Y811050D02*Y806550D01*
X197311Y805800D02*X198061Y806550D01*
X195811Y805800D02*X197311D01*
X195061Y806550D02*X195811Y805800D01*
Y808050D02*X197311D01*
X198061Y808800D01*
X199863Y810300D02*Y808800D01*
Y810300D02*X200613Y811050D01*
X202113D01*
X202863Y810300D01*
Y808800D01*
X202113Y808050D02*X202863Y808800D01*
X200613Y808050D02*X202113D01*
X199863Y808800D02*X200613Y808050D01*
X204664Y811050D02*Y808800D01*
X205414Y808050D01*
X206914D01*
X207664Y808800D01*
Y811050D02*Y808800D01*
X210216Y814050D02*Y808800D01*
X210966Y808050D01*
X209466Y811800D02*X210966D01*
X212467Y806550D02*X213967Y808050D01*
X218469Y811050D02*X221469Y814050D01*
X218469Y811050D02*X222219D01*
X221469Y814050D02*Y808050D01*
X224020Y811050D02*X227020Y814050D01*
X224020Y811050D02*X227770D01*
X227020Y814050D02*Y808050D01*
X231822Y814050D02*X232572Y813300D01*
X230322Y814050D02*X231822D01*
X229572Y813300D02*X230322Y814050D01*
X229572Y813300D02*Y808800D01*
X230322Y808050D01*
X231822Y811050D02*X232572Y810300D01*
X229572Y811050D02*X231822D01*
X230322Y808050D02*X231822D01*
X232572Y808800D01*
Y810300D02*Y808800D01*
X237073Y814050D02*Y808050D01*
Y810300D02*X237823Y811050D01*
X239323D01*
X240073Y810300D01*
Y808050D01*
X241875Y810300D02*Y808800D01*
Y810300D02*X242625Y811050D01*
X244125D01*
X244875Y810300D01*
Y808800D01*
X244125Y808050D02*X244875Y808800D01*
X242625Y808050D02*X244125D01*
X241875Y808800D02*X242625Y808050D01*
X246676Y814050D02*Y808800D01*
X247426Y808050D01*
X249678D02*X251928D01*
X248928Y808800D02*X249678Y808050D01*
X248928Y810300D02*Y808800D01*
Y810300D02*X249678Y811050D01*
X251178D01*
X251928Y810300D01*
X248928Y809550D02*X251928D01*
Y810300D02*Y809550D01*
X254479Y808050D02*X256729D01*
X257479Y808800D01*
X256729Y809550D02*X257479Y808800D01*
X254479Y809550D02*X256729D01*
X253729Y810300D02*X254479Y809550D01*
X253729Y810300D02*X254479Y811050D01*
X256729D01*
X257479Y810300D01*
X253729Y808800D02*X254479Y808050D01*
X262731Y814050D02*Y808800D01*
X263481Y808050D01*
X261981Y811800D02*X263481D01*
X264982Y810300D02*Y808800D01*
Y810300D02*X265732Y811050D01*
X267232D01*
X267982Y810300D01*
Y808800D01*
X267232Y808050D02*X267982Y808800D01*
X265732Y808050D02*X267232D01*
X264982Y808800D02*X265732Y808050D01*
X270534Y814050D02*Y808800D01*
X271284Y808050D01*
X269784Y811800D02*X271284D01*
X275035Y811050D02*X275785Y810300D01*
X273535Y811050D02*X275035D01*
X272785Y810300D02*X273535Y811050D01*
X272785Y810300D02*Y808800D01*
X273535Y808050D01*
X275785Y811050D02*Y808800D01*
X276535Y808050D01*
X273535D02*X275035D01*
X275785Y808800D01*
X278337Y814050D02*Y808800D01*
X279087Y808050D01*
G54D13*X0Y590550D02*X1259850D01*
X0D02*Y0D01*
X1259850Y590550D02*Y0D01*
X0D02*X1259850D01*
G54D54*X200000Y604050D02*Y598050D01*
Y604050D02*X202250Y601800D01*
X204500Y604050D01*
Y598050D01*
X208551Y601050D02*X209301Y600300D01*
X207051Y601050D02*X208551D01*
X206301Y600300D02*X207051Y601050D01*
X206301Y600300D02*Y598800D01*
X207051Y598050D01*
X209301Y601050D02*Y598800D01*
X210051Y598050D01*
X207051D02*X208551D01*
X209301Y598800D01*
X211853Y601050D02*X214853Y598050D01*
X211853D02*X214853Y601050D01*
X216654Y602550D02*Y601800D01*
Y600300D02*Y598050D01*
X218906Y600300D02*Y598050D01*
Y600300D02*X219656Y601050D01*
X220406D01*
X221156Y600300D01*
Y598050D01*
Y600300D02*X221906Y601050D01*
X222656D01*
X223406Y600300D01*
Y598050D01*
X218156Y601050D02*X218906Y600300D01*
X225207Y601050D02*Y598800D01*
X225957Y598050D01*
X227457D01*
X228207Y598800D01*
Y601050D02*Y598800D01*
X230759Y600300D02*Y598050D01*
Y600300D02*X231509Y601050D01*
X232259D01*
X233009Y600300D01*
Y598050D01*
Y600300D02*X233759Y601050D01*
X234509D01*
X235259Y600300D01*
Y598050D01*
X230009Y601050D02*X230759Y600300D01*
X240510Y604050D02*Y598050D01*
X242760Y604050D02*X243510Y603300D01*
Y598800D01*
X242760Y598050D02*X243510Y598800D01*
X239760Y598050D02*X242760D01*
X239760Y604050D02*X242760D01*
X245312Y602550D02*Y601800D01*
Y600300D02*Y598050D01*
X247563Y600300D02*Y598050D01*
Y600300D02*X248313Y601050D01*
X249063D01*
X249813Y600300D01*
Y598050D01*
Y600300D02*X250563Y601050D01*
X251313D01*
X252063Y600300D01*
Y598050D01*
X246813Y601050D02*X247563Y600300D01*
X254615Y598050D02*X256865D01*
X253865Y598800D02*X254615Y598050D01*
X253865Y600300D02*Y598800D01*
Y600300D02*X254615Y601050D01*
X256115D01*
X256865Y600300D01*
X253865Y599550D02*X256865D01*
Y600300D02*Y599550D01*
X259416Y600300D02*Y598050D01*
Y600300D02*X260166Y601050D01*
X260916D01*
X261666Y600300D01*
Y598050D01*
X258666Y601050D02*X259416Y600300D01*
X264218Y598050D02*X266468D01*
X267218Y598800D01*
X266468Y599550D02*X267218Y598800D01*
X264218Y599550D02*X266468D01*
X263468Y600300D02*X264218Y599550D01*
X263468Y600300D02*X264218Y601050D01*
X266468D01*
X267218Y600300D01*
X263468Y598800D02*X264218Y598050D01*
X269019Y602550D02*Y601800D01*
Y600300D02*Y598050D01*
X270521Y600300D02*Y598800D01*
Y600300D02*X271271Y601050D01*
X272771D01*
X273521Y600300D01*
Y598800D01*
X272771Y598050D02*X273521Y598800D01*
X271271Y598050D02*X272771D01*
X270521Y598800D02*X271271Y598050D01*
X276072Y600300D02*Y598050D01*
Y600300D02*X276822Y601050D01*
X277572D01*
X278322Y600300D01*
Y598050D01*
X275322Y601050D02*X276072Y600300D01*
X280874Y598050D02*X283124D01*
X283874Y598800D01*
X283124Y599550D02*X283874Y598800D01*
X280874Y599550D02*X283124D01*
X280124Y600300D02*X280874Y599550D01*
X280124Y600300D02*X280874Y601050D01*
X283124D01*
X283874Y600300D01*
X280124Y598800D02*X280874Y598050D01*
X285675Y601800D02*X286425D01*
X285675Y600300D02*X286425D01*
X291677Y598050D02*X293177D01*
X292427Y604050D02*Y598050D01*
X290927Y602550D02*X292427Y604050D01*
X294978Y603300D02*X295728Y604050D01*
X297978D01*
X298728Y603300D01*
Y601800D01*
X294978Y598050D02*X298728Y601800D01*
X294978Y598050D02*X298728D01*
X300530Y604050D02*X303530D01*
X300530D02*Y601050D01*
X301280Y601800D01*
X302780D01*
X303530Y601050D01*
Y598800D01*
X302780Y598050D02*X303530Y598800D01*
X301280Y598050D02*X302780D01*
X300530Y598800D02*X301280Y598050D01*
X305331D02*X308331Y601050D01*
Y603300D02*Y601050D01*
X307581Y604050D02*X308331Y603300D01*
X306081Y604050D02*X307581D01*
X305331Y603300D02*X306081Y604050D01*
X305331Y603300D02*Y601800D01*
X306081Y601050D01*
X308331D01*
X310133Y598800D02*X310883Y598050D01*
X310133Y600300D02*Y598800D01*
Y600300D02*X310883Y601050D01*
X312383D01*
X313133Y600300D01*
Y598800D01*
X312383Y598050D02*X313133Y598800D01*
X310883Y598050D02*X312383D01*
X310133Y601800D02*X310883Y601050D01*
X310133Y603300D02*Y601800D01*
Y603300D02*X310883Y604050D01*
X312383D01*
X313133Y603300D01*
Y601800D01*
X312383Y601050D02*X313133Y601800D01*
X318384Y600300D02*Y598050D01*
Y600300D02*X319134Y601050D01*
X319884D01*
X320634Y600300D01*
Y598050D01*
Y600300D02*X321384Y601050D01*
X322134D01*
X322884Y600300D01*
Y598050D01*
X317634Y601050D02*X318384Y600300D01*
X324686Y602550D02*Y601800D01*
Y600300D02*Y598050D01*
X326187Y604050D02*Y598800D01*
X326937Y598050D01*
X329189D02*X331439D01*
X332189Y598800D01*
X331439Y599550D02*X332189Y598800D01*
X329189Y599550D02*X331439D01*
X328439Y600300D02*X329189Y599550D01*
X328439Y600300D02*X329189Y601050D01*
X331439D01*
X332189Y600300D01*
X328439Y598800D02*X329189Y598050D01*
X336690Y601050D02*Y598800D01*
X337440Y598050D01*
X338190D01*
X338940Y598800D01*
Y601050D02*Y598800D01*
X339690Y598050D01*
X340440D01*
X341190Y598800D01*
Y601050D02*Y598800D01*
X342992Y602550D02*Y601800D01*
Y600300D02*Y598050D01*
X347493Y604050D02*Y598050D01*
X346743D02*X347493Y598800D01*
X345243Y598050D02*X346743D01*
X344493Y598800D02*X345243Y598050D01*
X344493Y600300D02*Y598800D01*
Y600300D02*X345243Y601050D01*
X346743D01*
X347493Y600300D01*
X350045Y598050D02*X352295D01*
X349295Y598800D02*X350045Y598050D01*
X349295Y600300D02*Y598800D01*
Y600300D02*X350045Y601050D01*
X351545D01*
X352295Y600300D01*
X349295Y599550D02*X352295D01*
Y600300D02*Y599550D01*
X354096Y596550D02*X355596Y598050D01*
X360098Y604050D02*X363098D01*
X360098D02*Y601050D01*
X360848Y601800D01*
X362348D01*
X363098Y601050D01*
Y598800D01*
X362348Y598050D02*X363098Y598800D01*
X360848Y598050D02*X362348D01*
X360098Y598800D02*X360848Y598050D01*
X364899D02*X367899Y601050D01*
Y603300D02*Y601050D01*
X367149Y604050D02*X367899Y603300D01*
X365649Y604050D02*X367149D01*
X364899Y603300D02*X365649Y604050D01*
X364899Y603300D02*Y601800D01*
X365649Y601050D01*
X367899D01*
X369701Y598800D02*X370451Y598050D01*
X369701Y603300D02*Y598800D01*
Y603300D02*X370451Y604050D01*
X371951D01*
X372701Y603300D01*
Y598800D01*
X371951Y598050D02*X372701Y598800D01*
X370451Y598050D02*X371951D01*
X369701Y599550D02*X372701Y602550D01*
X374502Y604050D02*X377502D01*
X374502D02*Y601050D01*
X375252Y601800D01*
X376752D01*
X377502Y601050D01*
Y598800D01*
X376752Y598050D02*X377502Y598800D01*
X375252Y598050D02*X376752D01*
X374502Y598800D02*X375252Y598050D01*
X382754Y600300D02*Y598050D01*
Y600300D02*X383504Y601050D01*
X384254D01*
X385004Y600300D01*
Y598050D01*
Y600300D02*X385754Y601050D01*
X386504D01*
X387254Y600300D01*
Y598050D01*
X382004Y601050D02*X382754Y600300D01*
X389055Y602550D02*Y601800D01*
Y600300D02*Y598050D01*
X390557Y604050D02*Y598800D01*
X391307Y598050D01*
X393558D02*X395808D01*
X396558Y598800D01*
X395808Y599550D02*X396558Y598800D01*
X393558Y599550D02*X395808D01*
X392808Y600300D02*X393558Y599550D01*
X392808Y600300D02*X393558Y601050D01*
X395808D01*
X396558Y600300D01*
X392808Y598800D02*X393558Y598050D01*
X401060Y604050D02*Y598050D01*
Y600300D02*X401810Y601050D01*
X403310D01*
X404060Y600300D01*
Y598050D01*
X405861Y602550D02*Y601800D01*
Y600300D02*Y598050D01*
X409613Y601050D02*X410363Y600300D01*
X408113Y601050D02*X409613D01*
X407363Y600300D02*X408113Y601050D01*
X407363Y600300D02*Y598800D01*
X408113Y598050D01*
X409613D01*
X410363Y598800D01*
X407363Y596550D02*X408113Y595800D01*
X409613D01*
X410363Y596550D01*
Y601050D02*Y596550D01*
X412164Y604050D02*Y598050D01*
Y600300D02*X412914Y601050D01*
X414414D01*
X415164Y600300D01*
Y598050D01*
X469750Y-9500D02*X472750D01*
X473500Y-8750D01*
Y-7250D02*Y-8750D01*
X472750Y-6500D02*X473500Y-7250D01*
X470500Y-6500D02*X472750D01*
X470500Y-3500D02*Y-9500D01*
X469750Y-3500D02*X472750D01*
X473500Y-4250D01*
Y-5750D01*
X472750Y-6500D02*X473500Y-5750D01*
X475301Y-7250D02*Y-8750D01*
Y-7250D02*X476051Y-6500D01*
X477551D01*
X478301Y-7250D01*
Y-8750D01*
X477551Y-9500D02*X478301Y-8750D01*
X476051Y-9500D02*X477551D01*
X475301Y-8750D02*X476051Y-9500D01*
X482353Y-6500D02*X483103Y-7250D01*
X480853Y-6500D02*X482353D01*
X480103Y-7250D02*X480853Y-6500D01*
X480103Y-7250D02*Y-8750D01*
X480853Y-9500D01*
X483103Y-6500D02*Y-8750D01*
X483853Y-9500D01*
X480853D02*X482353D01*
X483103Y-8750D01*
X486404Y-7250D02*Y-9500D01*
Y-7250D02*X487154Y-6500D01*
X488654D01*
X485654D02*X486404Y-7250D01*
X493456Y-3500D02*Y-9500D01*
X492706D02*X493456Y-8750D01*
X491206Y-9500D02*X492706D01*
X490456Y-8750D02*X491206Y-9500D01*
X490456Y-7250D02*Y-8750D01*
Y-7250D02*X491206Y-6500D01*
X492706D01*
X493456Y-7250D01*
X497957D02*Y-8750D01*
Y-7250D02*X498707Y-6500D01*
X500207D01*
X500957Y-7250D01*
Y-8750D01*
X500207Y-9500D02*X500957Y-8750D01*
X498707Y-9500D02*X500207D01*
X497957Y-8750D02*X498707Y-9500D01*
X502759Y-6500D02*Y-8750D01*
X503509Y-9500D01*
X505009D01*
X505759Y-8750D01*
Y-6500D02*Y-8750D01*
X508310Y-3500D02*Y-8750D01*
X509060Y-9500D01*
X507560Y-5750D02*X509060D01*
X510562Y-3500D02*Y-8750D01*
X511312Y-9500D01*
X512813Y-5000D02*Y-5750D01*
Y-7250D02*Y-9500D01*
X515065Y-7250D02*Y-9500D01*
Y-7250D02*X515815Y-6500D01*
X516565D01*
X517315Y-7250D01*
Y-9500D01*
X514315Y-6500D02*X515065Y-7250D01*
X519866Y-9500D02*X522116D01*
X519116Y-8750D02*X519866Y-9500D01*
X519116Y-7250D02*Y-8750D01*
Y-7250D02*X519866Y-6500D01*
X521366D01*
X522116Y-7250D01*
X519116Y-8000D02*X522116D01*
Y-7250D02*Y-8000D01*
X526618Y-5000D02*Y-5750D01*
Y-7250D02*Y-9500D01*
X528869D02*X531119D01*
X531869Y-8750D01*
X531119Y-8000D02*X531869Y-8750D01*
X528869Y-8000D02*X531119D01*
X528119Y-7250D02*X528869Y-8000D01*
X528119Y-7250D02*X528869Y-6500D01*
X531119D01*
X531869Y-7250D01*
X528119Y-8750D02*X528869Y-9500D01*
X537121Y-3500D02*Y-8750D01*
X537871Y-9500D01*
X536371Y-5750D02*X537871D01*
X539372Y-3500D02*Y-9500D01*
Y-7250D02*X540122Y-6500D01*
X541622D01*
X542372Y-7250D01*
Y-9500D01*
X544924D02*X547174D01*
X544174Y-8750D02*X544924Y-9500D01*
X544174Y-7250D02*Y-8750D01*
Y-7250D02*X544924Y-6500D01*
X546424D01*
X547174Y-7250D01*
X544174Y-8000D02*X547174D01*
Y-7250D02*Y-8000D01*
X552425Y-6500D02*X554675D01*
X551675Y-7250D02*X552425Y-6500D01*
X551675Y-7250D02*Y-8750D01*
X552425Y-9500D01*
X554675D01*
X557227D02*X559477D01*
X556477Y-8750D02*X557227Y-9500D01*
X556477Y-7250D02*Y-8750D01*
Y-7250D02*X557227Y-6500D01*
X558727D01*
X559477Y-7250D01*
X556477Y-8000D02*X559477D01*
Y-7250D02*Y-8000D01*
X562028Y-7250D02*Y-9500D01*
Y-7250D02*X562778Y-6500D01*
X563528D01*
X564278Y-7250D01*
Y-9500D01*
X561278Y-6500D02*X562028Y-7250D01*
X566830Y-3500D02*Y-8750D01*
X567580Y-9500D01*
X566080Y-5750D02*X567580D01*
X569831Y-9500D02*X572081D01*
X569081Y-8750D02*X569831Y-9500D01*
X569081Y-7250D02*Y-8750D01*
Y-7250D02*X569831Y-6500D01*
X571331D01*
X572081Y-7250D01*
X569081Y-8000D02*X572081D01*
Y-7250D02*Y-8000D01*
X574633Y-7250D02*Y-9500D01*
Y-7250D02*X575383Y-6500D01*
X576883D01*
X573883D02*X574633Y-7250D01*
X578684Y-3500D02*Y-8750D01*
X579434Y-9500D01*
X580936Y-5000D02*Y-5750D01*
Y-7250D02*Y-9500D01*
X583187Y-7250D02*Y-9500D01*
Y-7250D02*X583937Y-6500D01*
X584687D01*
X585437Y-7250D01*
Y-9500D01*
X582437Y-6500D02*X583187Y-7250D01*
X587989Y-9500D02*X590239D01*
X587239Y-8750D02*X587989Y-9500D01*
X587239Y-7250D02*Y-8750D01*
Y-7250D02*X587989Y-6500D01*
X589489D01*
X590239Y-7250D01*
X587239Y-8000D02*X590239D01*
Y-7250D02*Y-8000D01*
X594740Y-7250D02*Y-8750D01*
Y-7250D02*X595490Y-6500D01*
X596990D01*
X597740Y-7250D01*
Y-8750D01*
X596990Y-9500D02*X597740Y-8750D01*
X595490Y-9500D02*X596990D01*
X594740Y-8750D02*X595490Y-9500D01*
X600292Y-4250D02*Y-9500D01*
Y-4250D02*X601042Y-3500D01*
X601792D01*
X599542Y-6500D02*X601042D01*
X606743Y-3500D02*Y-8750D01*
X607493Y-9500D01*
X605993Y-5750D02*X607493D01*
X608995Y-3500D02*Y-9500D01*
Y-7250D02*X609745Y-6500D01*
X611245D01*
X611995Y-7250D01*
Y-9500D01*
X613796Y-5000D02*Y-5750D01*
Y-7250D02*Y-9500D01*
X616048D02*X618298D01*
X619048Y-8750D01*
X618298Y-8000D02*X619048Y-8750D01*
X616048Y-8000D02*X618298D01*
X615298Y-7250D02*X616048Y-8000D01*
X615298Y-7250D02*X616048Y-6500D01*
X618298D01*
X619048Y-7250D01*
X615298Y-8750D02*X616048Y-9500D01*
X624299D02*X625799D01*
X625049Y-3500D02*Y-9500D01*
X623549Y-5000D02*X625049Y-3500D01*
X627601Y-8750D02*X628351Y-9500D01*
X627601Y-4250D02*Y-8750D01*
Y-4250D02*X628351Y-3500D01*
X629851D01*
X630601Y-4250D01*
Y-8750D01*
X629851Y-9500D02*X630601Y-8750D01*
X628351Y-9500D02*X629851D01*
X627601Y-8000D02*X630601Y-5000D01*
X635852Y-7250D02*Y-9500D01*
Y-7250D02*X636602Y-6500D01*
X637352D01*
X638102Y-7250D01*
Y-9500D01*
Y-7250D02*X638852Y-6500D01*
X639602D01*
X640352Y-7250D01*
Y-9500D01*
X635102Y-6500D02*X635852Y-7250D01*
X642154Y-5000D02*Y-5750D01*
Y-7250D02*Y-9500D01*
X643655Y-3500D02*Y-8750D01*
X644405Y-9500D01*
X649357Y-7250D02*Y-9500D01*
Y-7250D02*X650107Y-6500D01*
X651607D01*
X648607D02*X649357Y-7250D01*
X654158Y-9500D02*X656408D01*
X653408Y-8750D02*X654158Y-9500D01*
X653408Y-7250D02*Y-8750D01*
Y-7250D02*X654158Y-6500D01*
X655658D01*
X656408Y-7250D01*
X653408Y-8000D02*X656408D01*
Y-7250D02*Y-8000D01*
X658960Y-6500D02*X661210D01*
X658210Y-7250D02*X658960Y-6500D01*
X658210Y-7250D02*Y-8750D01*
X658960Y-9500D01*
X661210D01*
X663761Y-3500D02*Y-8750D01*
X664511Y-9500D01*
X663011Y-5750D02*X664511D01*
X668263Y-6500D02*X669013Y-7250D01*
X666763Y-6500D02*X668263D01*
X666013Y-7250D02*X666763Y-6500D01*
X666013Y-7250D02*Y-8750D01*
X666763Y-9500D01*
X669013Y-6500D02*Y-8750D01*
X669763Y-9500D01*
X666763D02*X668263D01*
X669013Y-8750D01*
X672314Y-7250D02*Y-9500D01*
Y-7250D02*X673064Y-6500D01*
X673814D01*
X674564Y-7250D01*
Y-9500D01*
X671564Y-6500D02*X672314Y-7250D01*
X678616Y-6500D02*X679366Y-7250D01*
X677116Y-6500D02*X678616D01*
X676366Y-7250D02*X677116Y-6500D01*
X676366Y-7250D02*Y-8750D01*
X677116Y-9500D01*
X678616D01*
X679366Y-8750D01*
X676366Y-11000D02*X677116Y-11750D01*
X678616D01*
X679366Y-11000D01*
Y-6500D02*Y-11000D01*
X681167Y-3500D02*Y-8750D01*
X681917Y-9500D01*
X684169D02*X686419D01*
X683419Y-8750D02*X684169Y-9500D01*
X683419Y-7250D02*Y-8750D01*
Y-7250D02*X684169Y-6500D01*
X685669D01*
X686419Y-7250D01*
X683419Y-8000D02*X686419D01*
Y-7250D02*Y-8000D01*
X690920Y-6500D02*X693920D01*
X698422Y-8750D02*X699172Y-9500D01*
X698422Y-4250D02*Y-8750D01*
Y-4250D02*X699172Y-3500D01*
X700672D01*
X701422Y-4250D01*
Y-8750D01*
X700672Y-9500D02*X701422Y-8750D01*
X699172Y-9500D02*X700672D01*
X698422Y-8000D02*X701422Y-5000D01*
X703223Y-11000D02*X704723Y-9500D01*
X706525Y-8750D02*X707275Y-9500D01*
X706525Y-4250D02*Y-8750D01*
Y-4250D02*X707275Y-3500D01*
X708775D01*
X709525Y-4250D01*
Y-8750D01*
X708775Y-9500D02*X709525Y-8750D01*
X707275Y-9500D02*X708775D01*
X706525Y-8000D02*X709525Y-5000D01*
X714776Y-3500D02*Y-8750D01*
X715526Y-9500D01*
X714026Y-5750D02*X715526D01*
X717028Y-7250D02*Y-8750D01*
Y-7250D02*X717778Y-6500D01*
X719278D01*
X720028Y-7250D01*
Y-8750D01*
X719278Y-9500D02*X720028Y-8750D01*
X717778Y-9500D02*X719278D01*
X717028Y-8750D02*X717778Y-9500D01*
X725279D02*X726779D01*
X726029Y-3500D02*Y-9500D01*
X724529Y-5000D02*X726029Y-3500D01*
X728581Y-4250D02*X729331Y-3500D01*
X731581D01*
X732331Y-4250D01*
Y-5750D01*
X728581Y-9500D02*X732331Y-5750D01*
X728581Y-9500D02*X732331D01*
X734132Y-3500D02*X737132D01*
X734132D02*Y-6500D01*
X734882Y-5750D01*
X736382D01*
X737132Y-6500D01*
Y-8750D01*
X736382Y-9500D02*X737132Y-8750D01*
X734882Y-9500D02*X736382D01*
X734132Y-8750D02*X734882Y-9500D01*
X738934D02*X741934Y-6500D01*
Y-4250D02*Y-6500D01*
X741184Y-3500D02*X741934Y-4250D01*
X739684Y-3500D02*X741184D01*
X738934Y-4250D02*X739684Y-3500D01*
X738934Y-4250D02*Y-5750D01*
X739684Y-6500D01*
X741934D01*
X743735Y-8750D02*X744485Y-9500D01*
X743735Y-7250D02*Y-8750D01*
Y-7250D02*X744485Y-6500D01*
X745985D01*
X746735Y-7250D01*
Y-8750D01*
X745985Y-9500D02*X746735Y-8750D01*
X744485Y-9500D02*X745985D01*
X743735Y-5750D02*X744485Y-6500D01*
X743735Y-4250D02*Y-5750D01*
Y-4250D02*X744485Y-3500D01*
X745985D01*
X746735Y-4250D01*
Y-5750D01*
X745985Y-6500D02*X746735Y-5750D01*
X748537Y-11000D02*X750037Y-9500D01*
X751838Y-3500D02*X754838D01*
X751838D02*Y-6500D01*
X752588Y-5750D01*
X754088D01*
X754838Y-6500D01*
Y-8750D01*
X754088Y-9500D02*X754838Y-8750D01*
X752588Y-9500D02*X754088D01*
X751838Y-8750D02*X752588Y-9500D01*
X756640D02*X759640Y-6500D01*
Y-4250D02*Y-6500D01*
X758890Y-3500D02*X759640Y-4250D01*
X757390Y-3500D02*X758890D01*
X756640Y-4250D02*X757390Y-3500D01*
X756640Y-4250D02*Y-5750D01*
X757390Y-6500D01*
X759640D01*
X761441Y-8750D02*X762191Y-9500D01*
X761441Y-4250D02*Y-8750D01*
Y-4250D02*X762191Y-3500D01*
X763691D01*
X764441Y-4250D01*
Y-8750D01*
X763691Y-9500D02*X764441Y-8750D01*
X762191Y-9500D02*X763691D01*
X761441Y-8000D02*X764441Y-5000D01*
X766243Y-3500D02*X769243D01*
X766243D02*Y-6500D01*
X766993Y-5750D01*
X768493D01*
X769243Y-6500D01*
Y-8750D01*
X768493Y-9500D02*X769243Y-8750D01*
X766993Y-9500D02*X768493D01*
X766243Y-8750D02*X766993Y-9500D01*
X774494Y-7250D02*Y-9500D01*
Y-7250D02*X775244Y-6500D01*
X775994D01*
X776744Y-7250D01*
Y-9500D01*
Y-7250D02*X777494Y-6500D01*
X778244D01*
X778994Y-7250D01*
Y-9500D01*
X773744Y-6500D02*X774494Y-7250D01*
X780796Y-5000D02*Y-5750D01*
Y-7250D02*Y-9500D01*
X782297Y-3500D02*Y-8750D01*
X783047Y-9500D01*
X785299D02*X787549D01*
X788299Y-8750D01*
X787549Y-8000D02*X788299Y-8750D01*
X785299Y-8000D02*X787549D01*
X784549Y-7250D02*X785299Y-8000D01*
X784549Y-7250D02*X785299Y-6500D01*
X787549D01*
X788299Y-7250D01*
X784549Y-8750D02*X785299Y-9500D01*
X200750Y619050D02*Y613050D01*
X203000Y619050D02*X203750Y618300D01*
Y613800D01*
X203000Y613050D02*X203750Y613800D01*
X200000Y613050D02*X203000D01*
X200000Y619050D02*X203000D01*
X207801Y616050D02*X208551Y615300D01*
X206301Y616050D02*X207801D01*
X205551Y615300D02*X206301Y616050D01*
X205551Y615300D02*Y613800D01*
X206301Y613050D01*
X208551Y616050D02*Y613800D01*
X209301Y613050D01*
X206301D02*X207801D01*
X208551Y613800D01*
X211853Y619050D02*Y613800D01*
X212603Y613050D01*
X211103Y616800D02*X212603D01*
X214854Y613050D02*X217104D01*
X214104Y613800D02*X214854Y613050D01*
X214104Y615300D02*Y613800D01*
Y615300D02*X214854Y616050D01*
X216354D01*
X217104Y615300D01*
X214104Y614550D02*X217104D01*
Y615300D02*Y614550D01*
X218906Y616800D02*X219656D01*
X218906Y615300D02*X219656D01*
G54D20*G36*
X224157Y620550D02*Y610799D01*
X231659D01*
Y620550D01*
X224157D01*
G37*
G36*
X233159D02*Y610799D01*
X240660D01*
Y620550D01*
X233159D01*
G37*
G36*
X242160D02*Y610799D01*
X249662D01*
Y620550D01*
X242160D01*
G37*
G36*
X251162D02*Y610799D01*
X258663D01*
Y620550D01*
X251162D01*
G37*
G36*
X260163D02*Y610799D01*
X267665D01*
Y620550D01*
X260163D01*
G37*
G36*
X269165D02*Y610799D01*
X276666D01*
Y620550D01*
X269165D01*
G37*
G54D54*X280866Y613800D02*X281616Y613050D01*
X280866Y618300D02*Y613800D01*
Y618300D02*X281616Y619050D01*
X283116D01*
X283866Y618300D01*
Y613800D01*
X283116Y613050D02*X283866Y613800D01*
X281616Y613050D02*X283116D01*
X280866Y614550D02*X283866Y617550D01*
X285668Y619050D02*X288668D01*
X285668D02*Y616050D01*
X286418Y616800D01*
X287918D01*
X288668Y616050D01*
Y613800D01*
X287918Y613050D02*X288668Y613800D01*
X286418Y613050D02*X287918D01*
X285668Y613800D02*X286418Y613050D01*
G54D20*G36*
X293169Y620550D02*Y610799D01*
X300671D01*
Y620550D01*
X293169D01*
G37*
G36*
X302171D02*Y610799D01*
X309672D01*
Y620550D01*
X302171D01*
G37*
G36*
X311172D02*Y610799D01*
X318674D01*
Y620550D01*
X311172D01*
G37*
G36*
X320174D02*Y610799D01*
X327675D01*
Y620550D01*
X320174D01*
G37*
G36*
X329175D02*Y610799D01*
X336677D01*
Y620550D01*
X329175D01*
G37*
G36*
X338177D02*Y610799D01*
X345678D01*
Y620550D01*
X338177D01*
G37*
G54D54*X349878Y618300D02*X350628Y619050D01*
X352878D01*
X353628Y618300D01*
Y616800D01*
X349878Y613050D02*X353628Y616800D01*
X349878Y613050D02*X353628D01*
X355430Y613800D02*X356180Y613050D01*
X355430Y618300D02*Y613800D01*
Y618300D02*X356180Y619050D01*
X357680D01*
X358430Y618300D01*
Y613800D01*
X357680Y613050D02*X358430Y613800D01*
X356180Y613050D02*X357680D01*
X355430Y614550D02*X358430Y617550D01*
X360981Y613050D02*X362481D01*
X361731Y619050D02*Y613050D01*
X360231Y617550D02*X361731Y619050D01*
X364283Y618300D02*X365033Y619050D01*
X367283D01*
X368033Y618300D01*
Y616800D01*
X364283Y613050D02*X368033Y616800D01*
X364283Y613050D02*X368033D01*
X373284D02*X374784D01*
X374034Y619050D02*Y613050D01*
X372534Y617550D02*X374034Y619050D01*
X376586Y613800D02*X377336Y613050D01*
X376586Y618300D02*Y613800D01*
Y618300D02*X377336Y619050D01*
X378836D01*
X379586Y618300D01*
Y613800D01*
X378836Y613050D02*X379586Y613800D01*
X377336Y613050D02*X378836D01*
X376586Y614550D02*X379586Y617550D01*
X381387Y616800D02*X382137D01*
X381387Y615300D02*X382137D01*
X383939Y616050D02*X386939Y619050D01*
X383939Y616050D02*X387689D01*
X386939Y619050D02*Y613050D01*
X389490Y619050D02*X392490D01*
X389490D02*Y616050D01*
X390240Y616800D01*
X391740D01*
X392490Y616050D01*
Y613800D01*
X391740Y613050D02*X392490Y613800D01*
X390240Y613050D02*X391740D01*
X389490Y613800D02*X390240Y613050D01*
X394292Y616800D02*X395042D01*
X394292Y615300D02*X395042D01*
X396843Y619050D02*X399843D01*
X396843D02*Y616050D01*
X397593Y616800D01*
X399093D01*
X399843Y616050D01*
Y613800D01*
X399093Y613050D02*X399843Y613800D01*
X397593Y613050D02*X399093D01*
X396843Y613800D02*X397593Y613050D01*
X401645Y616050D02*X404645Y619050D01*
X401645Y616050D02*X405395D01*
X404645Y619050D02*Y613050D01*
X409896Y619050D02*Y613800D01*
X410646Y613050D01*
X412146D01*
X412896Y613800D01*
Y619050D02*Y613800D01*
X414698Y619050D02*X417698D01*
X416198D02*Y613050D01*
X420249D02*X422499D01*
X419499Y613800D02*X420249Y613050D01*
X419499Y618300D02*Y613800D01*
Y618300D02*X420249Y619050D01*
X422499D01*
X200000Y633300D02*Y628050D01*
Y633300D02*X200750Y634050D01*
X203000D01*
X203750Y633300D01*
Y628050D01*
X200000Y631050D02*X203750D01*
X205551D02*Y628800D01*
X206301Y628050D01*
X207801D01*
X208551Y628800D01*
Y631050D02*Y628800D01*
X211103Y634050D02*Y628800D01*
X211853Y628050D01*
X210353Y631800D02*X211853D01*
X213354Y634050D02*Y628050D01*
Y630300D02*X214104Y631050D01*
X215604D01*
X216354Y630300D01*
Y628050D01*
X218156Y630300D02*Y628800D01*
Y630300D02*X218906Y631050D01*
X220406D01*
X221156Y630300D01*
Y628800D01*
X220406Y628050D02*X221156Y628800D01*
X218906Y628050D02*X220406D01*
X218156Y628800D02*X218906Y628050D01*
X223707Y630300D02*Y628050D01*
Y630300D02*X224457Y631050D01*
X225957D01*
X222957D02*X223707Y630300D01*
X227759Y631800D02*X228509D01*
X227759Y630300D02*X228509D01*
X233010Y633300D02*Y628050D01*
Y633300D02*X233760Y634050D01*
X236010D01*
X236760Y633300D01*
Y628050D01*
X233010Y631050D02*X236760D01*
X238562Y634050D02*Y628800D01*
X239312Y628050D01*
X241563D02*X243813D01*
X240813Y628800D02*X241563Y628050D01*
X240813Y630300D02*Y628800D01*
Y630300D02*X241563Y631050D01*
X243063D01*
X243813Y630300D01*
X240813Y629550D02*X243813D01*
Y630300D02*Y629550D01*
X245615Y631050D02*X248615Y628050D01*
X245615D02*X248615Y631050D01*
X252666D02*X253416Y630300D01*
X251166Y631050D02*X252666D01*
X250416Y630300D02*X251166Y631050D01*
X250416Y630300D02*Y628800D01*
X251166Y628050D01*
X253416Y631050D02*Y628800D01*
X254166Y628050D01*
X251166D02*X252666D01*
X253416Y628800D01*
X256718Y630300D02*Y628050D01*
Y630300D02*X257468Y631050D01*
X258218D01*
X258968Y630300D01*
Y628050D01*
X255968Y631050D02*X256718Y630300D01*
X263769Y634050D02*Y628050D01*
X263019D02*X263769Y628800D01*
X261519Y628050D02*X263019D01*
X260769Y628800D02*X261519Y628050D01*
X260769Y630300D02*Y628800D01*
Y630300D02*X261519Y631050D01*
X263019D01*
X263769Y630300D01*
X266321Y628050D02*X268571D01*
X265571Y628800D02*X266321Y628050D01*
X265571Y630300D02*Y628800D01*
Y630300D02*X266321Y631050D01*
X267821D01*
X268571Y630300D01*
X265571Y629550D02*X268571D01*
Y630300D02*Y629550D01*
X271122Y630300D02*Y628050D01*
Y630300D02*X271872Y631050D01*
X273372D01*
X270372D02*X271122Y630300D01*
X277874Y634050D02*Y628050D01*
X280874D01*
X282675Y630300D02*Y628800D01*
Y630300D02*X283425Y631050D01*
X284925D01*
X285675Y630300D01*
Y628800D01*
X284925Y628050D02*X285675Y628800D01*
X283425Y628050D02*X284925D01*
X282675Y628800D02*X283425Y628050D01*
X287477Y631050D02*Y628800D01*
X288227Y628050D01*
X289727D01*
X290477Y628800D01*
Y631050D02*Y628800D01*
X293028Y630300D02*Y628050D01*
Y630300D02*X293778Y631050D01*
X295278D01*
X292278D02*X293028Y630300D01*
X297080Y632550D02*Y631800D01*
Y630300D02*Y628050D01*
X299331D02*X301581D01*
X298581Y628800D02*X299331Y628050D01*
X298581Y630300D02*Y628800D01*
Y630300D02*X299331Y631050D01*
X300831D01*
X301581Y630300D01*
X298581Y629550D02*X301581D01*
Y630300D02*Y629550D01*
X304133Y630300D02*Y628050D01*
Y630300D02*X304883Y631050D01*
X306383D01*
X303383D02*X304133Y630300D01*
X200000Y649050D02*X203000D01*
X201500D02*Y643050D01*
X204801Y647550D02*Y646800D01*
Y645300D02*Y643050D01*
X207053Y649050D02*Y643800D01*
X207803Y643050D01*
X206303Y646800D02*X207803D01*
X209304Y649050D02*Y643800D01*
X210054Y643050D01*
X212306D02*X214556D01*
X211556Y643800D02*X212306Y643050D01*
X211556Y645300D02*Y643800D01*
Y645300D02*X212306Y646050D01*
X213806D01*
X214556Y645300D01*
X211556Y644550D02*X214556D01*
Y645300D02*Y644550D01*
X216357Y646800D02*X217107D01*
X216357Y645300D02*X217107D01*
X221609Y643800D02*X222359Y643050D01*
X221609Y648300D02*X222359Y649050D01*
X221609Y648300D02*Y643800D01*
X224160Y646050D02*Y643800D01*
X224910Y643050D01*
X226410D01*
X227160Y643800D01*
Y646050D02*Y643800D01*
X229712Y645300D02*Y643050D01*
Y645300D02*X230462Y646050D01*
X231212D01*
X231962Y645300D01*
Y643050D01*
X228962Y646050D02*X229712Y645300D01*
X233763Y649050D02*Y643050D01*
Y645300D02*X236013Y643050D01*
X233763Y645300D02*X235263Y646800D01*
X238565Y645300D02*Y643050D01*
Y645300D02*X239315Y646050D01*
X240065D01*
X240815Y645300D01*
Y643050D01*
X237815Y646050D02*X238565Y645300D01*
X242616D02*Y643800D01*
Y645300D02*X243366Y646050D01*
X244866D01*
X245616Y645300D01*
Y643800D01*
X244866Y643050D02*X245616Y643800D01*
X243366Y643050D02*X244866D01*
X242616Y643800D02*X243366Y643050D01*
X247418Y646050D02*Y643800D01*
X248168Y643050D01*
X248918D01*
X249668Y643800D01*
Y646050D02*Y643800D01*
X250418Y643050D01*
X251168D01*
X251918Y643800D01*
Y646050D02*Y643800D01*
X254469Y645300D02*Y643050D01*
Y645300D02*X255219Y646050D01*
X255969D01*
X256719Y645300D01*
Y643050D01*
X253719Y646050D02*X254469Y645300D01*
X258521Y649050D02*X259271Y648300D01*
Y643800D01*
X258521Y643050D02*X259271Y643800D01*
X263772Y646050D02*X266772D01*
X271274Y649050D02*Y643050D01*
Y649050D02*X274274D01*
X271274Y646050D02*X273524D01*
X278325D02*X279075Y645300D01*
X276825Y646050D02*X278325D01*
X276075Y645300D02*X276825Y646050D01*
X276075Y645300D02*Y643800D01*
X276825Y643050D01*
X279075Y646050D02*Y643800D01*
X279825Y643050D01*
X276825D02*X278325D01*
X279075Y643800D01*
X281627Y649050D02*Y643050D01*
Y643800D02*X282377Y643050D01*
X283877D01*
X284627Y643800D01*
Y645300D02*Y643800D01*
X283877Y646050D02*X284627Y645300D01*
X282377Y646050D02*X283877D01*
X281627Y645300D02*X282377Y646050D01*
X287178Y645300D02*Y643050D01*
Y645300D02*X287928Y646050D01*
X289428D01*
X286428D02*X287178Y645300D01*
X291230Y647550D02*Y646800D01*
Y645300D02*Y643050D01*
X293481Y646050D02*X295731D01*
X292731Y645300D02*X293481Y646050D01*
X292731Y645300D02*Y643800D01*
X293481Y643050D01*
X295731D01*
X299783Y646050D02*X300533Y645300D01*
X298283Y646050D02*X299783D01*
X297533Y645300D02*X298283Y646050D01*
X297533Y645300D02*Y643800D01*
X298283Y643050D01*
X300533Y646050D02*Y643800D01*
X301283Y643050D01*
X298283D02*X299783D01*
X300533Y643800D01*
X303834Y649050D02*Y643800D01*
X304584Y643050D01*
X303084Y646800D02*X304584D01*
X306086Y647550D02*Y646800D01*
Y645300D02*Y643050D01*
X307587Y645300D02*Y643800D01*
Y645300D02*X308337Y646050D01*
X309837D01*
X310587Y645300D01*
Y643800D01*
X309837Y643050D02*X310587Y643800D01*
X308337Y643050D02*X309837D01*
X307587Y643800D02*X308337Y643050D01*
X313139Y645300D02*Y643050D01*
Y645300D02*X313889Y646050D01*
X314639D01*
X315389Y645300D01*
Y643050D01*
X312389Y646050D02*X313139Y645300D01*
X320640Y649050D02*Y643050D01*
X322890Y649050D02*X323640Y648300D01*
Y643800D01*
X322890Y643050D02*X323640Y643800D01*
X319890Y643050D02*X322890D01*
X319890Y649050D02*X322890D01*
X326192Y645300D02*Y643050D01*
Y645300D02*X326942Y646050D01*
X328442D01*
X325442D02*X326192Y645300D01*
X332493Y646050D02*X333243Y645300D01*
X330993Y646050D02*X332493D01*
X330243Y645300D02*X330993Y646050D01*
X330243Y645300D02*Y643800D01*
X330993Y643050D01*
X333243Y646050D02*Y643800D01*
X333993Y643050D01*
X330993D02*X332493D01*
X333243Y643800D01*
X335795Y646050D02*Y643800D01*
X336545Y643050D01*
X337295D01*
X338045Y643800D01*
Y646050D02*Y643800D01*
X338795Y643050D01*
X339545D01*
X340295Y643800D01*
Y646050D02*Y643800D01*
X342096Y647550D02*Y646800D01*
Y645300D02*Y643050D01*
X344348Y645300D02*Y643050D01*
Y645300D02*X345098Y646050D01*
X345848D01*
X346598Y645300D01*
Y643050D01*
X343598Y646050D02*X344348Y645300D01*
X350649Y646050D02*X351399Y645300D01*
X349149Y646050D02*X350649D01*
X348399Y645300D02*X349149Y646050D01*
X348399Y645300D02*Y643800D01*
X349149Y643050D01*
X350649D01*
X351399Y643800D01*
X348399Y641550D02*X349149Y640800D01*
X350649D01*
X351399Y641550D01*
Y646050D02*Y641550D01*
M02*
